<svg xmlns="http://www.w3.org/2000/svg" viewBox="0 0 48 48"><defs><style>.a{fill:#00843d;}.b{font-size:29px;font-family:HelveticaNeue-Bold, Helvetica Neue;font-weight:700;}.b,.c{fill:#fff;}</style></defs><title>icon-green-line-b-default</title><path class="a" d="M24.03,0a24,24,0,1,0,24,24,24,24,0,0,0-24-24"/><text class="b" transform="translate(13.7918 35.0698)">B</text><path class="a" d="M24.03,0a24,24,0,1,0,24,24,24,24,0,0,0-24-24"/><text class="b" transform="translate(13.7918 35.0698)">B</text><path class="a" d="M24,0A24,24,0,1,0,48,24,24,24,0,0,0,24,0"/><path class="c" d="M25.0732,13.647a12.8784,12.8784,0,0,1,2.6973.2612,5.83,5.83,0,0,1,2.0879.8555,3.9827,3.9827,0,0,1,1.3486,1.5805,5.5618,5.5618,0,0,1,.4785,2.4356,4.5367,4.5367,0,0,1-.7109,2.61,5.1619,5.1619,0,0,1-2.1025,1.711,4.9768,4.9768,0,0,1,2.8564,1.9282,5.7438,5.7438,0,0,1,.9424,3.3208,5.7064,5.7064,0,0,1-.6084,2.7114,5.2869,5.2869,0,0,1-1.6387,1.8706,7.2514,7.2514,0,0,1-2.35,1.0728,10.5906,10.5906,0,0,1-2.7109.3481H15.3291V13.647Zm-.58,8.3808a3.2739,3.2739,0,0,0,2.0009-.58,2.19,2.19,0,0,0,.7832-1.8852,2.4108,2.4108,0,0,0-.2607-1.189,1.941,1.941,0,0,0-.6963-.7251,2.9453,2.9453,0,0,0-1.001-.3623,6.66,6.66,0,0,0-1.1738-.1015H19.8818v4.8427Zm.2607,8.7871a6.0912,6.0912,0,0,0,1.2764-.13,3.129,3.129,0,0,0,1.0732-.4351,2.2028,2.2028,0,0,0,.7393-.8266,2.8458,2.8458,0,0,0,.2754-1.334,2.6772,2.6772,0,0,0-.8994-2.2764,3.8362,3.8362,0,0,0-2.378-.6816h-4.959v5.684Z"/></svg>