<svg viewBox="0 0 48 48" xmlns="http://www.w3.org/2000/svg"><path d="m24.03 0a24 24 0 1 0 24 24 24 24 0 0 0 -24-24" fill="#00843d"/><g fill="#fff"><path d="m18.3882 34.208a7.6287 7.6287 0 0 1 -2.9863.6235 10.6156 10.6156 0 0 1 -4.2774-.8261 9.1642 9.1642 0 0 1 -3.2051-2.2769 10.07 10.07 0 0 1 -2.0009-3.4072 12.5091 12.5091 0 0 1 -.6963-4.22 12.9392 12.9392 0 0 1 .6963-4.3062 10.345 10.345 0 0 1 2.0009-3.4651 9.1571 9.1571 0 0 1 3.2051-2.32 10.4545 10.4545 0 0 1 4.2774-.8413 10.0647 10.0647 0 0 1 3.0878.4785 8.76 8.76 0 0 1 2.6973 1.4067 7.6052 7.6052 0 0 1 2.943 5.4227h-4.35a4.3616 4.3616 0 0 0 -1.5664-2.61 4.5536 4.5536 0 0 0 -2.8125-.87 5.3169 5.3169 0 0 0 -2.61.5947 4.9308 4.9308 0 0 0 -1.74 1.5947 6.977 6.977 0 0 0 -.9707 2.2769 11.32 11.32 0 0 0 -.3047 2.6387 10.5285 10.5285 0 0 0 .3047 2.5376 6.8421 6.8421 0 0 0 .9707 2.2187 4.9784 4.9784 0 0 0 1.74 1.58 5.3115 5.3115 0 0 0 2.61.5947 4.9406 4.9406 0 0 0 3.4941-1.1455 4.9823 4.9823 0 0 0 1.4355-3.32h-4.5807v-3.3933h8.7v11.1939h-2.9l-.4639-2.3491a6.818 6.818 0 0 1 -2.6979 2.1894z"/><path d="m32.6851 13.6616v16.8784h10.0927v3.8281h-14.6455v-20.7065z"/></g></svg>