<svg viewBox="0 0 16 16" xmlns="http://www.w3.org/2000/svg"><path d="m8 0a8 8 0 1 0 8 8 8 8 0 0 0 -8-8" fill="#da291c"/><g fill="#fff"><path d="m11.5 10.45v-6.03a1.6819 1.6819 0 0 0 -1.71-1.67h-.82l.34-1.12a2.6338 2.6338 0 0 1 1.05.6.198.198 0 0 0 .28-.28 4.103 4.103 0 0 0 -3.06-.94 3.1084 3.1084 0 0 0 -2.24.96.2041.2041 0 0 0 .03.28.201.201 0 0 0 .13.04.199.199 0 0 0 .16-.07 2.1516 2.1516 0 0 1 1.01-.64l.36 1.17h-.82a1.6819 1.6819 0 0 0 -1.71 1.67v6.03a1.6687 1.6687 0 0 0 1.46 1.64l-1.46 2.91h.88l.42-.85.01-.03h4.38l.01.03.42.85h.88l-1.46-2.91a1.6687 1.6687 0 0 0 1.46-1.64zm-3.89-9.04a4.48 4.48 0 0 1 1.22.08v.01l-.38 1.25h-.9l-.39-1.28a3.06 3.06 0 0 1 .45-.06zm-1.36 2.44a.2242.2242 0 0 1 .23-.22h3.05a.222.222 0 0 1 .22.22v.43a.222.222 0 0 1 -.22.22h-3.05a.2263.2263 0 0 1 -.23-.23zm-.25 1.15h4v2h-4zm-.23 5.45a.76.76 0 1 1 .76.76.76.76 0 0 1 -.76-.76zm.53 2.7.52-1.04h2.36l.52 1.04zm3.21-1.94a.76.76 0 1 1 .76-.76.76.76 0 0 1 -.76.76z"/><path d="m10.2 14.15h-4.4l.01-.03h4.38z"/></g></svg>