<svg viewBox="0 0 16 16" xmlns="http://www.w3.org/2000/svg"><path d="m8 0a8 8 0 1 0 8 8 8 8 0 0 0 -8-8" fill="#00843d"/><path d="m7.91 4a4.1211 4.1211 0 0 1 1.44.2467 3.1258 3.1258 0 0 1 1.1543.74 3.4027 3.4027 0 0 1 .7615 1.232 4.9663 4.9663 0 0 1 .2747 1.737 5.5243 5.5243 0 0 1 -.2243 1.6134 3.5523 3.5523 0 0 1 -.6773 1.2774 3.1866 3.1866 0 0 1 -1.1314.8458 3.8377 3.8377 0 0 1 -1.5975.3077h-3.45v-8zm-.1225 6.5212a2.252 2.252 0 0 0 .74-.1236 1.6222 1.6222 0 0 0 .6379-.4087 2.043 2.043 0 0 0 .4486-.7451 3.285 3.285 0 0 0 .1686-1.12 4.6465 4.6465 0 0 0 -.1182-1.0926 2.1848 2.1848 0 0 0 -.3863-.8348 1.7177 1.7177 0 0 0 -.7112-.5318 2.8381 2.8381 0 0 0 -1.093-.1849h-1.2558v5.0419z" fill="#fff"/></svg>