<svg viewBox="0 0 48 48" xmlns="http://www.w3.org/2000/svg"><path d="m24.015 0a24 24 0 1 0 24 24 24 24 0 0 0 -24-24" fill="#008eaa"/><path d="m19.4907 9.5425v2.5468h-2.7039v1.9746l6.8663-2.9956 6.8669 2.9956v-1.9746h-2.7157v-2.5468zm6.4063 24.5482a4.2411 4.2411 0 0 1 -4.4878 0 3.7135 3.7135 0 0 0 -3.8595.1122 4.1962 4.1962 0 0 1 -4.3643-.1122 3.6688 3.6688 0 0 0 -3.7361 0 4.0168 4.0168 0 0 1 -2.0756.64v-3.3664a4.3071 4.3071 0 0 0 1.9746-.4936c2.7376-1.6156 4.0166.3254 5.5312.3141v-7.8536l-2.3112-5.6658a1.5034 1.5034 0 0 1 .7177-2.0014q.0606-.0287.1238-.0518l1.4136-.6059v-4.9363h2.659v-2.5807h3.8146v-3.4556h4.7122v3.4556h3.8146v2.5807h2.7039v4.9029l1.4137.6058a1.5035 1.5035 0 0 1 .8933 1.9294q-.0232.063-.0518.1238l-2.3229 5.6656v7.8537c1.5034 0 2.7264-1.9634 5.5312-.3478a4.2752 4.2752 0 0 0 1.9747.5048v3.3659a4.241 4.241 0 0 1 -2.0756-.64 3.7249 3.7249 0 0 0 -3.7361 0 4.1964 4.1964 0 0 1 -4.3644.1122 3.7249 3.7249 0 0 0 -3.8928-.0556zm0 5.1834a4.6338 4.6338 0 0 1 -4.6 0 3.4219 3.4219 0 0 0 -3.8034.1234 4.196 4.196 0 0 1 -4.3643-.1122 3.5 3.5 0 0 0 -3.7137.101 3.6683 3.6683 0 0 1 -2.0644.55v-3.5232a3.3665 3.3665 0 0 0 1.9747-.4931c1.4248-.9313 2.7151-.7517 4.4878.2356a4.3311 4.3311 0 0 0 3.8258-.2132c1.5819-.8751 2.4458-.662 4.1063.1234a4.0391 4.0391 0 0 0 3.7249 0c1.66-.7854 2.5693-.9985 4.1512-.1234a4.2745 4.2745 0 0 0 3.8034.2132c1.7951-.9874 3.0966-1.122 4.4878-.2356a3.1859 3.1859 0 0 0 1.9746.4936v3.5224a3.601 3.601 0 0 1 -2.1541-.5385 3.4444 3.4444 0 0 0 -3.6688-.101 4.1959 4.1959 0 0 1 -4.3644.1122 3.4891 3.4891 0 0 0 -3.8034-.1346z" fill="#fff"/></svg>