<svg viewBox="0 0 48 48" xmlns="http://www.w3.org/2000/svg"><path d="m24.1243 48c13.4463-.345 24.2234-11.2755 23.8713-24.128-.363-13.2502-10.8733-23.942-24.128-23.872a24 24 0 0 0 .2567 48" fill="#ffc72c"/><path d="m37.1751 22.3421-1.28-10.3436c-.3251-1.8664-1.4703-2.5947-3.1742-3.3585a26.7459 26.7459 0 0 0 -8.7103-1.64 26.8654 26.8654 0 0 0 -8.7245 1.64c-1.6827.7494-2.828 1.4918-3.1744 3.3582l-1.2868 10.3439v14.31h2.2589v2.4922a1.8613 1.8613 0 0 0 1.8562 1.8557 1.8614 1.8614 0 0 0 1.8559-1.8559v-2.4922h14.476v2.4922a1.8559 1.8559 0 1 0 3.7117 0v-2.4922h2.1918zm-18.5873-12.7262h10.888a.8343.8343 0 1 1 0 1.6686h-10.888a.8343.8343 0 0 1 0-1.6686zm-5.4227 12.4222 1.06-8.166a1.0639 1.0639 0 0 1 1.06-.8837h17.5843a1.0566 1.0566 0 0 1 1.0534.8837l1.06 8.166a.944.944 0 0 1 0 .2828v.0565a1.0487 1.0487 0 0 1 -1.06 1.0535h-19.7467a1.06 1.06 0 0 1 -1.011-1.11.9506.9506 0 0 1 0-.2828zm1.7749 10.188a1.9761 1.9761 0 1 1 1.9725-1.98 1.9749 1.9749 0 0 1 -1.9725 1.98zm18.1842 0a1.9761 1.9761 0 1 1 1.98-1.98 1.9749 1.9749 0 0 1 -1.9803 1.98z" fill="#1c1e23"/></svg>