<svg xmlns="http://www.w3.org/2000/svg" viewBox="0 0 48 48"><defs><style>.a{fill:#00843d;}.b{font-size:29px;font-family:HelveticaNeue-Bold, Helvetica Neue;font-weight:700;}.b,.c{fill:#fff;}</style></defs><title>icon-green-line-c-default</title><path class="a" d="M24,0A24,24,0,1,0,48,24,24,24,0,0,0,24,0"/><text class="b" transform="translate(13.2549 34.0698)">C</text><path class="a" d="M24,0A24,24,0,1,0,48,24,24,24,0,0,0,24,0"/><text class="b" transform="translate(13.2549 34.0698)">C</text><path class="a" d="M24,0A24,24,0,1,0,48,24,24,24,0,0,0,24,0"/><path class="c" d="M28.5391,19.186a4.5976,4.5976,0,0,0-1.0157-1.1455,4.6983,4.6983,0,0,0-1.3769-.7685,4.7481,4.7481,0,0,0-1.6094-.2754,5.3165,5.3165,0,0,0-2.61.5947,4.93,4.93,0,0,0-1.74,1.5947,6.9813,6.9813,0,0,0-.9707,2.2769,11.3252,11.3252,0,0,0-.3047,2.6387,10.5335,10.5335,0,0,0,.3047,2.5376,6.8464,6.8464,0,0,0,.9707,2.2187,4.9778,4.9778,0,0,0,1.74,1.58,5.3111,5.3111,0,0,0,2.61.5947A4.2145,4.2145,0,0,0,27.8,29.7568a5.905,5.905,0,0,0,1.4346-3.3642h4.4082a10.5306,10.5306,0,0,1-.8985,3.5093A8.4181,8.4181,0,0,1,30.83,32.57a8.1282,8.1282,0,0,1-2.7842,1.6817,10.2013,10.2013,0,0,1-3.5088.58,10.6154,10.6154,0,0,1-4.2773-.8261,9.1633,9.1633,0,0,1-3.2051-2.2769,10.0722,10.0722,0,0,1-2.001-3.4072,12.5091,12.5091,0,0,1-.6963-4.22,12.9392,12.9392,0,0,1,.6963-4.3062,10.3469,10.3469,0,0,1,2.001-3.4658A9.1562,9.1562,0,0,1,20.26,14.01a11.0991,11.0991,0,0,1,7.5107-.3482,8.7651,8.7651,0,0,1,2.7256,1.4356,7.7488,7.7488,0,0,1,1.9863,2.3344,8.349,8.349,0,0,1,.9864,3.19H29.0605A3.717,3.717,0,0,0,28.5391,19.186Z"/></svg>