<svg viewBox="0 0 48 48" xmlns="http://www.w3.org/2000/svg"><path d="m24.5 3.15a13.34 13.34 0 0 0 -13.33 13.32c0 4.26 4.91 14.83 13.13 28.27a.24.24 0 0 0 .4 0c8.22-13.44 13.12-24 13.12-28.27a13.33 13.33 0 0 0 -13.32-13.32z" fill="#cee0f4"/><g fill="#165c96"><path d="m24.5.15a16.35 16.35 0 0 0 -16.33 16.32c0 6.66 8.5 21.55 13.57 29.84a3.22 3.22 0 0 0 2.76 1.54 3.22 3.22 0 0 0 2.76-1.55c5.06-8.3 13.56-23.17 13.56-29.83a16.34 16.34 0 0 0 -16.32-16.32zm0 44.7a.22.22 0 0 1 -.2-.11c-8.22-13.44-13.13-24-13.13-28.27a13.33 13.33 0 0 1 26.65 0c0 4.26-4.9 14.83-13.12 28.27a.22.22 0 0 1 -.2.11z"/><circle cx="24.5" cy="16.49" r="5.16"/></g></svg>