<svg viewBox="0 0 48 48" xmlns="http://www.w3.org/2000/svg"><path d="m24 0a24 24 0 1 0 24 24 24 24 0 0 0 -24-24" fill="#80276c"/><path d="m33.39 14.48a1.3583 1.3583 0 0 1 -.61-1.15v-3.59a2.2666 2.2666 0 0 0 -1.78-2.16 57.5819 57.5819 0 0 0 -6.52-1.5 2.386 2.386 0 0 0 -1.03.01c-1.95.43-3.91.81-5.84 1.35-1.14.31-2.34.94-2.34 2.3v3.56a1.3368 1.3368 0 0 1 -.62 1.16 2.3568 2.3568 0 0 0 -1.12 2.01v15.14a2.3706 2.3706 0 0 0 .88 1.82l3.83 2.8-3.09 5.74h2.52l.44-.79h11.83l.45.79h2.5l-3.07-5.74h.01l3.75-2.77a2.3781 2.3781 0 0 0 .89-1.85v-15.14a2.3716 2.3716 0 0 0 -1.08-1.99zm-7.55-5.6a.7477.7477 0 0 1 .91-.73l3.7.78a.73.73 0 0 1 .59.72v2.2a.7521.7521 0 0 1 -.89.74l-3.7-.72a.76.76 0 0 1 -.61-.74zm2.07 28.65h-7.79l.66-1.2h6.46zm-3.91-20.89a2.705 2.705 0 1 1 -2.7 2.71 2.7036 2.7036 0 0 1 2.7-2.71zm-6.81-6.99a.72.72 0 0 1 .6-.72l3.69-.78a.74.74 0 0 1 .9.73v2.25a.7508.7508 0 0 1 -.6.74l-3.7.72a.7521.7521 0 0 1 -.89-.74zm.8 23.91a2.015 2.015 0 1 1 2.01-2.01 2.01 2.01 0 0 1 -2.01 2.01zm.78 6.41.69-1.24h9.12l.69 1.24zm11.22-6.41a2.015 2.015 0 1 1 2.01-2.01 2.01 2.01 0 0 1 -2.01 2.01z" fill="#fff"/></svg>