<svg viewBox="0 0 16 16" xmlns="http://www.w3.org/2000/svg"><path d="m8 0a8 8 0 1 0 8 8 8 8 0 0 0 -8-8" fill="#00843d"/><path d="m8.59 4a5.3979 5.3979 0 0 1 1.0856.1012 2.3943 2.3943 0 0 1 .8395.33 1.5577 1.5577 0 0 1 .5422.6106 2.0668 2.0668 0 0 1 .1926.941 1.7013 1.7013 0 0 1 -.286 1.0083 2.06 2.06 0 0 1 -.8452.6614 2.0033 2.0033 0 0 1 1.1482.7451 2.1514 2.1514 0 0 1 .3794 1.2829 2.1366 2.1366 0 0 1 -.2449 1.0477 2.0576 2.0576 0 0 1 -.66.7221 2.9575 2.9575 0 0 1 -.9443.4147 4.4245 4.4245 0 0 1 -1.0893.135h-4.0359v-8zm-.2331 3.2382a1.3524 1.3524 0 0 0 .8054-.2243.8317.8317 0 0 0 .3144-.7282.8922.8922 0 0 0 -.1048-.459.7518.7518 0 0 0 -.2791-.28 1.2228 1.2228 0 0 0 -.4033-.14 2.7534 2.7534 0 0 0 -.4716-.0394h-1.7155v1.871zm.1059 3.3946a2.51 2.51 0 0 0 .5126-.05 1.2918 1.2918 0 0 0 .4318-.1679.8617.8617 0 0 0 .2973-.3195 1.06 1.06 0 0 0 .1105-.5154 1.0169 1.0169 0 0 0 -.3611-.8792 1.591 1.591 0 0 0 -.9569-.2637h-1.9946v2.196z" fill="#fff"/></svg>