<svg viewBox="0 0 48 48" xmlns="http://www.w3.org/2000/svg"><path d="m41.93087 1.005s-35.78952-.01128-35.77811 0c-3.29853 0-5.15276 1.70246-5.15276 5.18084v35.857c0 3.25362 1.6671 4.95716 4.96291 4.95716h36.07146c3.29598 0 4.96563-1.6187 4.96563-4.95712v-35.85704c0-3.39354-1.66965-5.18084-5.06913-5.18084z" fill="#788093"/><path d="m25.88644 8h-15.6855v32h7.12964v-10.4993h8.22834c6.22716 0 12.24014-4.5885 12.24014-10.73 0-5.46347-5.0538-10.7707-11.91262-10.7707zm-.45124 15.60626h-8.01444v-9.67463h8.10469a5.21731 5.21731 0 0 1 5.2591 4.91418c0 2.80959-2.46143 4.76045-5.34935 4.76045z" fill="#fff"/></svg>