<svg viewBox="0 0 16 16" xmlns="http://www.w3.org/2000/svg"><path d="m8 0a8 8 0 1 0 8 8 8 8 0 0 0 -8-8" fill="#da291c"/><g fill="#fff"><path d="m6.0155 4.25a2.3972 2.3972 0 0 1 .9083.1634 2.0961 2.0961 0 0 1 .6939.4457 1.9343 1.9343 0 0 1 .44.6568 2.0978 2.0978 0 0 1 .1528.8033 2.2622 2.2622 0 0 1 -.278 1.1449 1.7474 1.7474 0 0 1 -.909.7359v.0212a1.2653 1.2653 0 0 1 .5041.2568 1.4217 1.4217 0 0 1 .3257.41 1.9134 1.9134 0 0 1 .1836.52 4.588 4.588 0 0 1 .08.5677c.0063.1189.0138.259.0212.42s.0191.3258.0361.4935a3.4078 3.4078 0 0 0 .0838.4775 1.1151 1.1151 0 0 0 .174.3841h-1.6494a2.9152 2.9152 0 0 1 -.1687-.851c-.0212-.329-.052-.6441-.0944-.9455a1.4992 1.4992 0 0 0 -.3566-.8616 1.2326 1.2326 0 0 0 -.8929-.2735h-1.6495v2.9308h-1.649v-7.5zm-.5879 3.3924a1.2472 1.2472 0 0 0 .85-.2515 1.0447 1.0447 0 0 0 .2843-.8192.9986.9986 0 0 0 -.2843-.7937 1.2638 1.2638 0 0 0 -.85-.2462h-1.8071v2.1106z"/><path d="m11.2043 4.25v6.1131h3.6557v1.3869h-5.3046v-7.5z"/></g></svg>