<svg viewBox="0 0 48 48" xmlns="http://www.w3.org/2000/svg"><path d="m24.03 0a24 24 0 1 0 24 24 24 24 0 0 0 -24-24" fill="#da291c"/><g fill="#fff"><path d="m17.1787 13.8638a6.6676 6.6676 0 0 1 2.5087.45 5.7825 5.7825 0 0 1 1.9141 1.2324 5.3577 5.3577 0 0 1 1.2178 1.8125 5.8107 5.8107 0 0 1 .42 2.2183 6.2309 6.2309 0 0 1 -.7676 3.1611 4.8306 4.8306 0 0 1 -2.5088 2.03v.0576a3.52 3.52 0 0 1 1.3916.71 3.9558 3.9558 0 0 1 .8994 1.1314 5.2879 5.2879 0 0 1 .5069 1.4355 12.5138 12.5138 0 0 1 .2178 1.5659q.0293.493.0586 1.16.0278.6679.1015 1.3633a9.0583 9.0583 0 0 0 .2315 1.3193 3.0421 3.0421 0 0 0 .4785 1.0586h-4.5529a7.9928 7.9928 0 0 1 -.4638-2.3491q-.0879-1.3623-.2617-2.61a4.1151 4.1151 0 0 0 -.9854-2.3779 3.3913 3.3913 0 0 0 -2.4649-.7537h-4.5537v8.091h-4.5527v-20.7062zm-1.6241 9.3672a3.4407 3.4407 0 0 0 2.3487-.6963 2.8868 2.8868 0 0 0 .7832-2.2618 2.7576 2.7576 0 0 0 -.7832-2.1894 3.4936 3.4936 0 0 0 -2.3487-.6816h-4.9883v5.8291z"/><path d="m31.5038 13.8638v16.8779h10.0928v3.8283h-14.6455v-20.7062z"/></g></svg>