<svg viewBox="0 0 16 16" xmlns="http://www.w3.org/2000/svg"><path d="m8 0a8 8 0 1 0 8 8 8 8 0 0 0 -8-8" fill="#ed8b00"/><g fill="#fff"><path d="m1.8183 6.5443a3.592 3.592 0 0 1 .6922-1.2 3.18 3.18 0 0 1 1.11-.803 3.6211 3.6211 0 0 1 1.4804-.2913 3.6135 3.6135 0 0 1 1.4864.2912 3.1748 3.1748 0 0 1 1.104.803 3.5942 3.5942 0 0 1 .6932 1.2 4.4738 4.4738 0 0 1 .2411 1.4908 4.3267 4.3267 0 0 1 -.2411 1.4608 3.4894 3.4894 0 0 1 -.6932 1.1795 3.1766 3.1766 0 0 1 -1.104.7883 3.6694 3.6694 0 0 1 -1.4864.2863 3.6771 3.6771 0 0 1 -1.4809-.2862 3.1823 3.1823 0 0 1 -1.11-.7883 3.4872 3.4872 0 0 1 -.6922-1.1795 4.3267 4.3267 0 0 1 -.2412-1.4608 4.4738 4.4738 0 0 1 .2417-1.4908zm1.44 2.3692a2.377 2.377 0 0 0 .3363.7682 1.7236 1.7236 0 0 0 .603.5471 1.8349 1.8349 0 0 0 .903.2059 1.8416 1.8416 0 0 0 .904-.2059 1.7274 1.7274 0 0 0 .602-.5471 2.3556 2.3556 0 0 0 .3363-.7682 3.6328 3.6328 0 0 0 .1059-.8784 3.9064 3.9064 0 0 0 -.1059-.9138 2.4069 2.4069 0 0 0 -.3363-.7878 1.71 1.71 0 0 0 -.602-.5525 1.8471 1.8471 0 0 0 -.904-.2059 1.84 1.84 0 0 0 -.903.2059 1.7064 1.7064 0 0 0 -.603.5525 2.4283 2.4283 0 0 0 -.3363.7878 3.96 3.96 0 0 0 -.1049.9138 3.6827 3.6827 0 0 0 .1052.8784z"/><path d="m11.2758 4.4206v5.8435h3.4942v1.3251h-5.07v-7.1686z"/></g></svg>