<svg viewBox="0 0 16 16" xmlns="http://www.w3.org/2000/svg"><path d="m8 0a8 8 0 1 0 8 8 8 8 0 0 0 -8-8" fill="#003da5"/><path d="m5.45 4.25a4.6667 4.6667 0 0 1 .9769.0946 2.1109 2.1109 0 0 1 .7563.31 1.4427 1.4427 0 0 1 .4885.5725 2.0147 2.0147 0 0 1 .1733.8822 1.6429 1.6429 0 0 1 -.2575.9455 1.8687 1.8687 0 0 1 -.7616.62 1.8028 1.8028 0 0 1 1.0341.698 2.0809 2.0809 0 0 1 .3413 1.2029 2.067 2.067 0 0 1 -.22.9821 1.9155 1.9155 0 0 1 -.5936.6775 2.626 2.626 0 0 1 -.851.3886 3.8366 3.8366 0 0 1 -.982.1261h-3.6347v-7.5zm-.21 3.0357a1.1859 1.1859 0 0 0 .7248-.21.7931.7931 0 0 0 .2837-.6828.8736.8736 0 0 0 -.0944-.4307.7029.7029 0 0 0 -.2528-.2622 1.067 1.067 0 0 0 -.3626-.1313 2.4139 2.4139 0 0 0 -.4252-.0368h-1.5443v1.7538zm.0945 3.1828a2.2042 2.2042 0 0 0 .4623-.0473 1.1333 1.1333 0 0 0 .3888-.1575.7983.7983 0 0 0 .2677-.3 1.0306 1.0306 0 0 0 .1-.4832.97.97 0 0 0 -.3258-.8245 1.3893 1.3893 0 0 0 -.8621-.246h-1.7962v2.0589zm5.63-6.2185v6.1134h3.6555v1.3866h-5.305v-7.5z" fill="#fff"/></svg>