<svg viewBox="0 0 16 16" xmlns="http://www.w3.org/2000/svg"><g fill="#1c1e23"><path d="m8 .7033a7.2967 7.2967 0 1 1 -7.2967 7.2967 7.2968 7.2968 0 0 1 7.2967-7.2967zm-8 7.2967a8 8 0 1 0 8-8 8 8 0 0 0 -8 8z"/><path d="m11.6967 6.15a3.07 3.07 0 0 1 -.2367 1.2933l-2.63 5.59a.8469.8469 0 0 1 -.3333.3734.9171.9171 0 0 1 -.9734 0 .8132.8132 0 0 1 -.3333-.3734l-2.65-5.59a3.07 3.07 0 0 1 -.2367-1.2933 3.56 3.56 0 0 1 1.0834-2.6133 3.5534 3.5534 0 0 1 2.6133-1.0834 3.5534 3.5534 0 0 1 2.6133 1.0834 3.56 3.56 0 0 1 1.0834 2.6133m-2.39 1.31a1.8468 1.8468 0 0 0 .0051-2.6116l-.0051-.0051a1.8491 1.8491 0 0 0 -2.6185 2.6116l.0051.0051a1.85 1.85 0 0 0 2.6134 0"/></g></svg>