<svg viewBox="0 0 48 48" xmlns="http://www.w3.org/2000/svg"><ellipse cx="24" cy="24" fill="#52bbc5" rx="23.98573" ry="24.01338" transform="matrix(.70710678 -.70710678 .70710678 .70710678 -9.94113 24)"/><path d="m14.67405 11.30075v1.87376h-3.68818v10.38625h-2.27952v-10.38625h-3.70635v-1.87376zm11.7937 12.26h-2.29769v-5.35844h-5.74969v5.35845h-2.29648v-12.26h2.29769v5.27367h5.74969v-5.27368h2.29773v12.26zm10.2082-12.26v1.81441h-5.43476v3.39991h4.28168v1.75628h-4.28168v3.46652h5.43481v1.82289h-7.73251v-12.26zm-28.28452 22.00432v4.79039h-2.28074v-12.26h3.73905a7.79341 7.79341 0 0 1 2.14993.258 4.11146 4.11146 0 0 1 1.46558.72674 2.77981 2.77981 0 0 1 .83817 1.11433 3.91366 3.91366 0 0 1 .08479 2.59807 3.33453 3.33453 0 0 1 -.52568 1.00048 3.54521 3.54521 0 0 1 -.84785.78729 4.41306 4.41306 0 0 1 -1.14824.545 2.243 2.243 0 0 1 .74611.70251l3.06924 4.52756h-2.0506a1.0036 1.0036 0 0 1 -.50387-.1187 1.01962 1.01962 0 0 1 -.35126-.33914l-2.57991-3.92437a.88587.88587 0 0 0 -.31491-.31492 1.14781 1.14781 0 0 0 -.51478-.09326zm0-1.63516h1.4244a3.52087 3.52087 0 0 0 1.124-.1623 2.18043 2.18043 0 0 0 .78729-.44452 1.79909 1.79909 0 0 0 .46269-.67465 2.33718 2.33718 0 0 0 .15262-.85755 1.74541 1.74541 0 0 0 -.6141-1.43288 2.94006 2.94006 0 0 0 -1.87733-.50145h-1.45957zm11.3189 6.42555h-2.28922v-12.26h2.28922zm13.642-6.1288a6.66613 6.66613 0 0 1 -.44815 2.47454 5.70944 5.70944 0 0 1 -1.26452 1.94159 5.64627 5.64627 0 0 1 -1.95855 1.26331 6.86731 6.86731 0 0 1 -2.5351.45057h-4.68015v-12.26123h4.68014a6.81851 6.81851 0 0 1 2.5351.45421 5.72254 5.72254 0 0 1 1.95858 1.26335 5.61585 5.61585 0 0 1 1.26331 1.938 6.62373 6.62373 0 0 1 .44815 2.47453zm-2.33161 0a5.63821 5.63821 0 0 0 -.27131-1.81078 3.83812 3.83812 0 0 0 -.77276-1.35657 3.32488 3.32488 0 0 0 -1.21728-.8527 4.18763 4.18763 0 0 0 -1.61457-.29675h-2.38245v8.63114h2.38247a4.19387 4.19387 0 0 0 1.61578-.29675 3.34929 3.34929 0 0 0 1.21607-.8527 3.84964 3.84964 0 0 0 .77155-1.35657 5.68341 5.68341 0 0 0 .2701-1.81079zm11.85428-6.13122v1.81442h-5.4384v3.3999h4.28168v1.75624h-4.28168v3.46653h5.43477v1.82289h-7.73367v-12.26h7.7373z" fill="#fff"/></svg>