<svg viewBox="0 0 16 16" xmlns="http://www.w3.org/2000/svg"><path d="m14.14 13.11v-2.78h-1.54v4.21a.01.01 0 0 1 -.01.01 7.9674 7.9674 0 0 1 -9.18-.01c-.08-.06-.16-.11-.24-.18l-1.53-1.52a7.916 7.916 0 0 1 -1.64-4.84 8 8 0 0 1 16 0 7.8953 7.8953 0 0 1 -1.86 5.11z" fill="#008eaa"/><path d="m14.14 10.33v2.78a2.3407 2.3407 0 0 1 -.29.35 7.5774 7.5774 0 0 1 -1.25 1.08v-4.21z" fill="#008eaa"/><g fill="#fff"><path d="m12.6 13.07v1.1a.8178.8178 0 0 1 -.19-.09 1.0848 1.0848 0 0 0 -1.15-.03 1.3272 1.3272 0 0 1 -1.36.03 1.1127 1.1127 0 0 0 -1.19-.04 1.457 1.457 0 0 1 -1.43 0 1.0928 1.0928 0 0 0 -1.19.04 1.3047 1.3047 0 0 1 -1.36-.04 1.1248 1.1248 0 0 0 -1.16.04.2506.2506 0 0 0 -.07.04v-1.09a.0758.0758 0 0 0 .04-.02 1.2286 1.2286 0 0 1 1.4.08 1.3793 1.3793 0 0 0 1.19-.07 1.1856 1.1856 0 0 1 1.29.04 1.3134 1.3134 0 0 0 1.16 0 1.186 1.186 0 0 1 1.29-.04 1.3833 1.3833 0 0 0 1.19.07 1.2466 1.2466 0 0 1 1.4-.08.3506.3506 0 0 0 .14.06z"/><path d="m11.06 10.98a.88.88 0 0 1 -.15.05 3.5175 3.5175 0 0 1 -.16-1.49 10.8138 10.8138 0 0 1 1.85-2.66l-.6-.24v-3.64h-1v-1h-1.99v.01h-.01v-.01h.01v-.99h-2v.99h-2.01v1h-1v3.64l-.59.24a10.4677 10.4677 0 0 1 1.83 2.64 3.751 3.751 0 0 1 -.15 1.5.4191.4191 0 0 1 -.15-.04 1.2263 1.2263 0 0 0 -1.4-.07c-.01.01-.03.01-.04.02v1.08c.02-.01.05-.03.07-.04a1.1023 1.1023 0 0 1 1.16-.03 1.3267 1.3267 0 0 0 1.36.03 1.0924 1.0924 0 0 1 1.19-.03 1.457 1.457 0 0 0 1.43 0 1.0928 1.0928 0 0 1 1.19.04 1.3277 1.3277 0 0 0 1.36-.04 1.1288 1.1288 0 0 1 1.15.03 1.7377 1.7377 0 0 0 .19.1v-1.1a.4235.4235 0 0 1 -.14-.06 1.2623 1.2623 0 0 0 -1.4.07zm-3.06-8.98h.01v.01h-.01zm2.01 3.84v-.84h-1.01v-1h-2v1h-1v.84l-1 .4v-2.24h1v-1h4v1h1v2.24z"/><path d="m8 2h.01v.01h-.01z"/><path d="m9 2h.01v.01h-.01z"/><path d="m8 2h.01v.01h-.01z"/><path d="m9 2h.01v.01h-.01z"/></g></svg>