<svg viewBox="0 0 16 16" xmlns="http://www.w3.org/2000/svg"><path d="m8 0a8 8 0 1 0 8 8 8 8 0 0 0 -8-8" fill="#00843d"/><path d="m9.9124 6.2224a1.6857 1.6857 0 0 0 -.3744-.4231 1.7545 1.7545 0 0 0 -1.1034-.3859 1.9643 1.9643 0 0 0 -.9632.22 1.8205 1.8205 0 0 0 -.6432.5894 2.5892 2.5892 0 0 0 -.3587.84 4.227 4.227 0 0 0 -.1119.9747 3.93 3.93 0 0 0 .1119.937 2.5346 2.5346 0 0 0 .3587.8194 1.8376 1.8376 0 0 0 .6432.5836 1.9577 1.9577 0 0 0 .9632.22 1.5536 1.5536 0 0 0 1.2048-.4711 2.1735 2.1735 0 0 0 .53-1.2424h1.6286a3.88 3.88 0 0 1 -.3326 1.2957 3.0876 3.0876 0 0 1 -.707.9852 2.997 2.997 0 0 1 -1.028.6212 3.7625 3.7625 0 0 1 -1.2958.2139 3.9225 3.9225 0 0 1 -1.5792-.3054 3.393 3.393 0 0 1 -1.1838-.8408 3.7192 3.7192 0 0 1 -.7384-1.2581 4.6162 4.6162 0 0 1 -.2573-1.5583 4.7732 4.7732 0 0 1 .2573-1.59 3.8314 3.8314 0 0 1 .7384-1.28 3.3919 3.3919 0 0 1 1.1838-.8565 3.8616 3.8616 0 0 1 1.5792-.3109 3.853 3.853 0 0 1 1.1943.182 3.254 3.254 0 0 1 1.0072.53 2.8628 2.8628 0 0 1 .7331.8623 3.09 3.09 0 0 1 .3639 1.1776h-1.6273a1.3759 1.3759 0 0 0 -.1934-.5295z" fill="#fff"/></svg>