<svg viewBox="0 0 48 48" xmlns="http://www.w3.org/2000/svg"><g fill="#1c1e23"><path d="m24 2.11a21.89 21.89 0 1 1 -21.89 21.89 21.89 21.89 0 0 1 21.89-21.89zm-24 21.89a24 24 0 1 0 24-24 24 24 0 0 0 -24 24z"/><path d="m35.09 18.45a9.21 9.21 0 0 1 -.71 3.88l-7.89 16.77a2.54 2.54 0 0 1 -1 1.12 2.75 2.75 0 0 1 -2.92 0 2.4393 2.4393 0 0 1 -1-1.12l-7.95-16.77a9.21 9.21 0 0 1 -.71-3.88 10.68 10.68 0 0 1 3.25-7.84 10.66 10.66 0 0 1 7.84-3.25 10.66 10.66 0 0 1 7.84 3.25 10.68 10.68 0 0 1 3.25 7.84m-7.17 3.93a5.54 5.54 0 0 0 .0153-7.8347l-.0153-.0153a5.5473 5.5473 0 0 0 -7.8553 7.8347l.0153.0153a5.55 5.55 0 0 0 7.84 0"/></g></svg>