<svg viewBox="0 0 48 48" xmlns="http://www.w3.org/2000/svg"><path d="m24 0a24 24 0 1 0 24 24 24 24 0 0 0 -24-24" fill="#003da5"/><g fill="#fff"><path d="m16.2134 13.647a12.8781 12.8781 0 0 1 2.6972.2612 5.8282 5.8282 0 0 1 2.0879.8555 3.9837 3.9837 0 0 1 1.3487 1.5805 5.5632 5.5632 0 0 1 .4785 2.4356 4.536 4.536 0 0 1 -.711 2.61 5.1619 5.1619 0 0 1 -2.1025 1.711 4.9771 4.9771 0 0 1 2.8565 1.9282 5.7437 5.7437 0 0 1 .9423 3.321 5.7064 5.7064 0 0 1 -.6084 2.7114 5.2866 5.2866 0 0 1 -1.6386 1.8706 7.2533 7.2533 0 0 1 -2.35 1.0728 10.5908 10.5908 0 0 1 -2.711.3481h-10.0338v-20.7059zm-.58 8.3808a3.2744 3.2744 0 0 0 2.001-.58 2.19 2.19 0 0 0 .7832-1.8852 2.41 2.41 0 0 0 -.2608-1.189 1.941 1.941 0 0 0 -.6963-.7251 2.9455 2.9455 0 0 0 -1.0009-.3623 6.6621 6.6621 0 0 0 -1.1739-.1015h-4.2637v4.8427zm.2607 8.7871a6.09 6.09 0 0 0 1.2764-.13 3.1288 3.1288 0 0 0 1.0733-.4351 2.2034 2.2034 0 0 0 .7392-.8266 2.8458 2.8458 0 0 0 .2754-1.334 2.6772 2.6772 0 0 0 -.8994-2.2764 3.8357 3.8357 0 0 0 -2.3779-.6816h-4.9591v5.684z"/><path d="m31.438 13.647v16.8779h10.0928v3.8281h-14.6455v-20.706z"/></g></svg>