<svg viewBox="0 0 16 16" xmlns="http://www.w3.org/2000/svg"><path d="m6.19 11.92h3.63v1h-3.63z" fill="#80276c" transform="matrix(.99919447 .04013005 -.04013005 .99919447 .5049 -.3112)"/><path d="m8 0a8.0213 8.0213 0 0 0 -7.6579 10.376 7.7837 7.7837 0 0 0 5.2819 5.2819 8.008 8.008 0 1 0 2.376-15.6579" fill="#80276c"/><g fill="#fff"><path d="m10.33 11.75 1.15-.85a1.47 1.47 0 0 0 .52-.84v-4.82a.8888.8888 0 0 0 -.3-.66.7933.7933 0 0 1 -.31-.6l-.01-1.19a.82.82 0 0 0 -.65-.79 20.9153 20.9153 0 0 0 -2.5-.52 1.0648 1.0648 0 0 0 -.47 0c-.7.15-1.55.3-2.24.48-.42.12-.85.35-.85.85v1.18a.803.803 0 0 1 -.33.61.851.851 0 0 0 -.31.66v4.8a1.41 1.41 0 0 0 .48.84l1.1.81-1.74 2.84h1.13l.24-.39h5.53l.13.22.02.03.08.14h1.05zm.95-2.3a.73.73 0 1 1 -.73-.73.7277.7277 0 0 1 .73.73zm-1.44 3.15h-3.65l.41-.68h2.84l.03.06.35.58zm-1.14-9.65a.2447.2447 0 0 1 .3-.24l1.21.25a.2535.2535 0 0 1 .2.24v.73a.25.25 0 0 1 -.3.24l-1.21-.24a.2376.2376 0 0 1 -.2-.24zm-.72 2.26a.82.82 0 1 1 -.82.82.8237.8237 0 0 1 .82-.82zm-2.32-2.01a.2535.2535 0 0 1 .2-.24l1.21-.25a.2486.2486 0 0 1 .3.24v.74a.2469.2469 0 0 1 -.2.24l-1.22.24a.2455.2455 0 0 1 -.29-.24zm-.2 6.98a.73.73 0 1 1 .73-.73.7277.7277 0 0 1 -.73.73zm0 3.61.5-.82h4.1l.49.82z"/><path d="m11 14.55h-.01l-.07-.14z"/></g></svg>