<svg viewBox="0 0 48 48" xmlns="http://www.w3.org/2000/svg"><path d="m24.03 0a24 24 0 1 0 24 24 24 24 0 0 0 -24-24" fill="#ed8b00"/><g fill="#fff"><path d="m5.6431 19.7954a10.345 10.345 0 0 1 2.0009-3.4654 9.1571 9.1571 0 0 1 3.2051-2.32 10.4545 10.4545 0 0 1 4.2774-.8413 10.4341 10.4341 0 0 1 4.292.8413 9.1949 9.1949 0 0 1 3.1894 2.32 10.3469 10.3469 0 0 1 2.001 3.4658 12.9392 12.9392 0 0 1 .6963 4.3062 12.5091 12.5091 0 0 1 -.6963 4.22 10.0722 10.0722 0 0 1 -2.001 3.4072 9.2011 9.2011 0 0 1 -3.1894 2.2769 10.5949 10.5949 0 0 1 -4.292.8261 10.6156 10.6156 0 0 1 -4.2774-.8261 9.1642 9.1642 0 0 1 -3.2051-2.2776 10.07 10.07 0 0 1 -2.0009-3.4072 12.5091 12.5091 0 0 1 -.6963-4.22 12.9392 12.9392 0 0 1 .6963-4.3059zm4.1621 6.8438a6.8421 6.8421 0 0 0 .9707 2.2187 4.9784 4.9784 0 0 0 1.74 1.58 5.3117 5.3117 0 0 0 2.61.5947 5.31 5.31 0 0 0 2.6093-.5947 4.9778 4.9778 0 0 0 1.74-1.58 6.87 6.87 0 0 0 .9717-2.2187 10.5335 10.5335 0 0 0 .3046-2.5376 11.3251 11.3251 0 0 0 -.3046-2.6387 7.0044 7.0044 0 0 0 -.9717-2.2769 4.93 4.93 0 0 0 -1.74-1.5947 5.3152 5.3152 0 0 0 -2.6093-.5947 5.3172 5.3172 0 0 0 -2.61.5947 4.9308 4.9308 0 0 0 -1.74 1.5947 6.977 6.977 0 0 0 -.9707 2.2769 11.3252 11.3252 0 0 0 -.3047 2.6387 10.5335 10.5335 0 0 0 .3047 2.5376z"/><path d="m32.96 13.6616v16.8784h10.0932v3.8281h-14.6455v-20.7065z"/></g></svg>