<svg viewBox="0 0 16 16" xmlns="http://www.w3.org/2000/svg"><ellipse cx="8" cy="8.00001" fill="#52bbc5" rx="7.99524" ry="8.00446" transform="matrix(.70710678 -.70710678 .70710678 .70710678 -3.31371 8)"/><path d="m4.97917 3v.60892h-1.13579v3.3752h-.702v-3.3752h-1.14138v-.60892zm3.99722 3.98412h-.66577v-1.74133h-1.666v1.74133h-.66545v-3.98412h.66577v1.71378h1.66606v-1.71378h.66577v3.98412zm3.54647-3.98412v.58963h-1.76612v1.10486h1.39141v.57074h-1.39141v1.12651h1.76612v.59238h-2.5128v-3.98412zm-9.71509 7.42989v1.55411h-.80777v-3.97739h1.32426a3 3 0 0 1 .76144.0837 1.51176 1.51176 0 0 1 .51907.23576.91377.91377 0 0 1 .29685.36151 1.16944 1.16944 0 0 1 .03.84286 1.054 1.054 0 0 1 -.18618.32458 1.22012 1.22012 0 0 1 -.30028.25541 1.62978 1.62978 0 0 1 -.40668.17682.77107.77107 0 0 1 .26426.22791l1.08706 1.46884h-.72626a.38188.38188 0 0 1 -.17846-.03851.34927.34927 0 0 1 -.1244-.11l-.91368-1.27318a.30241.30241 0 0 0 -.11154-.10216.439.439 0 0 0 -.18231-.03026zm0-.53047h.50448a1.35261 1.35261 0 0 0 .39809-.05266.7927.7927 0 0 0 .27884-.14421.58483.58483 0 0 0 .16387-.21887.7017.7017 0 0 0 .054-.2782.54614.54614 0 0 0 -.21749-.46485 1.11218 1.11218 0 0 0 -.66487-.16263h-.51692zm4.00882 2.08458h-.81077v-3.97739h.81077zm4.6441-1.98829a2.00252 2.00252 0 0 1 -.15872.80278 1.84558 1.84558 0 0 1 -.44786.62989 2.02773 2.02773 0 0 1 -.69366.40984 2.63153 2.63153 0 0 1 -.89785.14618h-1.6576v-3.97779h1.6576a2.6126 2.6126 0 0 1 .89785.14735 2.05523 2.05523 0 0 1 .69366.40984 1.81562 1.81562 0 0 1 .44743.62871 1.98988 1.98988 0 0 1 .15872.80279zm-.63828 0a1.68837 1.68837 0 0 0 -.0961-.58745 1.22351 1.22351 0 0 0 -.27369-.4401 1.18343 1.18343 0 0 0 -.43112-.27663 1.60368 1.60368 0 0 0 -.57183-.09627h-.8438v2.80011h.8438a1.6061 1.6061 0 0 0 .57226-.09627 1.192 1.192 0 0 0 .43069-.27663 1.22683 1.22683 0 0 0 .27326-.4401 1.70181 1.70181 0 0 0 .09567-.58745zm3.72447-1.98888v.58863h-1.77969v1.103h1.40116v.56977h-1.40116v1.1246h1.7785v.59138h-2.53081v-3.9774h2.532z" fill="#fff"/></svg>