<svg viewBox="0 0 48 48" xmlns="http://www.w3.org/2000/svg"><path d="m24.03 0a24 24 0 1 0 24 24 24 24 0 0 0 -24-24" fill="#da291c"/><path d="m30.5467 35.2184c2.1136-.2612 3.499-2.3828 3.4831-4.5122v-16.9644a4.5631 4.5631 0 0 0 -4.4805-4.5993h-4.536l1.0529-3.4276a.1749.1749 0 0 0 0-.1267c2.8023.1029 3.2931.3879 3.3723.5225a.2687.2687 0 0 0 .1345.2374.2429.2429 0 0 0 .2533 0 .3164.3164 0 0 0 .1188-.2849.5511.5511 0 0 0 -.1425-.3483c-.4908-.4988-2.2165-.7125-5.9371-.7125a37.4621 37.4621 0 0 0 -4.1085.182c-1.3933.1821-1.9711.4433-1.9711.9183a.2841.2841 0 0 0 .1266.2454.2429.2429 0 0 0 .2533 0 .26.26 0 0 0 .1342-.2374c0-.0634.475-.4117 3.3644-.5225a.3367.3367 0 0 0 0 .1267l1.29 3.42h-4.4957a4.56 4.56 0 0 0 -4.4887 4.599v16.9723c-.0238 2.1136 1.3378 4.2431 3.4356 4.5122a14.0077 14.0077 0 0 0 1.5516 0l-4.2428 7.7816h1.9948l.095-.1663a.3144.3144 0 0 1 .2692-.182h13.79a.292.292 0 0 1 .2691.182l.095.1663h1.9949l-4.2193-7.7816s1.1558.0475 1.5436 0zm-8.3278-29.6461h3.3565l-1.1241 3.57h-.8946zm-2.1769 5.763a.7939.7939 0 0 1 .7916-.7916h6.3329a.7939.7939 0 0 1 .7916.7916v.7916a.794.794 0 0 1 -.7916.7917h-6.3329a.794.794 0 0 1 -.7916-.7917zm-3.412 3.3485a.794.794 0 0 1 .7916-.7916h13.1568a.794.794 0 0 1 .7916.7916v6.2143a.794.794 0 0 1 -.7916.7916h-13.1567a.794.794 0 0 1 -.7916-.7916zm10.4415 20.5821.855 1.5832a.1577.1577 0 0 1 0 .1663.1278.1278 0 0 1 -.1346.0633h-7.6233a.1441.1441 0 0 1 -.15-.0633.1573.1573 0 0 1 0-.1663c.0871-.15.8233-1.504.855-1.5832a.2224.2224 0 0 1 .19-.1108h5.8264a.2017.2017 0 0 1 .182.1741zm-8.7236-2.5648a2.0643 2.0643 0 1 1 2.0661-2.0582 2.0682 2.0682 0 0 1 -2.0661 2.0582zm10.7421 6.3489.8392 1.5674a.1442.1442 0 0 1 0 .1584.1281.1281 0 0 1 -.1267.1108h-11.605a.1519.1519 0 0 1 -.1425-.0713.1851.1851 0 0 1 0-.1583l.855-1.5911a.1929.1929 0 0 1 .19-.0951h9.816a.1712.1712 0 0 1 .174.0792zm.0475-6.3883a2.0434 2.0434 0 0 1 -1.6228-1.6228 2.066 2.066 0 0 1 2.6994-2.3511 2.04 2.04 0 0 1 1.2746 1.2745 2.0661 2.0661 0 0 1 -2.3511 2.6992z" fill="#fff"/></svg>