<?xml version="1.0" encoding="UTF-8" standalone="no"?>
<svg width="90px" height="90px" viewBox="0 0 90 90" version="1.1" xmlns="http://www.w3.org/2000/svg" xmlns:xlink="http://www.w3.org/1999/xlink">
    <!-- Generator: Sketch 40.3 (33839) - http://www.bohemiancoding.com/sketch -->
    <title>transit-app</title>
    <desc>Created with Sketch.</desc>
    <defs></defs>
    <g id="Page-1" stroke="none" stroke-width="1" fill="none" fill-rule="evenodd">
        <g id="transit-app">
            <g id="transit-app-copy" transform="translate(3.000000, 3.000000)">
                <rect id="bg-box" fill="#1C77C3" x="0" y="0" width="84" height="84" rx="20"></rect>
                <g id="Group-4" transform="translate(16.000000, 18.000000)" fill="#FFFFFF">
                    <path d="M12.0201774,19.3591197 C12.0201774,16.0530252 9.32962255,13.3733633 6.0100887,13.3733633 C2.69055487,13.3733633 0,16.0530252 0,19.3591197 C0,22.6652141 2.69055487,25.344876 6.0100887,25.344876 C9.32962255,25.344876 12.0201774,22.6652141 12.0201774,19.3591197 L12.0201774,19.3591197 Z M45.9899112,23.3484691 C42.6703775,23.3484691 39.9791268,26.0281309 39.9791268,29.3342253 C39.9791268,32.6403198 42.6703775,35.3199817 45.9899112,35.3199817 C49.3087493,35.3199817 52,32.6403198 52,29.3342253 C52,26.0281309 49.3087493,23.3484691 45.9899112,23.3484691 L45.9899112,23.3484691 Z M42.0100887,36.2097377 L42.0100887,41.9273198 L42.0073056,41.9550381 L42.0073056,43.9465945 L42.0100887,43.9750057 L42.0107846,43.9784705 C42.0281788,46.1633617 43.8093582,47.9304002 46.0073057,47.9304002 C48.2059489,47.9304002 49.9871282,46.1633617 50.0038267,43.9784705 L50.0100887,43.9784705 L50.0100887,36.2097377 C48.8418855,36.9103164 47.4739955,37.3143099 46.0100887,37.3143099 C44.5468776,37.3143099 43.1789876,36.9103164 42.0100887,36.2097377 L42.0100887,36.2097377 Z M2.01008871,12.4836074 C3.17829187,11.7830286 4.54687772,11.3790351 6.0100887,11.3790351 C7.47329971,11.3790351 8.84188555,11.7830286 10.0100887,12.4836074 L10.0100887,4.76268853 L10.0086972,5.42654065 L10.0086972,4.10992371 C10.0086972,1.90978751 8.217777,0.126118043 6.00869717,0.126118043 C3.79961732,0.126118043 2.00869716,1.90978751 2.00869716,4.10992371 L2.00869716,6.10148006 L2.01008871,6.12919832 L2.01008871,12.4836074 L2.01008871,12.4836074 Z M42.0100887,13.2229918 L42.0100887,22.4587131 C43.1789876,21.7581343 44.4216386,21.3541408 45.8855453,21.3541408 C47.3487562,21.3541408 48.8418855,21.7581343 50.0100887,22.4587131 L50.0100887,13.8868439 C50.0100887,6.22967699 43.693164,0 36.0048704,0 C28.3172726,0 21.999652,6.22967699 21.999652,13.8868439 L21.999652,34.0858265 C21.999652,37.3496507 19.2923987,40.0043661 16.015307,40.0043661 C12.7382153,40.0043661 10.0100887,37.3496507 10.0100887,34.0858265 L10.0100887,26.234632 C8.84188555,26.9352107 7.57766567,27.3392042 6.11445469,27.3392042 C4.65054792,27.3392042 3.17829187,26.9352107 2.01008871,26.234632 L2.01008871,34.0858265 C2.01008871,41.7429935 8.36875979,47.9719775 16.0570534,47.9719775 C23.745347,47.9719775 29.9996521,41.7429935 29.9996521,34.0858265 L29.9996521,13.8868439 C29.9996521,10.6230198 32.748652,7.96761133 36.0257435,7.96761133 C39.3028353,7.96761133 42.0100887,9.95916768 42.0100887,13.2229918 L42.0100887,13.2229918 L42.0100887,13.2229918 Z" id="Fill-2"></path>
                </g>
            </g>
        </g>
    </g>
</svg>
