<?xml version="1.0" encoding="UTF-8" standalone="no"?>
<svg width="24px" height="24px" viewBox="0 0 24 24" version="1.1" xmlns="http://www.w3.org/2000/svg" xmlns:xlink="http://www.w3.org/1999/xlink">
    <!-- Generator: Sketch 39.1 (31720) - http://www.bohemiancoding.com/sketch -->
    <title>boat-icon</title>
    <desc>Created with Sketch.</desc>
    <defs>
        <path d="M17.2341069,19.16658 C18.0770942,16.7584969 20.5379837,13.3080109 22.9957349,11.6695101 L24,11 L20,9.33333333 L20,5 L16,3 L16,2 L12,0 L8,2 L8,3 L4,5 L4,9.33333333 L0,11 L1.0042651,11.6695101 C3.49758697,13.3317246 5.92597021,16.5321601 6.78066986,19.1705917 C6.81066356,19.1788341 6.839723,19.1876225 6.8677243,19.1969563 L8.1322757,19.6184734 C8.6115066,19.778217 9.39219761,19.7769823 9.8677243,19.6184734 L11.1322757,19.1969563 C11.6115066,19.0372126 12.3921976,19.0384474 12.8677243,19.1969563 L14.1322757,19.6184734 C14.6115066,19.778217 15.3921976,19.7769823 15.8677243,19.6184734 L17.1322757,19.1969563 C17.1648872,19.1860858 17.1988946,19.1759607 17.2341069,19.16658 Z M19,8.91666667 L19,6 L13,3 L13,6 L18,8.5 L19,8.91666667 Z M5,8.91666667 L5,6 L11,3 L11,6 L6,8.5 L5,8.91666667 Z M12,13 C13.1045695,13 14,12.1045695 14,11 C14,9.8954305 13.1045695,9 12,9 C10.8954305,9 10,9.8954305 10,11 C10,12.1045695 10.8954305,13 12,13 Z M12,12.824 C10.9926326,12.824 10.176,12.0073674 10.176,11 C10.176,9.99263262 10.9926326,9.176 12,9.176 C13.0073674,9.176 13.824,9.99263262 13.824,11 C13.824,12.0073674 13.0073674,12.824 12,12.824 Z M10.68,10.02 L13.32,10.02 L13.32,10.63 L12.34,10.63 L12.34,12.262 L11.664,12.262 L11.664,10.63 L10.684,10.63 L10.68,10.02 Z" id="path-boat"></path>
        <mask id="mask-boat" maskContentUnits="userSpaceOnUse" maskUnits="objectBoundingBox" x="0" y="0" width="24" height="19.7378186" fill="white">
            <use xlink:href="#path-boat"></use>
        </mask>
    </defs>
    <g id="Page-boat" stroke="none" stroke-width="1" fill="none" fill-rule="evenodd">
        <g id="boat-icon" fill="#FFFFFF">
            <g id="Group-13-Copy">
                <use id="Combined-Shape" stroke="#FFFFFF" mask="url(#mask-boat)" stroke-width="2" xlink:href="#path-boat"></use>
                <path d="M24,20.9077148 L21.8677243,21.6184734 C21.3884934,21.778217 20.6078024,21.7769823 20.1322757,21.6184734 L18.8677243,21.1969563 C18.3884934,21.0372126 17.6078024,21.0384474 17.1322757,21.1969563 L15.8677243,21.6184734 C15.3884934,21.778217 14.6078024,21.7769823 14.1322757,21.6184734 L12.8677243,21.1969563 C12.3884934,21.0372126 11.6078024,21.0384474 11.1322757,21.1969563 L9.8677243,21.6184734 C9.3884934,21.778217 8.60780239,21.7769823 8.1322757,21.6184734 L6.8677243,21.1969563 C6.3884934,21.0372126 5.60780239,21.0384474 5.1322757,21.1969563 L3.8677243,21.6184734 C3.3884934,21.778217 2.60780239,21.7769823 2.1322757,21.6184734 L5.68434189e-14,20.9077148 L5.68434189e-14,19.9077148 L2.1322757,20.6184734 C2.6115066,20.778217 3.39219761,20.7769823 3.8677243,20.6184734 L5.1322757,20.1969563 C5.6115066,20.0372126 6.39219761,20.0384474 6.8677243,20.1969563 L8.1322757,20.6184734 C8.6115066,20.778217 9.39219761,20.7769823 9.8677243,20.6184734 L11.1322757,20.1969563 C11.6115066,20.0372126 12.3921976,20.0384474 12.8677243,20.1969563 L14.1322757,20.6184734 C14.6115066,20.778217 15.3921976,20.7769823 15.8677243,20.6184734 L17.1322757,20.1969563 C17.6115066,20.0372126 18.3921976,20.0384474 18.8677243,20.1969563 L20.1322757,20.6184734 C20.6115066,20.778217 21.3921976,20.7769823 21.8677243,20.6184734 L24,19.9077148 L24,20.9077148 Z M24,22.9077148 L21.8677243,23.6184734 C21.3884934,23.778217 20.6078024,23.7769823 20.1322757,23.6184734 L18.8677243,23.1969563 C18.3884934,23.0372126 17.6078024,23.0384474 17.1322757,23.1969563 L15.8677243,23.6184734 C15.3884934,23.778217 14.6078024,23.7769823 14.1322757,23.6184734 L12.8677243,23.1969563 C12.3884934,23.0372126 11.6078024,23.0384474 11.1322757,23.1969563 L9.8677243,23.6184734 C9.3884934,23.778217 8.60780239,23.7769823 8.1322757,23.6184734 L6.8677243,23.1969563 C6.3884934,23.0372126 5.60780239,23.0384474 5.1322757,23.1969563 L3.8677243,23.6184734 C3.3884934,23.778217 2.60780239,23.7769823 2.1322757,23.6184734 L5.68434189e-14,22.9077148 L5.68434189e-14,21.9077148 L2.1322757,22.6184734 C2.6115066,22.778217 3.39219761,22.7769823 3.8677243,22.6184734 L5.1322757,22.1969563 C5.6115066,22.0372126 6.39219761,22.0384474 6.8677243,22.1969563 L8.1322757,22.6184734 C8.6115066,22.778217 9.39219761,22.7769823 9.8677243,22.6184734 L11.1322757,22.1969563 C11.6115066,22.0372126 12.3921976,22.0384474 12.8677243,22.1969563 L14.1322757,22.6184734 C14.6115066,22.778217 15.3921976,22.7769823 15.8677243,22.6184734 L17.1322757,22.1969563 C17.6115066,22.0372126 18.3921976,22.0384474 18.8677243,22.1969563 L20.1322757,22.6184734 C20.6115066,22.778217 21.3921976,22.7769823 21.8677243,22.6184734 L24,21.9077148 L24,22.9077148 Z" id="Combined-Shape"></path>
            </g>
        </g>
    </g>
</svg>
