<?xml version="1.0" encoding="UTF-8" standalone="no"?>
<svg width="36px" height="36px" viewBox="0 0 36 36" version="1.1" xmlns="http://www.w3.org/2000/svg" xmlns:xlink="http://www.w3.org/1999/xlink">
    <!-- Generator: Sketch 3.7.2 (28276) - http://www.bohemiancoding.com/sketch -->
    <title>boat-icon</title>
    <desc>Created with Sketch.</desc>
    <defs></defs>
    <g id="Page-1" stroke="none" stroke-width="1" fill="none" fill-rule="evenodd">
        <g id="boat-icon" fill="#000000">
            <path d="M4,6 L10,6 L10,2 L26,2 L26,6 L32,6 L32,18 L26,18 L26,13.2224121 L18,10.6403809 L10,13.2224121 L10,18 L4,18 L4,6 Z M6,8 L6,16 L8,16 L8,11.76633 L9.38569576,11.3190912 L17.3856958,8.73706 L18,8.53879091 L18.6143042,8.73706 L26.6143042,11.3190912 L28,11.76633 L28,16 L30,16 L30,8 L24,8 L24,4 L12,4 L12,8 L6,8 Z" id="Combined-Shape"></path>
            <path d="M30.0819777,27.5081335 L31,22 L35,14 L18,8 L1,14 L5,22 L5.91026463,27.4615878 L7.01436207,27.9971761 C7.01632747,27.9981295 7.01832886,27.9990708 7.02036533,28 L7.69663978,28 C7.69867646,27.9990708 7.70067794,27.9981295 7.7026433,27.9971761 L10.1297382,26.8198128 C10.8496706,26.4705797 11.8931156,26.4708354 12.6125207,26.8198128 L15.0396156,27.9971761 C15.041581,27.9981295 15.0435824,27.9990708 15.0456188,28 L15.7218933,28 C15.72393,27.9990708 15.7259315,27.9981295 15.7278968,27.9971761 L18.1549917,26.8198128 C18.8749241,26.4705797 19.9183691,26.4708354 20.6377742,26.8198128 L23.0648691,27.9971761 C23.0668345,27.9981295 23.0688359,27.9990708 23.0708724,28 L23.7471468,28 C23.7491835,27.9990708 23.751185,27.9981295 23.7531503,27.9971761 L26.1802452,26.8198128 C26.9001776,26.4705797 27.9436226,26.4708354 28.6630277,26.8198128 L30.0819777,27.5081335 Z M18,19 C20.209139,19 22,17.209139 22,15 C22,12.790861 20.209139,11 18,11 C15.790861,11 14,12.790861 14,15 C14,17.209139 15.790861,19 18,19 Z M18,18.648 C15.9852652,18.648 14.352,17.0147348 14.352,15 C14.352,12.9852652 15.9852652,11.352 18,11.352 C20.0147348,11.352 21.648,12.9852652 21.648,15 C21.648,17.0147348 20.0147348,18.648 18,18.648 Z M15.36,13.04 L20.64,13.04 L20.64,14.26 L18.68,14.26 L18.68,17.524 L17.328,17.524 L17.328,14.26 L15.368,14.26 L15.36,13.04 Z" id="Combined-Shape"></path>
            <rect id="Rectangle-127" x="16" y="0" width="4" height="2"></rect>
            <path d="M1.89725062,34.1762436 C2.07529755,34.2626127 2.07529755,34.2626127 2.69001654,34.5608077 L5.11711145,35.7381711 C5.83704381,36.0874042 6.88048882,36.0871484 7.59989392,35.7381711 L10.0269888,34.5608077 C10.1819208,34.4856516 10.5605294,34.4857444 10.7152701,34.5608077 L13.142365,35.7381711 C13.8622973,36.0874042 14.9057423,36.0871484 15.6251474,35.7381711 L18.0522423,34.5608077 C18.2071743,34.4856516 18.585783,34.4857444 18.7405236,34.5608077 L21.1676185,35.7381711 C21.8875508,36.0874042 22.9309959,36.0871484 23.650401,35.7381711 L26.0774959,34.5608077 C26.2324278,34.4856516 26.6110365,34.4857444 26.7657771,34.5608077 L29.192872,35.7381711 C29.9128044,36.0874042 30.9562494,36.0871484 31.6756545,35.7381711 L34.1027494,34.5608077 L35,34.125559 L34.1027494,32.3845641 L33.2054988,32.8198128 L30.7784038,33.9971761 C30.6236632,34.0722395 30.2450546,34.0723323 30.0901226,33.9971761 L27.6630277,32.8198128 C26.9436226,32.4708354 25.9001776,32.4705797 25.1802452,32.8198128 L22.7531503,33.9971761 C22.5984097,34.0722395 22.219801,34.0723323 22.0648691,33.9971761 L19.6377742,32.8198128 C18.9183691,32.4708354 17.8749241,32.4705797 17.1549917,32.8198128 L14.7278968,33.9971761 C14.5731562,34.0722395 14.1945475,34.0723323 14.0396156,33.9971761 L11.6125207,32.8198128 C10.8931156,32.4708354 9.84967057,32.4705797 9.12973821,32.8198128 L6.7026433,33.9971761 C6.54790269,34.0722395 6.169294,34.0723323 6.01436207,33.9971761 L3.58726716,32.8198128 L2.79450124,32.4352487 L1.89725062,32 L1,33.7409949 L1.89725062,34.1762436 L1.89725062,34.1762436 Z" id="Line"></path>
            <path d="M1.89725062,30.1762436 C2.07529755,30.2626127 2.07529755,30.2626127 2.69001654,30.5608077 L5.11711145,31.7381711 C5.83704381,32.0874042 6.88048882,32.0871484 7.59989392,31.7381711 L10.0269888,30.5608077 C10.1819208,30.4856516 10.5605294,30.4857444 10.7152701,30.5608077 L13.142365,31.7381711 C13.8622973,32.0874042 14.9057423,32.0871484 15.6251474,31.7381711 L18.0522423,30.5608077 C18.2071743,30.4856516 18.585783,30.4857444 18.7405236,30.5608077 L21.1676185,31.7381711 C21.8875508,32.0874042 22.9309959,32.0871484 23.650401,31.7381711 L26.0774959,30.5608077 C26.2324278,30.4856516 26.6110365,30.4857444 26.7657771,30.5608077 L29.192872,31.7381711 C29.9128044,32.0874042 30.9562494,32.0871484 31.6756545,31.7381711 L34.1027494,30.5608077 L35,30.125559 L34.1027494,28.3845641 L33.2054988,28.8198128 L30.7784038,29.9971761 C30.6236632,30.0722395 30.2450546,30.0723323 30.0901226,29.9971761 L27.6630277,28.8198128 C26.9436226,28.4708354 25.9001776,28.4705797 25.1802452,28.8198128 L22.7531503,29.9971761 C22.5984097,30.0722395 22.219801,30.0723323 22.0648691,29.9971761 L19.6377742,28.8198128 C18.9183691,28.4708354 17.8749241,28.4705797 17.1549917,28.8198128 L14.7278968,29.9971761 C14.5731562,30.0722395 14.1945475,30.0723323 14.0396156,29.9971761 L11.6125207,28.8198128 C10.8931156,28.4708354 9.84967057,28.4705797 9.12973821,28.8198128 L6.7026433,29.9971761 C6.54790269,30.0722395 6.169294,30.0723323 6.01436207,29.9971761 L3.58726716,28.8198128 L2.79450124,28.4352487 L1.89725062,28 L1,29.7409949 L1.89725062,30.1762436 L1.89725062,30.1762436 Z" id="Line"></path>
        </g>
    </g>
</svg>