<?xml version="1.0" encoding="UTF-8" standalone="no"?>
<svg width="22px" height="22px" viewBox="0 0 18 18" version="1.1" xmlns="http://www.w3.org/2000/svg" xmlns:xlink="http://www.w3.org/1999/xlink">
    <title>icon-bus</title>
    <g id="Page-1" stroke="none" stroke-width="1" fill="none" fill-rule="evenodd">
        <g id="bus-circle">
            <circle id="Oval" fill="#FFFFFF" cx="11" cy="11" r="11"></circle>
            <path d="M13.1838548,15.7142857 L8.81537142,15.7142857 C8.69125174,16.1273229 8.30550019,16.4285714 7.86099393,16.4285714 L7.71043464,16.4285714 C7.24740675,16.4285714 6.85816401,16.1123498 6.7464868,15.6825967 C6.3171962,15.571036 6,15.1782061 6,14.7170097 L6,14.9258474 C6,14.3750671 6,13.4735272 6,12.9217068 L6,6.00686468 C6,5.45078867 6.4556644,5 6.99539757,5 L15.0046024,5 C15.5543453,5 16,5.45504421 16,6.00686468 L16,12.9217068 C16,13.4777828 16,14.3791825 16,14.9258474 L16,14.7170097 C16,15.1806402 15.6771267,15.5703769 15.2530215,15.6821051 C15.1396837,16.1115821 14.7455369,16.4285714 14.2895654,16.4285714 L14.1390061,16.4285714 C13.687435,16.4285714 13.3060429,16.1278049 13.1838548,15.7142857 Z M11.7142857,7.85714286 L11.7142857,12.1428571 L15.2857143,12.1428571 L15.2857143,7.85714286 L11.7142857,7.85714286 Z M6.71428571,7.85714286 L6.71428571,12.1428571 L10.2857143,12.1428571 L10.2857143,7.85714286 L6.71428571,7.85714286 Z M8.14285714,5.71428571 L8.14285714,7.14285714 L13.8571429,7.14285714 L13.8571429,5.71428571 L8.14285714,5.71428571 Z M13.8571429,13.5714286 C13.8571429,13.968668 14.1769395,14.2857143 14.5714286,14.2857143 C14.968668,14.2857143 15.2857143,13.9659177 15.2857143,13.5714286 C15.2857143,13.1741892 14.9659177,12.8571429 14.5714286,12.8571429 C14.1741892,12.8571429 13.8571429,13.1769395 13.8571429,13.5714286 Z M11.7142857,13.5714286 C11.7142857,13.968668 12.0340823,14.2857143 12.4285714,14.2857143 C12.8258108,14.2857143 13.1428571,13.9659177 13.1428571,13.5714286 C13.1428571,13.1741892 12.8230605,12.8571429 12.4285714,12.8571429 C12.031332,12.8571429 11.7142857,13.1769395 11.7142857,13.5714286 Z M8.85714286,13.5714286 C8.85714286,13.968668 9.17693946,14.2857143 9.57142857,14.2857143 C9.96866798,14.2857143 10.2857143,13.9659177 10.2857143,13.5714286 C10.2857143,13.1741892 9.96591768,12.8571429 9.57142857,12.8571429 C9.17418916,12.8571429 8.85714286,13.1769395 8.85714286,13.5714286 Z M6.71428571,13.5714286 C6.71428571,13.968668 7.03408232,14.2857143 7.42857143,14.2857143 C7.82581084,14.2857143 8.14285714,13.9659177 8.14285714,13.5714286 C8.14285714,13.1741892 7.82306054,12.8571429 7.42857143,12.8571429 C7.03133202,12.8571429 6.71428571,13.1769395 6.71428571,13.5714286 Z" id="Combined-Shape" fill="#1C1E23"></path>
            <path d="M11,19 C15.418278,19 19,15.418278 19,11 C19,6.581722 15.418278,3 11,3 C6.581722,3 3,6.581722 3,11 C3,15.418278 6.581722,19 11,19 Z M11,22 C4.92486775,22 0,17.0751322 0,11 C0,4.92486775 4.92486775,0 11,0 C17.0751322,0 22,4.92486775 22,11 C22,17.0751322 17.0751322,22 11,22 Z" id="Oval-Copy" fill="#1C1E23" fill-rule="nonzero"></path>
        </g>
    </g>
</svg>
