<?xml version="1.0" encoding="UTF-8" standalone="no"?>
<svg width="36px" height="36px" viewBox="0 0 36 36" version="1.1" xmlns="http://www.w3.org/2000/svg" xmlns:xlink="http://www.w3.org/1999/xlink">
    <!-- Generator: Sketch 3.7.2 (28276) - http://www.bohemiancoding.com/sketch -->
    <title>bus-icon</title>
    <desc>Created with Sketch.</desc>
    <defs></defs>
    <g id="Page-1" stroke="none" stroke-width="1" fill="none" fill-rule="evenodd">
        <g id="bus-icon" fill="#000000">
            <path d="M25,34 L11,34 L11,34.9975267 C11,35.5511774 10.5490248,36 10.009222,36 L5.99077797,36 C5.44358641,36 5,35.544239 5,34.9975267 L5,34 L2,34 L0,28 L1.78596497,2.99649048 C1.90417325,1.34157448 3.33425951,0 4.99610022,0 L31.0038998,0 C32.6586002,0 34.0951187,1.33166146 34.214035,2.99649048 L36,28 L34,34 L31,34 L31,34.9975267 C31,35.5511774 30.5490248,36 30.009222,36 L25.990778,36 C25.4435864,36 25,35.544239 25,34.9975267 L25,34 Z M4,6 L16,6 L16,18 L3,18 L4,6 Z M20,6 L32,6 L33,18 L20,18 L20,6 Z M10,2 L26,2 L26,4 L10,4 L10,2 Z M4,30 L32,30 L32,32 L4,32 L4,30 Z M5,28 C6.1045695,28 7,27.1045695 7,26 C7,24.8954305 6.1045695,24 5,24 C3.8954305,24 3,24.8954305 3,26 C3,27.1045695 3.8954305,28 5,28 Z M10,28 C11.1045695,28 12,27.1045695 12,26 C12,24.8954305 11.1045695,24 10,24 C8.8954305,24 8,24.8954305 8,26 C8,27.1045695 8.8954305,28 10,28 Z M26,28 C27.1045695,28 28,27.1045695 28,26 C28,24.8954305 27.1045695,24 26,24 C24.8954305,24 24,24.8954305 24,26 C24,27.1045695 24.8954305,28 26,28 Z M31,28 C32.1045695,28 33,27.1045695 33,26 C33,24.8954305 32.1045695,24 31,24 C29.8954305,24 29,24.8954305 29,26 C29,27.1045695 29.8954305,28 31,28 Z M18,28 C20.209139,28 22,26.209139 22,24 C22,21.790861 20.209139,20 18,20 C15.790861,20 14,21.790861 14,24 C14,26.209139 15.790861,28 18,28 Z M18,27.648 C15.9852652,27.648 14.352,26.0147348 14.352,24 C14.352,21.9852652 15.9852652,20.352 18,20.352 C20.0147348,20.352 21.648,21.9852652 21.648,24 C21.648,26.0147348 20.0147348,27.648 18,27.648 Z M15.36,22.04 L20.64,22.04 L20.64,23.26 L18.68,23.26 L18.68,26.524 L17.328,26.524 L17.328,23.26 L15.368,23.26 L15.36,22.04 Z" id="Combined-Shape"></path>
        </g>
    </g>
</svg>
