<?xml version="1.0" encoding="UTF-8" standalone="no"?>
<svg width="22px" height="22px" viewBox="0 0 18 18" version="1.1" xmlns="http://www.w3.org/2000/svg" xmlns:xlink="http://www.w3.org/1999/xlink">
    <title>icon-commuter-rail</title>
    <g id="Page-1" stroke="none" stroke-width="1" fill="none" fill-rule="evenodd">
        <g id="commuter-rail-circle">
            <circle id="Oval" fill="#FFFFFF" cx="11" cy="11" r="11"></circle>
            <g id="Group" transform="translate(6.000000, 5.000000)" fill="#1C1E23">
                <path d="M0.717065802,4.08083834 C0.715223373,4.05588114 0.714285714,4.03064418 0.714285714,4.00515803 L0.714285714,2.4234134 C0.714285714,1.87397735 1.14088467,1.28637178 1.66542462,1.11152513 L4.04886109,0.317046302 C4.57416061,0.141946464 5.42659896,0.142199653 5.95113891,0.317046302 L8.33457538,1.11152513 C8.85987489,1.28662496 9.28571429,1.86649867 9.28571429,2.4234134 L9.28571429,4.00515803 C9.28571429,4.03061223 9.28475111,4.05584314 9.28285918,4.08081684 L10,4.28571429 L10,8.28590679 C10,8.83808522 9.5443356,9.28571429 9.00460243,9.28571429 L0.995397568,9.28571429 C0.445654671,9.28571429 0,8.84199764 0,8.28590679 L0,4.28571429 L0.717065802,4.08083834 Z M8.57142857,7.85714286 C8.96591768,7.85714286 9.28571429,7.53734625 9.28571429,7.14285714 C9.28571429,6.74836804 8.96591768,6.42857143 8.57142857,6.42857143 C8.17693946,6.42857143 7.85714286,6.74836804 7.85714286,7.14285714 C7.85714286,7.53734625 8.17693946,7.85714286 8.57142857,7.85714286 Z M1.42857143,7.85714286 C1.82306054,7.85714286 2.14285714,7.53734625 2.14285714,7.14285714 C2.14285714,6.74836804 1.82306054,6.42857143 1.42857143,6.42857143 C1.03408232,6.42857143 0.714285714,6.74836804 0.714285714,7.14285714 C0.714285714,7.53734625 1.03408232,7.85714286 1.42857143,7.85714286 Z M1.42857143,2.14285714 L1.42857143,3.57142857 L4.28571429,2.85714286 L4.28571429,1.42857143 L1.42857143,2.14285714 Z M5.71428571,1.42857143 L5.71428571,2.85714286 L8.57142857,3.57142857 L8.57142857,2.14285714 L5.71428571,1.42857143 Z" id="Combined-Shape"></path>
                <path d="M0.714285714,10 L9.28571429,10 L9.28571429,10.3571429 C9.28571429,10.5543874 9.12214245,10.7142857 8.92832335,10.7142857 L1.07167665,10.7142857 C0.874295088,10.7142857 0.714285714,10.5486189 0.714285714,10.3571429 L0.714285714,10 Z M2.85714286,10.7142857 L4.28571429,10.7142857 L2.85714286,12.1428571 L1.42857143,12.1428571 L2.85714286,10.7142857 Z M5.71428571,10.7142857 L7.14285714,10.7142857 L8.57142857,12.1428571 L7.14285714,12.1428571 L5.71428571,10.7142857 Z" id="Combined-Shape"></path>
            </g>
            <path d="M11,19 C15.418278,19 19,15.418278 19,11 C19,6.581722 15.418278,3 11,3 C6.581722,3 3,6.581722 3,11 C3,15.418278 6.581722,19 11,19 Z M11,22 C4.92486775,22 0,17.0751322 0,11 C0,4.92486775 4.92486775,0 11,0 C17.0751322,0 22,4.92486775 22,11 C22,17.0751322 17.0751322,22 11,22 Z" id="Oval-Copy" fill="#1C1E23" fill-rule="nonzero"></path>
        </g>
    </g>
</svg>
