<?xml version="1.0" encoding="UTF-8" standalone="no"?>
<svg width="36px" height="36px" viewBox="0 0 36 36" version="1.1" xmlns="http://www.w3.org/2000/svg" xmlns:xlink="http://www.w3.org/1999/xlink">
    <!-- Generator: Sketch 3.7.2 (28276) - http://www.bohemiancoding.com/sketch -->
    <title>commuter-icon</title>
    <desc>Created with Sketch.</desc>
    <defs></defs>
    <g id="Page-1" stroke="none" stroke-width="1" fill="none" fill-rule="evenodd">
        <g id="commuter-icon" fill="#000000">
            <path d="M16.6,1.45384615 L6.7,4.5 L5.39701493,10.3634328 L4,10.8 L4,24.3 L32.8,24.3 L32.8,10.8 L31.4029851,10.3634328 L30.1,4.5 L20.2,1.45384615 L20.2,0 L16.6,0 L16.6,1.45384615 Z M19.3,2.7 L28.3,5.4 L29.2,9 L19.3,6.3 L19.3,2.7 Z M8.5,5.4 L17.5,2.7 L17.5,6.3 L7.6,9 L8.5,5.4 Z M29.2,22.5 C30.1941125,22.5 31,21.6941125 31,20.7 C31,19.7058875 30.1941125,18.9 29.2,18.9 C28.2058875,18.9 27.4,19.7058875 27.4,20.7 C27.4,21.6941125 28.2058875,22.5 29.2,22.5 Z M7.6,22.5 C8.59411255,22.5 9.4,21.6941125 9.4,20.7 C9.4,19.7058875 8.59411255,18.9 7.6,18.9 C6.60588745,18.9 5.8,19.7058875 5.8,20.7 C5.8,21.6941125 6.60588745,22.5 7.6,22.5 Z M18.4,18 C20.3882251,18 22,16.3882251 22,14.4 C22,12.4117749 20.3882251,10.8 18.4,10.8 C16.4117749,10.8 14.8,12.4117749 14.8,14.4 C14.8,16.3882251 16.4117749,18 18.4,18 Z M18.4,17.52 C16.6768716,17.52 15.28,16.1231284 15.28,14.4 C15.28,12.6768716 16.6768716,11.28 18.4,11.28 C20.1231284,11.28 21.52,12.6768716 21.52,14.4 C21.52,16.1231284 20.1231284,17.52 18.4,17.52 Z M16.15,12.6 L20.65,12.6 L20.65,13.5 L16.15,13.5 L16.15,12.6 Z M17.95,13.5 L18.85,13.5 L18.85,16.65 L17.95,16.65 L17.95,13.5 Z" id="Combined-Shape"></path>
            <path d="M12.6674457,32.4 L13.5674457,30.6 L22.9475078,30.6 L23.8475078,32.4 L12.6674457,32.4 Z M11.7674457,34.2 L11.4124612,34.9099689 L11.0099689,35.7149534 L9.4,34.9099689 L9.80249224,34.1049845 L11.5549845,30.6 L8.4948537,30.6 C7.0065271,30.6 5.4182663,29.4547989 4.94744138,28.0423242 L4,25.2 L32.8,25.2 L32.3447267,27.93164 C32.0991109,29.4053345 30.6934882,30.6 29.2051463,30.6 L24.9599689,30.6 L26.7124612,34.1049845 L27.1149534,34.9099689 L25.5049845,35.7149534 L25.1024922,34.9099689 L24.7475078,34.2 L24.5714286,34.2 L12.2285714,34.2 L11.7674457,34.2 Z" id="Combined-Shape"></path>
        </g>
    </g>
</svg>