<?xml version="1.0" encoding="UTF-8" standalone="no"?>
<svg width="22px" height="22px" viewBox="0 0 18 18" version="1.1" xmlns="http://www.w3.org/2000/svg" xmlns:xlink="http://www.w3.org/1999/xlink">
    <title>icon-ferry</title>
    <g id="Page-1" stroke="none" stroke-width="1" fill="none" fill-rule="evenodd">
        <g id="ferry-circle">
            <circle id="Oval" fill="#FFFFFF" cx="11" cy="11" r="11"></circle>
            <path d="M6.5,10.25 L6.5,7.25 L11,5 L15.5,7.25 L15.5,10.25 L17,11 C17,11 14.0144653,14 14,16.25 C13.6936883,16.25 13.25,15.5 12.5,15.5 C11.75,15.5 11.75,16.25 11,16.25 C10.25,16.25 10.25,15.5 9.5,15.5 C8.75,15.5 8.38405705,16.25 8,16.25 C8.03323364,14 5,11 5,11 L6.5,10.25 Z M7.25,8 L7.25,9.5 L10.25,8 L10.25,6.5 L7.25,8 Z M11.75,6.5 L11.75,8 L14.75,9.5 L14.75,8 L11.75,6.5 Z" id="Combined-Shape" fill="#1C1E23"></path>
            <path d="M11,19 C15.418278,19 19,15.418278 19,11 C19,6.581722 15.418278,3 11,3 C6.581722,3 3,6.581722 3,11 C3,15.418278 6.581722,19 11,19 Z M11,22 C4.92486775,22 0,17.0751322 0,11 C0,4.92486775 4.92486775,0 11,0 C17.0751322,0 22,4.92486775 22,11 C22,17.0751322 17.0751322,22 11,22 Z" id="Oval-Copy" fill="#1C1E23" fill-rule="nonzero"></path>
        </g>
    </g>
</svg>
