<?xml version="1.0" encoding="UTF-8" standalone="no"?>
<svg viewBox="0 0 269 48" version="1.1" xmlns="http://www.w3.org/2000/svg" xmlns:xlink="http://www.w3.org/1999/xlink">
    <!-- Generator: Sketch 39.1 (31720) - http://www.bohemiancoding.com/sketch -->
    <title>logo-black</title>
    <desc>Created with Sketch.</desc>
    <defs></defs>
    <g id="Page-1" stroke="none" stroke-width="1" fill="none" fill-rule="evenodd">
        <g id="assets" transform="translate(-48.000000, -48.000000)">
            <g id="logo-black" transform="translate(48.000000, 48.000000)" fill="#1C1E23">
                <path d="M67.785,12.006 C67.9050006,12.2340011 68.0204994,12.4709988 68.1315,12.717 C68.2425006,12.9630012 68.3489995,13.2149987 68.451,13.473 C68.5530005,13.2089987 68.6609994,12.9525012 68.775,12.7035 C68.8890006,12.4544988 69.0059994,12.2130012 69.126,11.979 L72.492,5.355 C72.5520003,5.24099943 72.6134997,5.15250031 72.6765,5.0895 C72.7395003,5.02649968 72.8099996,4.98000015 72.888,4.95 C72.9660004,4.91999985 73.0544995,4.90200003 73.1535,4.896 C73.2525005,4.88999997 73.3679993,4.887 73.5,4.887 L75.822,4.887 L75.822,18 L73.14,18 L73.14,10.458 C73.14,10.0919982 73.1579998,9.69600213 73.194,9.27 L69.72,16.011 C69.6119995,16.221001 69.4665009,16.3799995 69.2835,16.488 C69.1004991,16.5960005 68.8920012,16.65 68.658,16.65 L68.244,16.65 C68.0099988,16.65 67.8015009,16.5960005 67.6185,16.488 C67.4354991,16.3799995 67.2900005,16.221001 67.182,16.011 L63.69,9.261 C63.7140001,9.47100105 63.7319999,9.67949897 63.744,9.8865 C63.7560001,10.093501 63.762,10.2839991 63.762,10.458 L63.762,18 L61.08,18 L61.08,4.887 L63.402,4.887 C63.5340007,4.887 63.6494995,4.88999997 63.7485,4.896 C63.8475005,4.90200003 63.9359996,4.91999985 64.014,4.95 C64.0920004,4.98000015 64.1624997,5.02649968 64.2255,5.0895 C64.2885003,5.15250031 64.3499997,5.24099943 64.41,5.355 L67.785,12.006 Z M84.426,18 C84.1619987,18 83.9625007,17.9640004 83.8275,17.892 C83.6924993,17.8199996 83.5800005,17.6700011 83.49,17.442 L83.292,16.929 C83.0579988,17.127001 82.8330011,17.3009992 82.617,17.451 C82.4009989,17.6010007 82.1775012,17.7284995 81.9465,17.8335 C81.7154988,17.9385005 81.4695013,18.0164997 81.2085,18.0675 C80.9474987,18.1185003 80.6580016,18.144 80.34,18.144 C79.9139979,18.144 79.5270017,18.0885006 79.179,17.9775 C78.8309983,17.8664994 78.5355012,17.7030011 78.2925,17.487 C78.0494988,17.2709989 77.8620007,17.0025016 77.73,16.6815 C77.5979993,16.3604984 77.532,15.9900021 77.532,15.57 C77.532,15.2399983 77.6159992,14.9010017 77.784,14.553 C77.9520008,14.2049983 78.2429979,13.8885014 78.657,13.6035 C79.0710021,13.3184986 79.6289965,13.080001 80.331,12.888 C81.0330035,12.695999 81.9179947,12.5880001 82.986,12.564 L82.986,12.168 C82.986,11.6219973 82.8735011,11.2275012 82.6485,10.9845 C82.4234989,10.7414988 82.1040021,10.62 81.69,10.62 C81.3599984,10.62 81.0900011,10.6559996 80.88,10.728 C80.669999,10.8000004 80.4825008,10.8809995 80.3175,10.971 C80.1524992,11.0610004 79.9920008,11.1419996 79.836,11.214 C79.6799992,11.2860004 79.4940011,11.322 79.278,11.322 C79.085999,11.322 78.9225007,11.2755005 78.7875,11.1825 C78.6524993,11.0894995 78.5460004,10.9740007 78.468,10.836 L77.964,9.963 C78.5280028,9.46499751 79.1534966,9.09450121 79.8405,8.8515 C80.5275034,8.60849878 81.2639961,8.487 82.05,8.487 C82.6140028,8.487 83.1224977,8.57849908 83.5755,8.7615 C84.0285023,8.94450091 84.4124984,9.19949836 84.7275,9.5265 C85.0425016,9.85350163 85.2839992,10.2419977 85.452,10.692 C85.6200008,11.1420022 85.704,11.6339973 85.704,12.168 L85.704,18 L84.426,18 Z M81.222,16.299 C81.5820018,16.299 81.8969986,16.2360006 82.167,16.11 C82.4370013,15.9839994 82.7099986,15.7800014 82.986,15.498 L82.986,14.202 C82.4279972,14.2260001 81.9690018,14.2739996 81.609,14.346 C81.2489982,14.4180004 80.964001,14.5079995 80.754,14.616 C80.5439989,14.7240005 80.3985004,14.8469993 80.3175,14.985 C80.2364996,15.1230007 80.196,15.2729992 80.196,15.435 C80.196,15.7530016 80.2829991,15.9764994 80.457,16.1055 C80.6310009,16.2345006 80.8859983,16.299 81.222,16.299 L81.222,16.299 Z M93.39,10.71 C93.3179996,10.8240006 93.2415004,10.9049998 93.1605,10.953 C93.0794996,11.0010002 92.9760006,11.025 92.85,11.025 C92.7179993,11.025 92.5860007,10.9965003 92.454,10.9395 C92.3219993,10.8824997 92.1795008,10.8210003 92.0265,10.755 C91.8734992,10.6889997 91.701001,10.6275003 91.509,10.5705 C91.316999,10.5134997 91.0980012,10.485 90.852,10.485 C90.4979982,10.485 90.2265009,10.5524993 90.0375,10.6875 C89.8484991,10.8225007 89.754,11.0099988 89.754,11.25 C89.754,11.4240009 89.8154994,11.5679994 89.9385,11.682 C90.0615006,11.7960006 90.224999,11.8964996 90.429,11.9835 C90.633001,12.0705004 90.8639987,12.1529996 91.122,12.231 C91.3800013,12.3090004 91.6439987,12.3959995 91.914,12.492 C92.1840014,12.5880005 92.4479987,12.7004994 92.706,12.8295 C92.9640013,12.9585006 93.194999,13.1174991 93.399,13.3065 C93.603001,13.4955009 93.7664994,13.7249986 93.8895,13.995 C94.0125006,14.2650013 94.074,14.5889981 94.074,14.967 C94.074,15.4290023 93.9900008,15.854998 93.822,16.245 C93.6539992,16.6350019 93.4035017,16.9709986 93.0705,17.253 C92.7374983,17.5350014 92.3265024,17.7539992 91.8375,17.91 C91.3484976,18.0660008 90.7860032,18.144 90.15,18.144 C89.8319984,18.144 89.5140016,18.1140003 89.196,18.054 C88.8779984,17.9939997 88.5705015,17.9130005 88.2735,17.811 C87.9764985,17.7089995 87.7020013,17.5875007 87.45,17.4465 C87.1979987,17.3054993 86.9820009,17.1540008 86.802,16.992 L87.45,15.966 C87.5280004,15.8459994 87.6209995,15.7515003 87.729,15.6825 C87.8370005,15.6134997 87.9779991,15.579 88.152,15.579 C88.3140008,15.579 88.4594994,15.6149996 88.5885,15.687 C88.7175006,15.7590004 88.8569993,15.8369996 89.007,15.921 C89.1570008,16.0050004 89.332499,16.0829996 89.5335,16.155 C89.734501,16.2270004 89.9879985,16.263 90.294,16.263 C90.5100011,16.263 90.6929993,16.2405002 90.843,16.1955 C90.9930008,16.1504998 91.1129996,16.0890004 91.203,16.011 C91.2930005,15.9329996 91.3589998,15.8460005 91.401,15.75 C91.4430002,15.6539995 91.464,15.5550005 91.464,15.453 C91.464,15.2669991 91.4010006,15.1140006 91.275,14.994 C91.1489994,14.8739994 90.984001,14.7705004 90.78,14.6835 C90.575999,14.5964996 90.3435013,14.5155004 90.0825,14.4405 C89.8214987,14.3654996 89.5560014,14.2800005 89.286,14.184 C89.0159987,14.0879995 88.7505013,13.9725007 88.4895,13.8375 C88.2284987,13.7024993 87.996001,13.531501 87.792,13.3245 C87.587999,13.117499 87.4230006,12.8640015 87.297,12.564 C87.1709994,12.2639985 87.108,11.9010021 87.108,11.475 C87.108,11.078998 87.1844992,10.7025018 87.3375,10.3455 C87.4905008,9.98849821 87.7199985,9.67500135 88.026,9.405 C88.3320015,9.13499865 88.7159977,8.92050079 89.178,8.7615 C89.6400023,8.6024992 90.1799969,8.523 90.798,8.523 C91.1340017,8.523 91.4594984,8.5529997 91.7745,8.613 C92.0895016,8.6730003 92.3849986,8.75699946 92.661,8.865 C92.9370014,8.97300054 93.1889989,9.10049926 93.417,9.2475 C93.6450011,9.39450073 93.8459991,9.55499913 94.02,9.729 L93.39,10.71 Z M101.31,10.71 C101.238,10.8240006 101.1615,10.9049998 101.0805,10.953 C100.9995,11.0010002 100.896001,11.025 100.77,11.025 C100.637999,11.025 100.506001,10.9965003 100.374,10.9395 C100.241999,10.8824997 100.099501,10.8210003 99.9465,10.755 C99.7934992,10.6889997 99.621001,10.6275003 99.429,10.5705 C99.236999,10.5134997 99.0180012,10.485 98.772,10.485 C98.4179982,10.485 98.1465009,10.5524993 97.9575,10.6875 C97.7684991,10.8225007 97.674,11.0099988 97.674,11.25 C97.674,11.4240009 97.7354994,11.5679994 97.8585,11.682 C97.9815006,11.7960006 98.144999,11.8964996 98.349,11.9835 C98.553001,12.0705004 98.7839987,12.1529996 99.042,12.231 C99.3000013,12.3090004 99.5639987,12.3959995 99.834,12.492 C100.104001,12.5880005 100.367999,12.7004994 100.626,12.8295 C100.884001,12.9585006 101.114999,13.1174991 101.319,13.3065 C101.523001,13.4955009 101.686499,13.7249986 101.8095,13.995 C101.932501,14.2650013 101.994,14.5889981 101.994,14.967 C101.994,15.4290023 101.910001,15.854998 101.742,16.245 C101.573999,16.6350019 101.323502,16.9709986 100.9905,17.253 C100.657498,17.5350014 100.246502,17.7539992 99.7575,17.91 C99.2684976,18.0660008 98.7060032,18.144 98.07,18.144 C97.7519984,18.144 97.4340016,18.1140003 97.116,18.054 C96.7979984,17.9939997 96.4905015,17.9130005 96.1935,17.811 C95.8964985,17.7089995 95.6220013,17.5875007 95.37,17.4465 C95.1179987,17.3054993 94.9020009,17.1540008 94.722,16.992 L95.37,15.966 C95.4480004,15.8459994 95.5409995,15.7515003 95.649,15.6825 C95.7570005,15.6134997 95.8979991,15.579 96.072,15.579 C96.2340008,15.579 96.3794994,15.6149996 96.5085,15.687 C96.6375006,15.7590004 96.7769993,15.8369996 96.927,15.921 C97.0770008,16.0050004 97.252499,16.0829996 97.4535,16.155 C97.654501,16.2270004 97.9079985,16.263 98.214,16.263 C98.4300011,16.263 98.6129993,16.2405002 98.763,16.1955 C98.9130008,16.1504998 99.0329996,16.0890004 99.123,16.011 C99.2130005,15.9329996 99.2789998,15.8460005 99.321,15.75 C99.3630002,15.6539995 99.384,15.5550005 99.384,15.453 C99.384,15.2669991 99.3210006,15.1140006 99.195,14.994 C99.0689994,14.8739994 98.904001,14.7705004 98.7,14.6835 C98.495999,14.5964996 98.2635013,14.5155004 98.0025,14.4405 C97.7414987,14.3654996 97.4760014,14.2800005 97.206,14.184 C96.9359987,14.0879995 96.6705013,13.9725007 96.4095,13.8375 C96.1484987,13.7024993 95.916001,13.531501 95.712,13.3245 C95.507999,13.117499 95.3430006,12.8640015 95.217,12.564 C95.0909994,12.2639985 95.028,11.9010021 95.028,11.475 C95.028,11.078998 95.1044992,10.7025018 95.2575,10.3455 C95.4105008,9.98849821 95.6399985,9.67500135 95.946,9.405 C96.2520015,9.13499865 96.6359977,8.92050079 97.098,8.7615 C97.5600023,8.6024992 98.0999969,8.523 98.718,8.523 C99.0540017,8.523 99.3794984,8.5529997 99.6945,8.613 C100.009502,8.6730003 100.304999,8.75699946 100.581,8.865 C100.857001,8.97300054 101.108999,9.10049926 101.337,9.2475 C101.565001,9.39450073 101.765999,9.55499913 101.94,9.729 L101.31,10.71 Z M109.968,18 C109.703999,18 109.504501,17.9640004 109.3695,17.892 C109.234499,17.8199996 109.122,17.6700011 109.032,17.442 L108.834,16.929 C108.599999,17.127001 108.375001,17.3009992 108.159,17.451 C107.942999,17.6010007 107.719501,17.7284995 107.4885,17.8335 C107.257499,17.9385005 107.011501,18.0164997 106.7505,18.0675 C106.489499,18.1185003 106.200002,18.144 105.882,18.144 C105.455998,18.144 105.069002,18.0885006 104.721,17.9775 C104.372998,17.8664994 104.077501,17.7030011 103.8345,17.487 C103.591499,17.2709989 103.404001,17.0025016 103.272,16.6815 C103.139999,16.3604984 103.074,15.9900021 103.074,15.57 C103.074,15.2399983 103.157999,14.9010017 103.326,14.553 C103.494001,14.2049983 103.784998,13.8885014 104.199,13.6035 C104.613002,13.3184986 105.170996,13.080001 105.873,12.888 C106.575004,12.695999 107.459995,12.5880001 108.528,12.564 L108.528,12.168 C108.528,11.6219973 108.415501,11.2275012 108.1905,10.9845 C107.965499,10.7414988 107.646002,10.62 107.232,10.62 C106.901998,10.62 106.632001,10.6559996 106.422,10.728 C106.211999,10.8000004 106.024501,10.8809995 105.8595,10.971 C105.694499,11.0610004 105.534001,11.1419996 105.378,11.214 C105.221999,11.2860004 105.036001,11.322 104.82,11.322 C104.627999,11.322 104.464501,11.2755005 104.3295,11.1825 C104.194499,11.0894995 104.088,10.9740007 104.01,10.836 L103.506,9.963 C104.070003,9.46499751 104.695497,9.09450121 105.3825,8.8515 C106.069503,8.60849878 106.805996,8.487 107.592,8.487 C108.156003,8.487 108.664498,8.57849908 109.1175,8.7615 C109.570502,8.94450091 109.954498,9.19949836 110.2695,9.5265 C110.584502,9.85350163 110.825999,10.2419977 110.994,10.692 C111.162001,11.1420022 111.246,11.6339973 111.246,12.168 L111.246,18 L109.968,18 Z M106.764,16.299 C107.124002,16.299 107.438999,16.2360006 107.709,16.11 C107.979001,15.9839994 108.251999,15.7800014 108.528,15.498 L108.528,14.202 C107.969997,14.2260001 107.511002,14.2739996 107.151,14.346 C106.790998,14.4180004 106.506001,14.5079995 106.296,14.616 C106.085999,14.7240005 105.9405,14.8469993 105.8595,14.985 C105.7785,15.1230007 105.738,15.2729992 105.738,15.435 C105.738,15.7530016 105.824999,15.9764994 105.999,16.1055 C106.173001,16.2345006 106.427998,16.299 106.764,16.299 L106.764,16.299 Z M119.958,10.881 C119.874,10.9830005 119.793,11.0639997 119.715,11.124 C119.637,11.1840003 119.526001,11.214 119.382,11.214 C119.243999,11.214 119.119501,11.1810003 119.0085,11.115 C118.897499,11.0489997 118.773001,10.9755004 118.635,10.8945 C118.496999,10.8134996 118.335001,10.7400003 118.149,10.674 C117.962999,10.6079997 117.732001,10.575 117.456,10.575 C117.113998,10.575 116.818501,10.6379994 116.5695,10.764 C116.320499,10.8900006 116.115001,11.0699988 115.953,11.304 C115.790999,11.5380012 115.671,11.8244983 115.593,12.1635 C115.515,12.5025017 115.476,12.8849979 115.476,13.311 C115.476,14.2050045 115.648498,14.8919976 115.9935,15.372 C116.338502,15.8520024 116.813997,16.092 117.42,16.092 C117.744002,16.092 118.000499,16.0515004 118.1895,15.9705 C118.378501,15.8894996 118.538999,15.7995005 118.671,15.7005 C118.803001,15.6014995 118.924499,15.5100004 119.0355,15.426 C119.146501,15.3419996 119.285999,15.3 119.454,15.3 C119.676001,15.3 119.843999,15.3809992 119.958,15.543 L120.768,16.542 C120.479999,16.8720016 120.177002,17.140499 119.859,17.3475 C119.540998,17.554501 119.215502,17.7164994 118.8825,17.8335 C118.549498,17.9505006 118.215002,18.0314998 117.879,18.0765 C117.542998,18.1215002 117.216002,18.144 116.898,18.144 C116.327997,18.144 115.783503,18.0360011 115.2645,17.82 C114.745497,17.6039989 114.289502,17.2905021 113.8965,16.8795 C113.503498,16.4684979 113.191501,15.963003 112.9605,15.363 C112.729499,14.762997 112.614,14.0790038 112.614,13.311 C112.614,12.6389966 112.714499,12.0105029 112.9155,11.4255 C113.116501,10.8404971 113.413498,10.3335021 113.8065,9.9045 C114.199502,9.47549785 114.685497,9.13800123 115.2645,8.892 C115.843503,8.64599877 116.513996,8.523 117.276,8.523 C118.008004,8.523 118.649997,8.63999883 119.202,8.874 C119.754003,9.10800117 120.251998,9.44999775 120.696,9.9 L119.958,10.881 Z M121.974,18 L121.974,4.527 L124.764,4.527 L124.764,9.486 C125.100002,9.19799856 125.464498,8.96550088 125.8575,8.7885 C126.250502,8.61149911 126.719997,8.523 127.266,8.523 C127.776003,8.523 128.227498,8.61149911 128.6205,8.7885 C129.013502,8.96550088 129.344999,9.21149842 129.615,9.5265 C129.885001,9.84150157 130.088999,10.2164978 130.227,10.6515 C130.365001,11.0865022 130.434,11.5589974 130.434,12.069 L130.434,18 L127.644,18 L127.644,12.069 C127.644,11.6129977 127.539001,11.2575013 127.329,11.0025 C127.118999,10.7474987 126.810002,10.62 126.402,10.62 C126.095998,10.62 125.808001,10.6859993 125.538,10.818 C125.267999,10.9500007 125.010001,11.1269989 124.764,11.349 L124.764,18 L121.974,18 Z M135.024,8.667 L135.024,14.589 C135.024,15.0510023 135.128999,15.4079987 135.339,15.66 C135.549001,15.9120013 135.857998,16.038 136.266,16.038 C136.572002,16.038 136.858499,15.9750006 137.1255,15.849 C137.392501,15.7229994 137.651999,15.5460011 137.904,15.318 L137.904,8.667 L140.694,8.667 L140.694,18 L138.966,18 C138.617998,18 138.390001,17.8440016 138.282,17.532 L138.111,16.992 C137.930999,17.1660009 137.745001,17.3234993 137.553,17.4645 C137.360999,17.6055007 137.155501,17.7254995 136.9365,17.8245 C136.717499,17.9235005 136.482001,18.0014997 136.23,18.0585 C135.977999,18.1155003 135.702002,18.144 135.402,18.144 C134.891997,18.144 134.440502,18.0555009 134.0475,17.8785 C133.654498,17.7014991 133.323001,17.4540016 133.053,17.136 C132.782999,16.8179984 132.579001,16.4430022 132.441,16.011 C132.302999,15.5789978 132.234,15.1050026 132.234,14.589 L132.234,8.667 L135.024,8.667 Z M148.56,10.71 C148.488,10.8240006 148.4115,10.9049998 148.3305,10.953 C148.2495,11.0010002 148.146001,11.025 148.02,11.025 C147.887999,11.025 147.756001,10.9965003 147.624,10.9395 C147.491999,10.8824997 147.349501,10.8210003 147.1965,10.755 C147.043499,10.6889997 146.871001,10.6275003 146.679,10.5705 C146.486999,10.5134997 146.268001,10.485 146.022,10.485 C145.667998,10.485 145.396501,10.5524993 145.2075,10.6875 C145.018499,10.8225007 144.924,11.0099988 144.924,11.25 C144.924,11.4240009 144.985499,11.5679994 145.1085,11.682 C145.231501,11.7960006 145.394999,11.8964996 145.599,11.9835 C145.803001,12.0705004 146.033999,12.1529996 146.292,12.231 C146.550001,12.3090004 146.813999,12.3959995 147.084,12.492 C147.354001,12.5880005 147.617999,12.7004994 147.876,12.8295 C148.134001,12.9585006 148.364999,13.1174991 148.569,13.3065 C148.773001,13.4955009 148.936499,13.7249986 149.0595,13.995 C149.182501,14.2650013 149.244,14.5889981 149.244,14.967 C149.244,15.4290023 149.160001,15.854998 148.992,16.245 C148.823999,16.6350019 148.573502,16.9709986 148.2405,17.253 C147.907498,17.5350014 147.496502,17.7539992 147.0075,17.91 C146.518498,18.0660008 145.956003,18.144 145.32,18.144 C145.001998,18.144 144.684002,18.1140003 144.366,18.054 C144.047998,17.9939997 143.740501,17.9130005 143.4435,17.811 C143.146499,17.7089995 142.872001,17.5875007 142.62,17.4465 C142.367999,17.3054993 142.152001,17.1540008 141.972,16.992 L142.62,15.966 C142.698,15.8459994 142.790999,15.7515003 142.899,15.6825 C143.007001,15.6134997 143.147999,15.579 143.322,15.579 C143.484001,15.579 143.629499,15.6149996 143.7585,15.687 C143.887501,15.7590004 144.026999,15.8369996 144.177,15.921 C144.327001,16.0050004 144.502499,16.0829996 144.7035,16.155 C144.904501,16.2270004 145.157998,16.263 145.464,16.263 C145.680001,16.263 145.862999,16.2405002 146.013,16.1955 C146.163001,16.1504998 146.283,16.0890004 146.373,16.011 C146.463,15.9329996 146.529,15.8460005 146.571,15.75 C146.613,15.6539995 146.634,15.5550005 146.634,15.453 C146.634,15.2669991 146.571001,15.1140006 146.445,14.994 C146.318999,14.8739994 146.154001,14.7705004 145.95,14.6835 C145.745999,14.5964996 145.513501,14.5155004 145.2525,14.4405 C144.991499,14.3654996 144.726001,14.2800005 144.456,14.184 C144.185999,14.0879995 143.920501,13.9725007 143.6595,13.8375 C143.398499,13.7024993 143.166001,13.531501 142.962,13.3245 C142.757999,13.117499 142.593001,12.8640015 142.467,12.564 C142.340999,12.2639985 142.278,11.9010021 142.278,11.475 C142.278,11.078998 142.354499,10.7025018 142.5075,10.3455 C142.660501,9.98849821 142.889998,9.67500135 143.196,9.405 C143.502002,9.13499865 143.885998,8.92050079 144.348,8.7615 C144.810002,8.6024992 145.349997,8.523 145.968,8.523 C146.304002,8.523 146.629498,8.5529997 146.9445,8.613 C147.259502,8.6730003 147.554999,8.75699946 147.831,8.865 C148.107001,8.97300054 148.358999,9.10049926 148.587,9.2475 C148.815001,9.39450073 149.015999,9.55499913 149.19,9.729 L148.56,10.71 Z M154.77,8.523 C155.388003,8.523 155.953497,8.61899904 156.4665,8.811 C156.979503,9.00300096 157.420498,9.28199817 157.7895,9.648 C158.158502,10.0140018 158.446499,10.4624973 158.6535,10.9935 C158.860501,11.5245027 158.964,12.1259966 158.964,12.798 C158.964,13.008001 158.955,13.1789993 158.937,13.311 C158.919,13.4430007 158.886,13.5479996 158.838,13.626 C158.79,13.7040004 158.7255,13.7579998 158.6445,13.788 C158.5635,13.8180001 158.460001,13.833 158.334,13.833 L152.952,13.833 C153.042,14.6130039 153.278998,15.1784982 153.663,15.5295 C154.047002,15.8805018 154.541997,16.056 155.148,16.056 C155.472002,16.056 155.750999,16.0170004 155.985,15.939 C156.219001,15.8609996 156.427499,15.7740005 156.6105,15.678 C156.793501,15.5819995 156.961499,15.4950004 157.1145,15.417 C157.267501,15.3389996 157.427999,15.3 157.596,15.3 C157.818001,15.3 157.985999,15.3809992 158.1,15.543 L158.91,16.542 C158.621999,16.8720016 158.311502,17.140499 157.9785,17.3475 C157.645498,17.554501 157.303502,17.7164994 156.9525,17.8335 C156.601498,17.9505006 156.250502,18.0314998 155.8995,18.0765 C155.548498,18.1215002 155.214002,18.144 154.896,18.144 C154.241997,18.144 153.628503,18.0375011 153.0555,17.8245 C152.482497,17.6114989 151.981502,17.2950021 151.5525,16.875 C151.123498,16.4549979 150.784501,15.9330031 150.5355,15.309 C150.286499,14.6849969 150.162,13.9590041 150.162,13.131 C150.162,12.5069969 150.268499,11.9160028 150.4815,11.358 C150.694501,10.7999972 151.000498,10.3110021 151.3995,9.891 C151.798502,9.4709979 152.281497,9.13800123 152.8485,8.892 C153.415503,8.64599877 154.055996,8.523 154.77,8.523 L154.77,8.523 Z M154.824,10.449 C154.289997,10.449 153.873002,10.6004985 153.573,10.9035 C153.272999,11.2065015 153.075,11.6429971 152.979,12.213 L156.462,12.213 C156.462,11.9909989 156.4335,11.775001 156.3765,11.565 C156.3195,11.3549989 156.226501,11.1675008 156.0975,11.0025 C155.968499,10.8374992 155.799001,10.7040005 155.589,10.602 C155.378999,10.4999995 155.124002,10.449 154.824,10.449 L154.824,10.449 Z M163.842,18.144 C163.397998,18.144 163.006502,18.0795006 162.6675,17.9505 C162.328498,17.8214994 162.043501,17.6385012 161.8125,17.4015 C161.581499,17.1644988 161.406001,16.8780017 161.286,16.542 C161.165999,16.2059983 161.106,15.8310021 161.106,15.417 L161.106,10.593 L160.314,10.593 C160.169999,10.593 160.047001,10.5465005 159.945,10.4535 C159.842999,10.3604995 159.792,10.2240009 159.792,10.044 L159.792,8.955 L161.277,8.667 L161.826,6.39 C161.898,6.10199856 162.101998,5.958 162.438,5.958 L163.896,5.958 L163.896,8.685 L166.164,8.685 L166.164,10.593 L163.896,10.593 L163.896,15.228 C163.896,15.4440011 163.948499,15.6224993 164.0535,15.7635 C164.158501,15.9045007 164.309999,15.975 164.508,15.975 C164.610001,15.975 164.6955,15.9645001 164.7645,15.9435 C164.8335,15.9224999 164.8935,15.8985001 164.9445,15.8715 C164.9955,15.8444999 165.0435,15.8205001 165.0885,15.7995 C165.1335,15.7784999 165.186,15.768 165.246,15.768 C165.33,15.768 165.3975,15.7874998 165.4485,15.8265 C165.4995,15.8655002 165.552,15.9269996 165.606,16.011 L166.452,17.334 C166.091998,17.6040013 165.687002,17.8064993 165.237,17.9415 C164.786998,18.0765007 164.322002,18.144 163.842,18.144 L163.842,18.144 Z M171.042,18.144 C170.597998,18.144 170.206502,18.0795006 169.8675,17.9505 C169.528498,17.8214994 169.243501,17.6385012 169.0125,17.4015 C168.781499,17.1644988 168.606001,16.8780017 168.486,16.542 C168.365999,16.2059983 168.306,15.8310021 168.306,15.417 L168.306,10.593 L167.514,10.593 C167.369999,10.593 167.247001,10.5465005 167.145,10.4535 C167.042999,10.3604995 166.992,10.2240009 166.992,10.044 L166.992,8.955 L168.477,8.667 L169.026,6.39 C169.098,6.10199856 169.301998,5.958 169.638,5.958 L171.096,5.958 L171.096,8.685 L173.364,8.685 L173.364,10.593 L171.096,10.593 L171.096,15.228 C171.096,15.4440011 171.148499,15.6224993 171.2535,15.7635 C171.358501,15.9045007 171.509999,15.975 171.708,15.975 C171.810001,15.975 171.8955,15.9645001 171.9645,15.9435 C172.0335,15.9224999 172.0935,15.8985001 172.1445,15.8715 C172.1955,15.8444999 172.2435,15.8205001 172.2885,15.7995 C172.3335,15.7784999 172.386,15.768 172.446,15.768 C172.53,15.768 172.5975,15.7874998 172.6485,15.8265 C172.6995,15.8655002 172.752,15.9269996 172.806,16.011 L173.652,17.334 C173.291998,17.6040013 172.887002,17.8064993 172.437,17.9415 C171.986998,18.0765007 171.522002,18.144 171.042,18.144 L171.042,18.144 Z M180.672,10.71 C180.6,10.8240006 180.5235,10.9049998 180.4425,10.953 C180.3615,11.0010002 180.258001,11.025 180.132,11.025 C179.999999,11.025 179.868001,10.9965003 179.736,10.9395 C179.603999,10.8824997 179.461501,10.8210003 179.3085,10.755 C179.155499,10.6889997 178.983001,10.6275003 178.791,10.5705 C178.598999,10.5134997 178.380001,10.485 178.134,10.485 C177.779998,10.485 177.508501,10.5524993 177.3195,10.6875 C177.130499,10.8225007 177.036,11.0099988 177.036,11.25 C177.036,11.4240009 177.097499,11.5679994 177.2205,11.682 C177.343501,11.7960006 177.506999,11.8964996 177.711,11.9835 C177.915001,12.0705004 178.145999,12.1529996 178.404,12.231 C178.662001,12.3090004 178.925999,12.3959995 179.196,12.492 C179.466001,12.5880005 179.729999,12.7004994 179.988,12.8295 C180.246001,12.9585006 180.476999,13.1174991 180.681,13.3065 C180.885001,13.4955009 181.048499,13.7249986 181.1715,13.995 C181.294501,14.2650013 181.356,14.5889981 181.356,14.967 C181.356,15.4290023 181.272001,15.854998 181.104,16.245 C180.935999,16.6350019 180.685502,16.9709986 180.3525,17.253 C180.019498,17.5350014 179.608502,17.7539992 179.1195,17.91 C178.630498,18.0660008 178.068003,18.144 177.432,18.144 C177.113998,18.144 176.796002,18.1140003 176.478,18.054 C176.159998,17.9939997 175.852501,17.9130005 175.5555,17.811 C175.258499,17.7089995 174.984001,17.5875007 174.732,17.4465 C174.479999,17.3054993 174.264001,17.1540008 174.084,16.992 L174.732,15.966 C174.81,15.8459994 174.902999,15.7515003 175.011,15.6825 C175.119001,15.6134997 175.259999,15.579 175.434,15.579 C175.596001,15.579 175.741499,15.6149996 175.8705,15.687 C175.999501,15.7590004 176.138999,15.8369996 176.289,15.921 C176.439001,16.0050004 176.614499,16.0829996 176.8155,16.155 C177.016501,16.2270004 177.269998,16.263 177.576,16.263 C177.792001,16.263 177.974999,16.2405002 178.125,16.1955 C178.275001,16.1504998 178.395,16.0890004 178.485,16.011 C178.575,15.9329996 178.641,15.8460005 178.683,15.75 C178.725,15.6539995 178.746,15.5550005 178.746,15.453 C178.746,15.2669991 178.683001,15.1140006 178.557,14.994 C178.430999,14.8739994 178.266001,14.7705004 178.062,14.6835 C177.857999,14.5964996 177.625501,14.5155004 177.3645,14.4405 C177.103499,14.3654996 176.838001,14.2800005 176.568,14.184 C176.297999,14.0879995 176.032501,13.9725007 175.7715,13.8375 C175.510499,13.7024993 175.278001,13.531501 175.074,13.3245 C174.869999,13.117499 174.705001,12.8640015 174.579,12.564 C174.452999,12.2639985 174.39,11.9010021 174.39,11.475 C174.39,11.078998 174.466499,10.7025018 174.6195,10.3455 C174.772501,9.98849821 175.001998,9.67500135 175.308,9.405 C175.614002,9.13499865 175.997998,8.92050079 176.46,8.7615 C176.922002,8.6024992 177.461997,8.523 178.08,8.523 C178.416002,8.523 178.741498,8.5529997 179.0565,8.613 C179.371502,8.6730003 179.666999,8.75699946 179.943,8.865 C180.219001,8.97300054 180.470999,9.10049926 180.699,9.2475 C180.927001,9.39450073 181.127999,9.55499913 181.302,9.729 L180.672,10.71 Z M186.36,18 L186.36,4.887 L191.184,4.887 C192.090005,4.887 192.860997,4.97099916 193.497,5.139 C194.133003,5.30700084 194.651998,5.54399847 195.054,5.85 C195.456002,6.15600153 195.748499,6.52799781 195.9315,6.966 C196.114501,7.40400219 196.206,7.8929973 196.206,8.433 C196.206,8.72700147 196.164,9.01049863 196.08,9.2835 C195.996,9.55650137 195.864001,9.8129988 195.684,10.053 C195.503999,10.2930012 195.273001,10.510499 194.991,10.7055 C194.708999,10.900501 194.370002,11.0699993 193.974,11.214 C194.838004,11.4240011 195.476998,11.7644976 195.891,12.2355 C196.305002,12.7065024 196.512,13.3109963 196.512,14.049 C196.512,14.6070028 196.404001,15.1259976 196.188,15.606 C195.971999,16.0860024 195.655502,16.5044982 195.2385,16.8615 C194.821498,17.2185018 194.307003,17.497499 193.695,17.6985 C193.082997,17.899501 192.384004,18 191.598,18 L186.36,18 Z M189.402,12.438 L189.402,15.705 L191.544,15.705 C191.946002,15.705 192.274499,15.6540005 192.5295,15.552 C192.784501,15.4499995 192.983999,15.3180008 193.128,15.156 C193.272001,14.9939992 193.371,14.811001 193.425,14.607 C193.479,14.402999 193.506,14.196001 193.506,13.986 C193.506,13.7459988 193.4745,13.530001 193.4115,13.338 C193.3485,13.145999 193.240501,12.9840007 193.0875,12.852 C192.934499,12.7199993 192.732001,12.6180004 192.48,12.546 C192.227999,12.4739996 191.910002,12.438 191.526,12.438 L189.402,12.438 Z M189.402,10.404 L190.986,10.404 C191.322002,10.404 191.624999,10.3800002 191.895,10.332 C192.165001,10.2839998 192.394499,10.2000006 192.5835,10.08 C192.772501,9.9599994 192.9165,9.79500105 193.0155,9.585 C193.1145,9.37499895 193.164,9.11100159 193.164,8.793 C193.164,8.48099844 193.125,8.22150103 193.047,8.0145 C192.969,7.80749896 192.849001,7.64100063 192.687,7.515 C192.524999,7.38899937 192.319501,7.29900027 192.0705,7.245 C191.821499,7.19099973 191.526002,7.164 191.184,7.164 L189.402,7.164 L189.402,10.404 Z M204.612,18 C204.347999,18 204.148501,17.9640004 204.0135,17.892 C203.878499,17.8199996 203.766,17.6700011 203.676,17.442 L203.478,16.929 C203.243999,17.127001 203.019001,17.3009992 202.803,17.451 C202.586999,17.6010007 202.363501,17.7284995 202.1325,17.8335 C201.901499,17.9385005 201.655501,18.0164997 201.3945,18.0675 C201.133499,18.1185003 200.844002,18.144 200.526,18.144 C200.099998,18.144 199.713002,18.0885006 199.365,17.9775 C199.016998,17.8664994 198.721501,17.7030011 198.4785,17.487 C198.235499,17.2709989 198.048001,17.0025016 197.916,16.6815 C197.783999,16.3604984 197.718,15.9900021 197.718,15.57 C197.718,15.2399983 197.801999,14.9010017 197.97,14.553 C198.138001,14.2049983 198.428998,13.8885014 198.843,13.6035 C199.257002,13.3184986 199.814996,13.080001 200.517,12.888 C201.219004,12.695999 202.103995,12.5880001 203.172,12.564 L203.172,12.168 C203.172,11.6219973 203.059501,11.2275012 202.8345,10.9845 C202.609499,10.7414988 202.290002,10.62 201.876,10.62 C201.545998,10.62 201.276001,10.6559996 201.066,10.728 C200.855999,10.8000004 200.668501,10.8809995 200.5035,10.971 C200.338499,11.0610004 200.178001,11.1419996 200.022,11.214 C199.865999,11.2860004 199.680001,11.322 199.464,11.322 C199.271999,11.322 199.108501,11.2755005 198.9735,11.1825 C198.838499,11.0894995 198.732,10.9740007 198.654,10.836 L198.15,9.963 C198.714003,9.46499751 199.339497,9.09450121 200.0265,8.8515 C200.713503,8.60849878 201.449996,8.487 202.236,8.487 C202.800003,8.487 203.308498,8.57849908 203.7615,8.7615 C204.214502,8.94450091 204.598498,9.19949836 204.9135,9.5265 C205.228502,9.85350163 205.469999,10.2419977 205.638,10.692 C205.806001,11.1420022 205.89,11.6339973 205.89,12.168 L205.89,18 L204.612,18 Z M201.408,16.299 C201.768002,16.299 202.082999,16.2360006 202.353,16.11 C202.623001,15.9839994 202.895999,15.7800014 203.172,15.498 L203.172,14.202 C202.613997,14.2260001 202.155002,14.2739996 201.795,14.346 C201.434998,14.4180004 201.150001,14.5079995 200.94,14.616 C200.729999,14.7240005 200.5845,14.8469993 200.5035,14.985 C200.4225,15.1230007 200.382,15.2729992 200.382,15.435 C200.382,15.7530016 200.468999,15.9764994 200.643,16.1055 C200.817001,16.2345006 201.071998,16.299 201.408,16.299 L201.408,16.299 Z M211.326,20.421 C211.242,20.6070009 211.140001,20.7434996 211.02,20.8305 C210.899999,20.9175004 210.708001,20.961 210.444,20.961 L208.356,20.961 L210.156,17.181 L206.43,8.667 L208.896,8.667 C209.112001,8.667 209.279999,8.71499952 209.4,8.811 C209.520001,8.90700048 209.604,9.02099934 209.652,9.153 L211.182,13.176 C211.326001,13.5480019 211.443,13.9199981 211.533,14.292 C211.593,14.099999 211.659,13.9110009 211.731,13.725 C211.803,13.5389991 211.872,13.350001 211.938,13.158 L213.324,9.153 C213.372,9.01499931 213.466499,8.89950046 213.6075,8.8065 C213.748501,8.71349953 213.899999,8.667 214.062,8.667 L216.312,8.667 L211.326,20.421 Z M70.602,26.887 L70.602,29.299 L66.912,29.299 L66.912,40 L63.87,40 L63.87,29.299 L60.18,29.299 L60.18,26.887 L70.602,26.887 Z M70.422,40 L70.422,30.667 L72.078,30.667 C72.2160007,30.667 72.3314995,30.6789999 72.4245,30.703 C72.5175005,30.7270001 72.5954997,30.7644997 72.6585,30.8155 C72.7215003,30.8665003 72.7694998,30.9339996 72.8025,31.018 C72.8355002,31.1020004 72.8639999,31.2039994 72.888,31.324 L73.041,32.197 C73.3830017,31.6689974 73.7669979,31.2520015 74.193,30.946 C74.6190021,30.6399985 75.0839975,30.487 75.588,30.487 C76.0140021,30.487 76.3559987,30.588999 76.614,30.793 L76.254,32.845 C76.2299999,32.9710006 76.1820004,33.0594997 76.11,33.1105 C76.0379996,33.1615003 75.9420006,33.187 75.822,33.187 C75.7199995,33.187 75.6000007,33.1735001 75.462,33.1465 C75.3239993,33.1194999 75.1500011,33.106 74.94,33.106 C74.2079963,33.106 73.6320021,33.4959961 73.212,34.276 L73.212,40 L70.422,40 Z M84.12,40 C83.8559987,40 83.6565007,39.9640004 83.5215,39.892 C83.3864993,39.8199996 83.2740005,39.6700011 83.184,39.442 L82.986,38.929 C82.7519988,39.127001 82.5270011,39.3009992 82.311,39.451 C82.0949989,39.6010007 81.8715012,39.7284995 81.6405,39.8335 C81.4094988,39.9385005 81.1635013,40.0164997 80.9025,40.0675 C80.6414987,40.1185003 80.3520016,40.144 80.034,40.144 C79.6079979,40.144 79.2210017,40.0885006 78.873,39.9775 C78.5249983,39.8664994 78.2295012,39.7030011 77.9865,39.487 C77.7434988,39.2709989 77.5560007,39.0025016 77.424,38.6815 C77.2919993,38.3604984 77.226,37.9900021 77.226,37.57 C77.226,37.2399983 77.3099992,36.9010017 77.478,36.553 C77.6460008,36.2049983 77.9369979,35.8885014 78.351,35.6035 C78.7650021,35.3184986 79.3229965,35.080001 80.025,34.888 C80.7270035,34.695999 81.6119947,34.5880001 82.68,34.564 L82.68,34.168 C82.68,33.6219973 82.5675011,33.2275012 82.3425,32.9845 C82.1174989,32.7414988 81.7980021,32.62 81.384,32.62 C81.0539984,32.62 80.7840011,32.6559996 80.574,32.728 C80.363999,32.8000004 80.1765008,32.8809995 80.0115,32.971 C79.8464992,33.0610004 79.6860008,33.1419996 79.53,33.214 C79.3739992,33.2860004 79.1880011,33.322 78.972,33.322 C78.779999,33.322 78.6165007,33.2755005 78.4815,33.1825 C78.3464993,33.0894995 78.2400004,32.9740007 78.162,32.836 L77.658,31.963 C78.2220028,31.4649975 78.8474966,31.0945012 79.5345,30.8515 C80.2215034,30.6084988 80.9579961,30.487 81.744,30.487 C82.3080028,30.487 82.8164977,30.5784991 83.2695,30.7615 C83.7225023,30.9445009 84.1064984,31.1994984 84.4215,31.5265 C84.7365016,31.8535016 84.9779992,32.2419977 85.146,32.692 C85.3140008,33.1420022 85.398,33.6339973 85.398,34.168 L85.398,40 L84.12,40 Z M80.916,38.299 C81.2760018,38.299 81.5909987,38.2360006 81.861,38.11 C82.1310014,37.9839994 82.4039986,37.7800014 82.68,37.498 L82.68,36.202 C82.1219972,36.2260001 81.6630018,36.2739996 81.303,36.346 C80.9429982,36.4180004 80.6580011,36.5079995 80.448,36.616 C80.237999,36.7240005 80.0925004,36.8469993 80.0115,36.985 C79.9304996,37.1230007 79.89,37.2729992 79.89,37.435 C79.89,37.7530016 79.9769991,37.9764994 80.151,38.1055 C80.3250009,38.2345006 80.5799983,38.299 80.916,38.299 L80.916,38.299 Z M87.378,40 L87.378,30.667 L89.106,30.667 C89.2800009,30.667 89.4254994,30.7059996 89.5425,30.784 C89.6595006,30.8620004 89.7419998,30.9789992 89.79,31.135 L89.952,31.675 C90.1320009,31.5069992 90.317999,31.3510007 90.51,31.207 C90.702001,31.0629993 90.9074989,30.9415005 91.1265,30.8425 C91.3455011,30.7434995 91.5824987,30.6655003 91.8375,30.6085 C92.0925013,30.5514997 92.3699985,30.523 92.67,30.523 C93.1800026,30.523 93.631498,30.6114991 94.0245,30.7885 C94.417502,30.9655009 94.7489987,31.2114984 95.019,31.5265 C95.2890014,31.8415016 95.4929993,32.2164978 95.631,32.6515 C95.7690007,33.0865022 95.838,33.5589974 95.838,34.069 L95.838,40 L93.048,40 L93.048,34.069 C93.048,33.6129977 92.9430011,33.2575013 92.733,33.0025 C92.522999,32.7474987 92.214002,32.62 91.806,32.62 C91.4999985,32.62 91.2120014,32.6859993 90.942,32.818 C90.6719987,32.9500007 90.4140012,33.1269989 90.168,33.349 L90.168,40 L87.378,40 Z M103.524,32.71 C103.452,32.8240006 103.3755,32.9049998 103.2945,32.953 C103.2135,33.0010002 103.110001,33.025 102.984,33.025 C102.851999,33.025 102.720001,32.9965003 102.588,32.9395 C102.455999,32.8824997 102.313501,32.8210003 102.1605,32.755 C102.007499,32.6889997 101.835001,32.6275003 101.643,32.5705 C101.450999,32.5134997 101.232001,32.485 100.986,32.485 C100.631998,32.485 100.360501,32.5524993 100.1715,32.6875 C99.9824991,32.8225007 99.888,33.0099988 99.888,33.25 C99.888,33.4240009 99.9494994,33.5679994 100.0725,33.682 C100.195501,33.7960006 100.358999,33.8964996 100.563,33.9835 C100.767001,34.0705004 100.997999,34.1529996 101.256,34.231 C101.514001,34.3090004 101.777999,34.3959995 102.048,34.492 C102.318001,34.5880005 102.581999,34.7004994 102.84,34.8295 C103.098001,34.9585006 103.328999,35.1174991 103.533,35.3065 C103.737001,35.4955009 103.900499,35.7249986 104.0235,35.995 C104.146501,36.2650013 104.208,36.5889981 104.208,36.967 C104.208,37.4290023 104.124001,37.854998 103.956,38.245 C103.787999,38.6350019 103.537502,38.9709986 103.2045,39.253 C102.871498,39.5350014 102.460502,39.7539992 101.9715,39.91 C101.482498,40.0660008 100.920003,40.144 100.284,40.144 C99.9659984,40.144 99.6480016,40.1140003 99.33,40.054 C99.0119984,39.9939997 98.7045015,39.9130005 98.4075,39.811 C98.1104985,39.7089995 97.8360013,39.5875007 97.584,39.4465 C97.3319987,39.3054993 97.1160009,39.1540008 96.936,38.992 L97.584,37.966 C97.6620004,37.8459994 97.7549995,37.7515003 97.863,37.6825 C97.9710005,37.6134997 98.1119991,37.579 98.286,37.579 C98.4480008,37.579 98.5934994,37.6149996 98.7225,37.687 C98.8515006,37.7590004 98.9909993,37.8369996 99.141,37.921 C99.2910008,38.0050004 99.466499,38.0829996 99.6675,38.155 C99.868501,38.2270004 100.121998,38.263 100.428,38.263 C100.644001,38.263 100.826999,38.2405002 100.977,38.1955 C101.127001,38.1504998 101.247,38.0890004 101.337,38.011 C101.427,37.9329996 101.493,37.8460005 101.535,37.75 C101.577,37.6539995 101.598,37.5550005 101.598,37.453 C101.598,37.2669991 101.535001,37.1140006 101.409,36.994 C101.282999,36.8739994 101.118001,36.7705004 100.914,36.6835 C100.709999,36.5964996 100.477501,36.5155004 100.2165,36.4405 C99.9554987,36.3654996 99.6900014,36.2800005 99.42,36.184 C99.1499987,36.0879995 98.8845013,35.9725007 98.6235,35.8375 C98.3624987,35.7024993 98.130001,35.531501 97.926,35.3245 C97.721999,35.117499 97.5570006,34.8640015 97.431,34.564 C97.3049994,34.2639985 97.242,33.9010021 97.242,33.475 C97.242,33.078998 97.3184992,32.7025018 97.4715,32.3455 C97.6245008,31.9884982 97.8539985,31.6750013 98.16,31.405 C98.4660015,31.1349986 98.8499977,30.9205008 99.312,30.7615 C99.7740023,30.6024992 100.313997,30.523 100.932,30.523 C101.268002,30.523 101.593498,30.5529997 101.9085,30.613 C102.223502,30.6730003 102.518999,30.7569995 102.795,30.865 C103.071001,30.9730005 103.322999,31.1004993 103.551,31.2475 C103.779001,31.3945007 103.979999,31.5549991 104.154,31.729 L103.524,32.71 Z M105.738,42.961 L105.738,30.667 L107.466,30.667 C107.640001,30.667 107.785499,30.7059996 107.9025,30.784 C108.019501,30.8620004 108.102,30.9789992 108.15,31.135 L108.357,31.819 C108.537001,31.620999 108.730499,31.4410008 108.9375,31.279 C109.144501,31.1169992 109.366499,30.9775006 109.6035,30.8605 C109.840501,30.7434994 110.095499,30.6520003 110.3685,30.586 C110.641501,30.5199997 110.939998,30.487 111.264,30.487 C111.750002,30.487 112.199998,30.5949989 112.614,30.811 C113.028002,31.0270011 113.384999,31.338998 113.685,31.747 C113.985002,32.155002 114.220499,32.654497 114.3915,33.2455 C114.562501,33.836503 114.648,34.5069962 114.648,35.257 C114.648,35.9590035 114.550501,36.606997 114.3555,37.201 C114.160499,37.795003 113.887502,38.3109978 113.5365,38.749 C113.185498,39.1870022 112.765502,39.5289988 112.2765,39.775 C111.787498,40.0210012 111.246003,40.144 110.652,40.144 C110.165998,40.144 109.758002,40.0750007 109.428,39.937 C109.097998,39.7989993 108.798001,39.6130012 108.528,39.379 L108.528,42.961 L105.738,42.961 Z M110.292,32.62 C110.087999,32.62 109.903501,32.6394998 109.7385,32.6785 C109.573499,32.7175002 109.420501,32.7729996 109.2795,32.845 C109.138499,32.9170004 109.008001,33.0084994 108.888,33.1195 C108.767999,33.2305006 108.648001,33.3579993 108.528,33.502 L108.528,37.462 C108.738001,37.6960012 108.965999,37.8594995 109.212,37.9525 C109.458001,38.0455005 109.715999,38.092 109.986,38.092 C110.244001,38.092 110.480999,38.0410005 110.697,37.939 C110.913001,37.8369995 111.100499,37.6735011 111.2595,37.4485 C111.418501,37.2234989 111.543,36.9310018 111.633,36.571 C111.723,36.2109982 111.768,35.7730026 111.768,35.257 C111.768,34.7649975 111.732,34.3510017 111.66,34.015 C111.588,33.6789983 111.487501,33.407501 111.3585,33.2005 C111.229499,32.993499 111.075001,32.8450004 110.895,32.755 C110.714999,32.6649995 110.514001,32.62 110.292,32.62 L110.292,32.62 Z M120.3,30.523 C121.008004,30.523 121.652997,30.6339989 122.235,30.856 C122.817003,31.0780011 123.316498,31.3959979 123.7335,31.81 C124.150502,32.2240021 124.474499,32.726497 124.7055,33.3175 C124.936501,33.908503 125.052,34.5729963 125.052,35.311 C125.052,36.0550037 124.936501,36.725497 124.7055,37.3225 C124.474499,37.919503 124.150502,38.4264979 123.7335,38.8435 C123.316498,39.2605021 122.817003,39.5814989 122.235,39.8065 C121.652997,40.0315011 121.008004,40.144 120.3,40.144 C119.585996,40.144 118.936503,40.0315011 118.3515,39.8065 C117.766497,39.5814989 117.262502,39.2605021 116.8395,38.8435 C116.416498,38.4264979 116.089501,37.919503 115.8585,37.3225 C115.627499,36.725497 115.512,36.0550037 115.512,35.311 C115.512,34.5729963 115.627499,33.908503 115.8585,33.3175 C116.089501,32.726497 116.416498,32.2240021 116.8395,31.81 C117.262502,31.3959979 117.766497,31.0780011 118.3515,30.856 C118.936503,30.6339989 119.585996,30.523 120.3,30.523 L120.3,30.523 Z M120.3,38.074 C120.942003,38.074 121.414498,37.8475023 121.7175,37.3945 C122.020502,36.9414977 122.172,36.2530046 122.172,35.329 C122.172,34.4049954 122.020502,33.7180022 121.7175,33.268 C121.414498,32.8179977 120.942003,32.593 120.3,32.593 C119.639997,32.593 119.157002,32.8179977 118.851,33.268 C118.544998,33.7180022 118.392,34.4049954 118.392,35.329 C118.392,36.2530046 118.544998,36.9414977 118.851,37.3945 C119.157002,37.8475023 119.639997,38.074 120.3,38.074 L120.3,38.074 Z M126.582,40 L126.582,30.667 L128.238,30.667 C128.376001,30.667 128.4915,30.6789999 128.5845,30.703 C128.6775,30.7270001 128.7555,30.7644997 128.8185,30.8155 C128.8815,30.8665003 128.9295,30.9339996 128.9625,31.018 C128.9955,31.1020004 129.024,31.2039994 129.048,31.324 L129.201,32.197 C129.543002,31.6689974 129.926998,31.2520015 130.353,30.946 C130.779002,30.6399985 131.243997,30.487 131.748,30.487 C132.174002,30.487 132.515999,30.588999 132.774,30.793 L132.414,32.845 C132.39,32.9710006 132.342,33.0594997 132.27,33.1105 C132.198,33.1615003 132.102001,33.187 131.982,33.187 C131.879999,33.187 131.760001,33.1735001 131.622,33.1465 C131.483999,33.1194999 131.310001,33.106 131.1,33.106 C130.367996,33.106 129.792002,33.4959961 129.372,34.276 L129.372,40 L126.582,40 Z M137.292,40.144 C136.847998,40.144 136.456502,40.0795006 136.1175,39.9505 C135.778498,39.8214994 135.493501,39.6385012 135.2625,39.4015 C135.031499,39.1644988 134.856001,38.8780017 134.736,38.542 C134.615999,38.2059983 134.556,37.8310021 134.556,37.417 L134.556,32.593 L133.764,32.593 C133.619999,32.593 133.497001,32.5465005 133.395,32.4535 C133.292999,32.3604995 133.242,32.2240009 133.242,32.044 L133.242,30.955 L134.727,30.667 L135.276,28.39 C135.348,28.1019986 135.551998,27.958 135.888,27.958 L137.346,27.958 L137.346,30.685 L139.614,30.685 L139.614,32.593 L137.346,32.593 L137.346,37.228 C137.346,37.4440011 137.398499,37.6224993 137.5035,37.7635 C137.608501,37.9045007 137.759999,37.975 137.958,37.975 C138.060001,37.975 138.1455,37.9645001 138.2145,37.9435 C138.2835,37.9224999 138.3435,37.8985001 138.3945,37.8715 C138.4455,37.8444999 138.4935,37.8205001 138.5385,37.7995 C138.5835,37.7784999 138.636,37.768 138.696,37.768 C138.78,37.768 138.8475,37.7874998 138.8985,37.8265 C138.9495,37.8655002 139.002,37.9269996 139.056,38.011 L139.902,39.334 C139.541998,39.6040013 139.137002,39.8064993 138.687,39.9415 C138.236998,40.0765007 137.772002,40.144 137.292,40.144 L137.292,40.144 Z M147.66,40 C147.395999,40 147.196501,39.9640004 147.0615,39.892 C146.926499,39.8199996 146.814,39.6700011 146.724,39.442 L146.526,38.929 C146.291999,39.127001 146.067001,39.3009992 145.851,39.451 C145.634999,39.6010007 145.411501,39.7284995 145.1805,39.8335 C144.949499,39.9385005 144.703501,40.0164997 144.4425,40.0675 C144.181499,40.1185003 143.892002,40.144 143.574,40.144 C143.147998,40.144 142.761002,40.0885006 142.413,39.9775 C142.064998,39.8664994 141.769501,39.7030011 141.5265,39.487 C141.283499,39.2709989 141.096001,39.0025016 140.964,38.6815 C140.831999,38.3604984 140.766,37.9900021 140.766,37.57 C140.766,37.2399983 140.849999,36.9010017 141.018,36.553 C141.186001,36.2049983 141.476998,35.8885014 141.891,35.6035 C142.305002,35.3184986 142.862996,35.080001 143.565,34.888 C144.267004,34.695999 145.151995,34.5880001 146.22,34.564 L146.22,34.168 C146.22,33.6219973 146.107501,33.2275012 145.8825,32.9845 C145.657499,32.7414988 145.338002,32.62 144.924,32.62 C144.593998,32.62 144.324001,32.6559996 144.114,32.728 C143.903999,32.8000004 143.716501,32.8809995 143.5515,32.971 C143.386499,33.0610004 143.226001,33.1419996 143.07,33.214 C142.913999,33.2860004 142.728001,33.322 142.512,33.322 C142.319999,33.322 142.156501,33.2755005 142.0215,33.1825 C141.886499,33.0894995 141.78,32.9740007 141.702,32.836 L141.198,31.963 C141.762003,31.4649975 142.387497,31.0945012 143.0745,30.8515 C143.761503,30.6084988 144.497996,30.487 145.284,30.487 C145.848003,30.487 146.356498,30.5784991 146.8095,30.7615 C147.262502,30.9445009 147.646498,31.1994984 147.9615,31.5265 C148.276502,31.8535016 148.517999,32.2419977 148.686,32.692 C148.854001,33.1420022 148.938,33.6339973 148.938,34.168 L148.938,40 L147.66,40 Z M144.456,38.299 C144.816002,38.299 145.130999,38.2360006 145.401,38.11 C145.671001,37.9839994 145.943999,37.7800014 146.22,37.498 L146.22,36.202 C145.661997,36.2260001 145.203002,36.2739996 144.843,36.346 C144.482998,36.4180004 144.198001,36.5079995 143.988,36.616 C143.777999,36.7240005 143.6325,36.8469993 143.5515,36.985 C143.4705,37.1230007 143.43,37.2729992 143.43,37.435 C143.43,37.7530016 143.516999,37.9764994 143.691,38.1055 C143.865001,38.2345006 144.119998,38.299 144.456,38.299 L144.456,38.299 Z M154.194,40.144 C153.749998,40.144 153.358502,40.0795006 153.0195,39.9505 C152.680498,39.8214994 152.395501,39.6385012 152.1645,39.4015 C151.933499,39.1644988 151.758001,38.8780017 151.638,38.542 C151.517999,38.2059983 151.458,37.8310021 151.458,37.417 L151.458,32.593 L150.666,32.593 C150.521999,32.593 150.399001,32.5465005 150.297,32.4535 C150.194999,32.3604995 150.144,32.2240009 150.144,32.044 L150.144,30.955 L151.629,30.667 L152.178,28.39 C152.25,28.1019986 152.453998,27.958 152.79,27.958 L154.248,27.958 L154.248,30.685 L156.516,30.685 L156.516,32.593 L154.248,32.593 L154.248,37.228 C154.248,37.4440011 154.300499,37.6224993 154.4055,37.7635 C154.510501,37.9045007 154.661999,37.975 154.86,37.975 C154.962001,37.975 155.0475,37.9645001 155.1165,37.9435 C155.1855,37.9224999 155.2455,37.8985001 155.2965,37.8715 C155.3475,37.8444999 155.3955,37.8205001 155.4405,37.7995 C155.4855,37.7784999 155.538,37.768 155.598,37.768 C155.682,37.768 155.7495,37.7874998 155.8005,37.8265 C155.8515,37.8655002 155.904,37.9269996 155.958,38.011 L156.804,39.334 C156.443998,39.6040013 156.039002,39.8064993 155.589,39.9415 C155.138998,40.0765007 154.674002,40.144 154.194,40.144 L154.194,40.144 Z M160.998,30.667 L160.998,40 L158.208,40 L158.208,30.667 L160.998,30.667 Z M161.322,28.111 C161.322,28.3330011 161.277,28.541499 161.187,28.7365 C161.097,28.931501 160.974001,29.1024993 160.818,29.2495 C160.661999,29.3965007 160.480501,29.5134996 160.2735,29.6005 C160.066499,29.6875004 159.846001,29.731 159.612,29.731 C159.383999,29.731 159.171001,29.6875004 158.973,29.6005 C158.774999,29.5134996 158.599501,29.3965007 158.4465,29.2495 C158.293499,29.1024993 158.1735,28.931501 158.0865,28.7365 C157.9995,28.541499 157.956,28.3330011 157.956,28.111 C157.956,27.8829989 157.9995,27.670001 158.0865,27.472 C158.1735,27.273999 158.293499,27.1000007 158.4465,26.95 C158.599501,26.7999992 158.774999,26.6830004 158.973,26.599 C159.171001,26.5149996 159.383999,26.473 159.612,26.473 C159.846001,26.473 160.066499,26.5149996 160.2735,26.599 C160.480501,26.6830004 160.661999,26.7999992 160.818,26.95 C160.974001,27.1000007 161.097,27.273999 161.187,27.472 C161.277,27.670001 161.322,27.8829989 161.322,28.111 L161.322,28.111 Z M167.406,30.523 C168.114004,30.523 168.758997,30.6339989 169.341,30.856 C169.923003,31.0780011 170.422498,31.3959979 170.8395,31.81 C171.256502,32.2240021 171.580499,32.726497 171.8115,33.3175 C172.042501,33.908503 172.158,34.5729963 172.158,35.311 C172.158,36.0550037 172.042501,36.725497 171.8115,37.3225 C171.580499,37.919503 171.256502,38.4264979 170.8395,38.8435 C170.422498,39.2605021 169.923003,39.5814989 169.341,39.8065 C168.758997,40.0315011 168.114004,40.144 167.406,40.144 C166.691996,40.144 166.042503,40.0315011 165.4575,39.8065 C164.872497,39.5814989 164.368502,39.2605021 163.9455,38.8435 C163.522498,38.4264979 163.195501,37.919503 162.9645,37.3225 C162.733499,36.725497 162.618,36.0550037 162.618,35.311 C162.618,34.5729963 162.733499,33.908503 162.9645,33.3175 C163.195501,32.726497 163.522498,32.2240021 163.9455,31.81 C164.368502,31.3959979 164.872497,31.0780011 165.4575,30.856 C166.042503,30.6339989 166.691996,30.523 167.406,30.523 L167.406,30.523 Z M167.406,38.074 C168.048003,38.074 168.520498,37.8475023 168.8235,37.3945 C169.126502,36.9414977 169.278,36.2530046 169.278,35.329 C169.278,34.4049954 169.126502,33.7180022 168.8235,33.268 C168.520498,32.8179977 168.048003,32.593 167.406,32.593 C166.745997,32.593 166.263002,32.8179977 165.957,33.268 C165.650998,33.7180022 165.498,34.4049954 165.498,35.329 C165.498,36.2530046 165.650998,36.9414977 165.957,37.3945 C166.263002,37.8475023 166.745997,38.074 167.406,38.074 L167.406,38.074 Z M173.688,40 L173.688,30.667 L175.416,30.667 C175.590001,30.667 175.735499,30.7059996 175.8525,30.784 C175.969501,30.8620004 176.052,30.9789992 176.1,31.135 L176.262,31.675 C176.442001,31.5069992 176.627999,31.3510007 176.82,31.207 C177.012001,31.0629993 177.217499,30.9415005 177.4365,30.8425 C177.655501,30.7434995 177.892499,30.6655003 178.1475,30.6085 C178.402501,30.5514997 178.679999,30.523 178.98,30.523 C179.490003,30.523 179.941498,30.6114991 180.3345,30.7885 C180.727502,30.9655009 181.058999,31.2114984 181.329,31.5265 C181.599001,31.8415016 181.802999,32.2164978 181.941,32.6515 C182.079001,33.0865022 182.148,33.5589974 182.148,34.069 L182.148,40 L179.358,40 L179.358,34.069 C179.358,33.6129977 179.253001,33.2575013 179.043,33.0025 C178.832999,32.7474987 178.524002,32.62 178.116,32.62 C177.809998,32.62 177.522001,32.6859993 177.252,32.818 C176.981999,32.9500007 176.724001,33.1269989 176.478,33.349 L176.478,40 L173.688,40 Z M199.806,40 L197.448,40 C197.183999,40 196.966501,39.9385006 196.7955,39.8155 C196.624499,39.6924994 196.506,39.535001 196.44,39.343 L195.666,37.057 L190.68,37.057 L189.906,39.343 C189.846,39.5110008 189.729001,39.6624993 189.555,39.7975 C189.380999,39.9325007 189.168001,40 188.916,40 L186.54,40 L191.616,26.887 L194.73,26.887 L199.806,40 Z M191.382,34.987 L194.964,34.987 L193.758,31.396 C193.68,31.1679989 193.588501,30.8995015 193.4835,30.5905 C193.378499,30.2814985 193.275001,29.9470018 193.173,29.587 C193.077,29.9530018 192.978001,30.2919984 192.876,30.604 C192.773999,30.9160016 192.678,31.1859989 192.588,31.414 L191.382,34.987 Z M203.478,30.667 L203.478,36.589 C203.478,37.0510023 203.582999,37.4079987 203.793,37.66 C204.003001,37.9120013 204.311998,38.038 204.72,38.038 C205.026002,38.038 205.312499,37.9750006 205.5795,37.849 C205.846501,37.7229994 206.105999,37.5460011 206.358,37.318 L206.358,30.667 L209.148,30.667 L209.148,40 L207.42,40 C207.071998,40 206.844001,39.8440016 206.736,39.532 L206.565,38.992 C206.384999,39.1660009 206.199001,39.3234993 206.007,39.4645 C205.814999,39.6055007 205.609501,39.7254995 205.3905,39.8245 C205.171499,39.9235005 204.936001,40.0014997 204.684,40.0585 C204.431999,40.1155003 204.156002,40.144 203.856,40.144 C203.345997,40.144 202.894502,40.0555009 202.5015,39.8785 C202.108498,39.7014991 201.777001,39.4540016 201.507,39.136 C201.236999,38.8179984 201.033001,38.4430022 200.895,38.011 C200.756999,37.5789978 200.688,37.1050026 200.688,36.589 L200.688,30.667 L203.478,30.667 Z M214.584,40.144 C214.139998,40.144 213.748502,40.0795006 213.4095,39.9505 C213.070498,39.8214994 212.785501,39.6385012 212.5545,39.4015 C212.323499,39.1644988 212.148001,38.8780017 212.028,38.542 C211.907999,38.2059983 211.848,37.8310021 211.848,37.417 L211.848,32.593 L211.056,32.593 C210.911999,32.593 210.789001,32.5465005 210.687,32.4535 C210.584999,32.3604995 210.534,32.2240009 210.534,32.044 L210.534,30.955 L212.019,30.667 L212.568,28.39 C212.64,28.1019986 212.843998,27.958 213.18,27.958 L214.638,27.958 L214.638,30.685 L216.906,30.685 L216.906,32.593 L214.638,32.593 L214.638,37.228 C214.638,37.4440011 214.690499,37.6224993 214.7955,37.7635 C214.900501,37.9045007 215.051999,37.975 215.25,37.975 C215.352001,37.975 215.4375,37.9645001 215.5065,37.9435 C215.5755,37.9224999 215.6355,37.8985001 215.6865,37.8715 C215.7375,37.8444999 215.7855,37.8205001 215.8305,37.7995 C215.8755,37.7784999 215.928,37.768 215.988,37.768 C216.072,37.768 216.1395,37.7874998 216.1905,37.8265 C216.2415,37.8655002 216.294,37.9269996 216.348,38.011 L217.194,39.334 C216.833998,39.6040013 216.429002,39.8064993 215.979,39.9415 C215.528998,40.0765007 215.064002,40.144 214.584,40.144 L214.584,40.144 Z M218.508,40 L218.508,26.527 L221.298,26.527 L221.298,31.486 C221.634002,31.1979986 221.998498,30.9655009 222.3915,30.7885 C222.784502,30.6114991 223.253997,30.523 223.8,30.523 C224.310003,30.523 224.761498,30.6114991 225.1545,30.7885 C225.547502,30.9655009 225.878999,31.2114984 226.149,31.5265 C226.419001,31.8415016 226.622999,32.2164978 226.761,32.6515 C226.899001,33.0865022 226.968,33.5589974 226.968,34.069 L226.968,40 L224.178,40 L224.178,34.069 C224.178,33.6129977 224.073001,33.2575013 223.863,33.0025 C223.652999,32.7474987 223.344002,32.62 222.936,32.62 C222.629998,32.62 222.342001,32.6859993 222.072,32.818 C221.801999,32.9500007 221.544001,33.1269989 221.298,33.349 L221.298,40 L218.508,40 Z M233.106,30.523 C233.814004,30.523 234.458997,30.6339989 235.041,30.856 C235.623003,31.0780011 236.122498,31.3959979 236.5395,31.81 C236.956502,32.2240021 237.280499,32.726497 237.5115,33.3175 C237.742501,33.908503 237.858,34.5729963 237.858,35.311 C237.858,36.0550037 237.742501,36.725497 237.5115,37.3225 C237.280499,37.919503 236.956502,38.4264979 236.5395,38.8435 C236.122498,39.2605021 235.623003,39.5814989 235.041,39.8065 C234.458997,40.0315011 233.814004,40.144 233.106,40.144 C232.391996,40.144 231.742503,40.0315011 231.1575,39.8065 C230.572497,39.5814989 230.068502,39.2605021 229.6455,38.8435 C229.222498,38.4264979 228.895501,37.919503 228.6645,37.3225 C228.433499,36.725497 228.318,36.0550037 228.318,35.311 C228.318,34.5729963 228.433499,33.908503 228.6645,33.3175 C228.895501,32.726497 229.222498,32.2240021 229.6455,31.81 C230.068502,31.3959979 230.572497,31.0780011 231.1575,30.856 C231.742503,30.6339989 232.391996,30.523 233.106,30.523 L233.106,30.523 Z M233.106,38.074 C233.748003,38.074 234.220498,37.8475023 234.5235,37.3945 C234.826502,36.9414977 234.978,36.2530046 234.978,35.329 C234.978,34.4049954 234.826502,33.7180022 234.5235,33.268 C234.220498,32.8179977 233.748003,32.593 233.106,32.593 C232.445997,32.593 231.963002,32.8179977 231.657,33.268 C231.350998,33.7180022 231.198,34.4049954 231.198,35.329 C231.198,36.2530046 231.350998,36.9414977 231.657,37.3945 C231.963002,37.8475023 232.445997,38.074 233.106,38.074 L233.106,38.074 Z M239.388,40 L239.388,30.667 L241.044,30.667 C241.182001,30.667 241.2975,30.6789999 241.3905,30.703 C241.4835,30.7270001 241.5615,30.7644997 241.6245,30.8155 C241.6875,30.8665003 241.7355,30.9339996 241.7685,31.018 C241.8015,31.1020004 241.83,31.2039994 241.854,31.324 L242.007,32.197 C242.349002,31.6689974 242.732998,31.2520015 243.159,30.946 C243.585002,30.6399985 244.049997,30.487 244.554,30.487 C244.980002,30.487 245.321999,30.588999 245.58,30.793 L245.22,32.845 C245.196,32.9710006 245.148,33.0594997 245.076,33.1105 C245.004,33.1615003 244.908001,33.187 244.788,33.187 C244.685999,33.187 244.566001,33.1735001 244.428,33.1465 C244.289999,33.1194999 244.116001,33.106 243.906,33.106 C243.173996,33.106 242.598002,33.4959961 242.178,34.276 L242.178,40 L239.388,40 Z M249.702,30.667 L249.702,40 L246.912,40 L246.912,30.667 L249.702,30.667 Z M250.026,28.111 C250.026,28.3330011 249.981,28.541499 249.891,28.7365 C249.801,28.931501 249.678001,29.1024993 249.522,29.2495 C249.365999,29.3965007 249.184501,29.5134996 248.9775,29.6005 C248.770499,29.6875004 248.550001,29.731 248.316,29.731 C248.087999,29.731 247.875001,29.6875004 247.677,29.6005 C247.478999,29.5134996 247.303501,29.3965007 247.1505,29.2495 C246.997499,29.1024993 246.8775,28.931501 246.7905,28.7365 C246.7035,28.541499 246.66,28.3330011 246.66,28.111 C246.66,27.8829989 246.7035,27.670001 246.7905,27.472 C246.8775,27.273999 246.997499,27.1000007 247.1505,26.95 C247.303501,26.7999992 247.478999,26.6830004 247.677,26.599 C247.875001,26.5149996 248.087999,26.473 248.316,26.473 C248.550001,26.473 248.770499,26.5149996 248.9775,26.599 C249.184501,26.6830004 249.365999,26.7999992 249.522,26.95 C249.678001,27.1000007 249.801,27.273999 249.891,27.472 C249.981,27.670001 250.026,27.8829989 250.026,28.111 L250.026,28.111 Z M255.228,40.144 C254.783998,40.144 254.392502,40.0795006 254.0535,39.9505 C253.714498,39.8214994 253.429501,39.6385012 253.1985,39.4015 C252.967499,39.1644988 252.792001,38.8780017 252.672,38.542 C252.551999,38.2059983 252.492,37.8310021 252.492,37.417 L252.492,32.593 L251.7,32.593 C251.555999,32.593 251.433001,32.5465005 251.331,32.4535 C251.228999,32.3604995 251.178,32.2240009 251.178,32.044 L251.178,30.955 L252.663,30.667 L253.212,28.39 C253.284,28.1019986 253.487998,27.958 253.824,27.958 L255.282,27.958 L255.282,30.685 L257.55,30.685 L257.55,32.593 L255.282,32.593 L255.282,37.228 C255.282,37.4440011 255.334499,37.6224993 255.4395,37.7635 C255.544501,37.9045007 255.695999,37.975 255.894,37.975 C255.996001,37.975 256.0815,37.9645001 256.1505,37.9435 C256.2195,37.9224999 256.2795,37.8985001 256.3305,37.8715 C256.3815,37.8444999 256.4295,37.8205001 256.4745,37.7995 C256.5195,37.7784999 256.572,37.768 256.632,37.768 C256.716,37.768 256.7835,37.7874998 256.8345,37.8265 C256.8855,37.8655002 256.938,37.9269996 256.992,38.011 L257.838,39.334 C257.477998,39.6040013 257.073002,39.8064993 256.623,39.9415 C256.172998,40.0765007 255.708002,40.144 255.228,40.144 L255.228,40.144 Z M262.968,42.421 C262.884,42.6070009 262.782001,42.7434996 262.662,42.8305 C262.541999,42.9175004 262.350001,42.961 262.086,42.961 L259.998,42.961 L261.798,39.181 L258.072,30.667 L260.538,30.667 C260.754001,30.667 260.921999,30.7149995 261.042,30.811 C261.162001,30.9070005 261.246,31.0209993 261.294,31.153 L262.824,35.176 C262.968001,35.5480019 263.085,35.9199981 263.175,36.292 C263.235,36.099999 263.301,35.9110009 263.373,35.725 C263.445,35.5389991 263.514,35.350001 263.58,35.158 L264.966,31.153 C265.014,31.0149993 265.108499,30.8995005 265.2495,30.8065 C265.390501,30.7134995 265.541999,30.667 265.704,30.667 L267.954,30.667 L262.968,42.421 Z" id="Massachusetts-Bay-Tr"></path>
                <g id="MBTA">
                    <path d="M24,48 C37.254834,48 48,37.254834 48,24 C48,10.745166 37.254834,0 24,0 C10.745166,0 0,10.745166 0,24 C0,37.254834 10.745166,48 24,48 L24,48 Z M24,45.888 C11.9115914,45.888 2.112,36.0884086 2.112,24 C2.112,11.9115914 11.9115914,2.112 24,2.112 C36.0884086,2.112 45.888,11.9115914 45.888,24 C45.888,36.0884086 36.0884086,45.888 24,45.888 L24,45.888 Z" id="Oval"></path>
                    <polygon id="Shape" points="8.16 12.24 39.84 12.24 39.84 19.56 28.08 19.56 28.08 39.144 19.968 39.144 19.968 19.56 8.208 19.56"></polygon>
                </g>
            </g>
            <g id="beta" transform="translate(277.000000, 50.000000)">
                <rect id="Rectangle" fill="#E00013" x="0" y="0" width="40" height="18" rx="3"></rect>
                <path d="M6,14.031 L6,4 L9.199,4 C9.81500308,4 10.3458311,4.06066606 10.7915,4.182 C11.2371689,4.30333394 11.6034986,4.47599888 11.8905,4.7 C12.1775014,4.92400112 12.3898326,5.19816504 12.5275,5.5225 C12.6651674,5.84683495 12.734,6.21199797 12.734,6.618 C12.734,6.86533457 12.6955004,7.10333219 12.6185,7.332 C12.5414996,7.56066781 12.4248341,7.77299902 12.2685,7.969 C12.1121659,8.16500098 11.9161678,8.33999923 11.6805,8.494 C11.4448322,8.64800077 11.1683349,8.77399951 10.851,8.872 C11.5836703,9.01666739 12.1366648,9.28033142 12.51,9.663 C12.8833352,10.0456686 13.07,10.5496635 13.07,11.175 C13.07,11.5996688 12.9918341,11.9869982 12.8355,12.337 C12.6791659,12.6870018 12.4505015,12.9879987 12.1495,13.24 C11.8484985,13.4920013 11.4798355,13.6868326 11.0435,13.8245 C10.6071645,13.9621674 10.1090028,14.031 9.549,14.031 L6,14.031 Z M7.358,9.46 L7.358,12.953 L9.528,12.953 C9.91533527,12.953 10.2478319,12.9086671 10.5255,12.82 C10.8031681,12.7313329 11.0318324,12.6065008 11.2115,12.4455 C11.3911676,12.2844992 11.5229996,12.0931678 11.607,11.8715 C11.6910004,11.6498322 11.733,11.4060013 11.733,11.14 C11.733,10.6219974 11.5498352,10.2125015 11.1835,9.9115 C10.8171648,9.6104985 10.2630037,9.46 9.521,9.46 L7.358,9.46 Z M7.358,8.494 L9.15,8.494 C9.53266858,8.494 9.8639986,8.45200042 10.144,8.368 C10.4240014,8.28399958 10.6561657,8.16733408 10.8405,8.018 C11.0248343,7.86866592 11.1613329,7.68783439 11.25,7.4755 C11.3386671,7.2631656 11.383,7.03100126 11.383,6.779 C11.383,6.19099706 11.2056684,5.75933471 10.851,5.484 C10.4963316,5.20866529 9.9456704,5.071 9.199,5.071 L7.358,5.071 L7.358,8.494 Z M17.669,6.828 C18.0936688,6.828 18.4856649,6.89916596 18.845,7.0415 C19.2043351,7.18383405 19.5146654,7.38916533 19.776,7.6575 C20.0373346,7.92583468 20.2414993,8.2571647 20.3885,8.6515 C20.5355007,9.04583531 20.609,9.49499748 20.609,9.999 C20.609,10.195001 20.5880002,10.3256663 20.546,10.391 C20.5039998,10.4563337 20.4246673,10.489 20.308,10.489 L15.59,10.489 C15.5993334,10.9370022 15.6599994,11.326665 15.772,11.658 C15.8840006,11.989335 16.037999,12.2658322 16.234,12.4875 C16.430001,12.7091678 16.663332,12.8748328 16.934,12.9845 C17.204668,13.0941672 17.5079983,13.149 17.844,13.149 C18.1566682,13.149 18.4261655,13.1128337 18.6525,13.0405 C18.8788345,12.9681663 19.0736659,12.8900004 19.237,12.806 C19.4003342,12.7219996 19.5368328,12.6438337 19.6465,12.5715 C19.7561672,12.4991663 19.8506663,12.463 19.93,12.463 C20.0326672,12.463 20.1119997,12.5026663 20.168,12.582 L20.518,13.037 C20.3639992,13.2236676 20.1796677,13.3858326 19.965,13.5235 C19.7503323,13.6611674 19.5205012,13.7743329 19.2755,13.863 C19.0304988,13.9516671 18.7773346,14.0181664 18.516,14.0625 C18.2546654,14.1068336 17.995668,14.129 17.739,14.129 C17.2489976,14.129 16.7975021,14.0461675 16.3845,13.8805 C15.9714979,13.7148325 15.6145015,13.4721683 15.3135,13.1525 C15.0124985,12.8328317 14.7780008,12.4373357 14.61,11.966 C14.4419992,11.4946643 14.358,10.9533364 14.358,10.342 C14.358,9.84733086 14.4338326,9.38533548 14.5855,8.956 C14.7371674,8.52666452 14.9553319,8.15450158 15.24,7.8395 C15.5246681,7.52449843 15.8723313,7.27716757 16.283,7.0975 C16.6936687,6.91783244 17.1556641,6.828 17.669,6.828 L17.669,6.828 Z M17.697,7.745 C17.094997,7.745 16.6213351,7.9188316 16.276,8.2665 C15.9306649,8.61416841 15.7160004,9.09599692 15.632,9.712 L19.489,9.712 C19.489,9.42266522 19.4493337,9.15783454 19.37,8.9175 C19.2906663,8.67716547 19.1740008,8.46950088 19.02,8.2945 C18.8659992,8.11949913 18.6781678,7.98416715 18.4565,7.8885 C18.2348322,7.79283286 17.9816681,7.745 17.697,7.745 L17.697,7.745 Z M24.347,14.143 C23.7869972,14.143 23.3565015,13.9866682 23.0555,13.674 C22.7544985,13.3613318 22.604,12.9110029 22.604,12.323 L22.604,7.983 L21.75,7.983 C21.675333,7.983 21.6123336,7.96083356 21.561,7.9165 C21.5096664,7.87216644 21.484,7.8033338 21.484,7.71 L21.484,7.213 L22.646,7.066 L22.933,4.875 C22.9423334,4.80499965 22.9726664,4.74783355 23.024,4.7035 C23.0753336,4.65916645 23.1406663,4.637 23.22,4.637 L23.85,4.637 L23.85,7.08 L25.88,7.08 L25.88,7.983 L23.85,7.983 L23.85,12.239 C23.85,12.5376682 23.9223326,12.7593326 24.067,12.904 C24.2116674,13.0486674 24.3983322,13.121 24.627,13.121 C24.7576673,13.121 24.8708329,13.1035002 24.9665,13.0685 C25.0621671,13.0334998 25.1449997,12.9950002 25.215,12.953 C25.2850004,12.9109998 25.3444998,12.8725002 25.3935,12.8375 C25.4425002,12.8024998 25.4856665,12.785 25.523,12.785 C25.5883337,12.785 25.6466664,12.8246663 25.698,12.904 L26.062,13.499 C25.8473323,13.6996677 25.5883349,13.8571661 25.285,13.9715 C24.9816652,14.0858339 24.6690016,14.143 24.347,14.143 L24.347,14.143 Z M32.628,14.031 L32.075,14.031 C31.9536661,14.031 31.855667,14.0123335 31.781,13.975 C31.706333,13.9376665 31.6573335,13.8583339 31.634,13.737 L31.494,13.079 C31.3073324,13.2470008 31.1253342,13.3974993 30.948,13.5305 C30.7706658,13.6635007 30.584001,13.7754995 30.388,13.8665 C30.191999,13.9575005 29.9831678,14.0263331 29.7615,14.073 C29.5398322,14.1196669 29.293668,14.143 29.023,14.143 C28.7476653,14.143 28.4898345,14.1045004 28.2495,14.0275 C28.0091655,13.9504996 27.8003342,13.8350008 27.623,13.681 C27.4456658,13.5269992 27.3045005,13.3321678 27.1995,13.0965 C27.0944995,12.8608322 27.042,12.5820016 27.042,12.26 C27.042,11.9799986 27.1189992,11.7105013 27.273,11.4515 C27.4270008,11.1924987 27.6754983,10.9626677 28.0185,10.762 C28.3615017,10.5613323 28.8106639,10.396834 29.366,10.2685 C29.9213361,10.140166 30.6003293,10.0666668 31.403,10.048 L31.403,9.495 C31.403,8.94433058 31.2851678,8.52783474 31.0495,8.2455 C30.8138322,7.96316525 30.4650023,7.822 30.003,7.822 C29.6996652,7.822 29.4441677,7.86049961 29.2365,7.9375 C29.0288323,8.01450038 28.8491674,8.10083285 28.6975,8.1965 C28.5458326,8.29216714 28.4151672,8.37849961 28.3055,8.4555 C28.1958328,8.53250038 28.0873339,8.571 27.98,8.571 C27.8959996,8.571 27.8225003,8.54883355 27.7595,8.5045 C27.6964997,8.46016644 27.6463335,8.40533366 27.609,8.34 L27.385,7.941 C27.777002,7.56299811 28.1993311,7.2806676 28.652,7.094 C29.1046689,6.9073324 29.6063306,6.814 30.157,6.814 C30.5536687,6.814 30.9059985,6.87933268 31.214,7.01 C31.5220015,7.14066732 31.780999,7.3226655 31.991,7.556 C32.2010011,7.7893345 32.3596661,8.07166501 32.467,8.403 C32.5743339,8.73433499 32.628,9.09833135 32.628,9.495 L32.628,14.031 Z M29.394,13.268 C29.6133344,13.268 29.8139991,13.2458336 29.996,13.2015 C30.1780009,13.1571664 30.3494992,13.0941671 30.5105,13.0125 C30.6715008,12.9308329 30.8254993,12.8316672 30.9725,12.715 C31.1195007,12.5983327 31.2629993,12.4653341 31.403,12.316 L31.403,10.839 C30.8289971,10.8576668 30.3413353,10.9031663 29.94,10.9755 C29.5386647,11.0478337 29.2120013,11.1423328 28.96,11.259 C28.7079987,11.3756672 28.5248339,11.5133325 28.4105,11.672 C28.2961661,11.8306675 28.239,12.007999 28.239,12.204 C28.239,12.3906676 28.269333,12.551666 28.33,12.687 C28.390667,12.822334 28.4723328,12.9331662 28.575,13.0195 C28.6776672,13.1058338 28.7989993,13.1688331 28.939,13.2085 C29.0790007,13.2481669 29.2306658,13.268 29.394,13.268 L29.394,13.268 Z" id="Beta" fill="#FFFFFF"></path>
            </g>
        </g>
    </g>
</svg>
