<?xml version="1.0" encoding="UTF-8" standalone="no"?>
<svg width="269px" height="48px" viewBox="0 0 269 48" version="1.1" xmlns="http://www.w3.org/2000/svg" xmlns:xlink="http://www.w3.org/1999/xlink">
    <!-- Generator: sketchtool 39.1 (31720) - http://www.bohemiancoding.com/sketch -->
    <title>0028410E-3FD8-4A88-884A-80A9FC23D964</title>
    <desc>Created with sketchtool.</desc>
    <defs></defs>
    <g id="Page-1" stroke="none" stroke-width="1" fill="none" fill-rule="evenodd">
        <g id="assets" transform="translate(-48.000000, -48.000000)" fill="#1C1E23">
            <g id="logo-black" transform="translate(48.000000, 48.000000)">
                <text id="Massachusetts-Bay" font-family="Lato-Black, Lato" font-size="18" font-weight="700">
                    <tspan x="60" y="18">Massachusetts Bay</tspan>
                    <tspan x="60" y="40">Transportation Authority</tspan>
                </text>
                <g id="MBTA">
                    <path d="M24,48 C37.254834,48 48,37.254834 48,24 C48,10.745166 37.254834,0 24,0 C10.745166,0 0,10.745166 0,24 C0,37.254834 10.745166,48 24,48 L24,48 Z M24,45.888 C11.9115914,45.888 2.112,36.0884086 2.112,24 C2.112,11.9115914 11.9115914,2.112 24,2.112 C36.0884086,2.112 45.888,11.9115914 45.888,24 C45.888,36.0884086 36.0884086,45.888 24,45.888 L24,45.888 Z" id="Oval"></path>
                    <polygon id="Shape" points="8.16 12.24 39.84 12.24 39.84 19.56 28.08 19.56 28.08 39.144 19.968 39.144 19.968 19.56 8.208 19.56"></polygon>
                </g>
            </g>
            <g id="beta" transform="translate(277.000000, 50.000000)">
                <rect id="Rectangle" fill="#E00013" x="0" y="0" width="40" height="18" rx="3"></rect>
                <path d="M6,14.031 L6,4 L9.199,4 C9.81500308,4 10.3458311,4.06066606 10.7915,4.182 C11.2371689,4.30333394 11.6034986,4.47599888 11.8905,4.7 C12.1775014,4.92400112 12.3898326,5.19816504 12.5275,5.5225 C12.6651674,5.84683495 12.734,6.21199797 12.734,6.618 C12.734,6.86533457 12.6955004,7.10333219 12.6185,7.332 C12.5414996,7.56066781 12.4248341,7.77299902 12.2685,7.969 C12.1121659,8.16500098 11.9161678,8.33999923 11.6805,8.494 C11.4448322,8.64800077 11.1683349,8.77399951 10.851,8.872 C11.5836703,9.01666739 12.1366648,9.28033142 12.51,9.663 C12.8833352,10.0456686 13.07,10.5496635 13.07,11.175 C13.07,11.5996688 12.9918341,11.9869982 12.8355,12.337 C12.6791659,12.6870018 12.4505015,12.9879987 12.1495,13.24 C11.8484985,13.4920013 11.4798355,13.6868326 11.0435,13.8245 C10.6071645,13.9621674 10.1090028,14.031 9.549,14.031 L6,14.031 Z M7.358,9.46 L7.358,12.953 L9.528,12.953 C9.91533527,12.953 10.2478319,12.9086671 10.5255,12.82 C10.8031681,12.7313329 11.0318324,12.6065008 11.2115,12.4455 C11.3911676,12.2844992 11.5229996,12.0931678 11.607,11.8715 C11.6910004,11.6498322 11.733,11.4060013 11.733,11.14 C11.733,10.6219974 11.5498352,10.2125015 11.1835,9.9115 C10.8171648,9.61049849 10.2630037,9.46 9.521,9.46 L7.358,9.46 Z M7.358,8.494 L9.15,8.494 C9.53266858,8.494 9.8639986,8.45200042 10.144,8.368 C10.4240014,8.28399958 10.6561657,8.16733408 10.8405,8.018 C11.0248343,7.86866592 11.1613329,7.68783439 11.25,7.4755 C11.3386671,7.2631656 11.383,7.03100126 11.383,6.779 C11.383,6.19099706 11.2056684,5.75933471 10.851,5.484 C10.4963316,5.20866529 9.9456704,5.071 9.199,5.071 L7.358,5.071 L7.358,8.494 Z M17.669,6.828 C18.0936688,6.828 18.4856649,6.89916596 18.845,7.0415 C19.2043351,7.18383404 19.5146654,7.38916533 19.776,7.6575 C20.0373346,7.92583467 20.2414993,8.2571647 20.3885,8.6515 C20.5355007,9.0458353 20.609,9.49499748 20.609,9.999 C20.609,10.195001 20.5880002,10.3256663 20.546,10.391 C20.5039998,10.4563337 20.4246672,10.489 20.308,10.489 L15.59,10.489 C15.5993334,10.9370022 15.6599994,11.326665 15.772,11.658 C15.8840006,11.989335 16.037999,12.2658322 16.234,12.4875 C16.430001,12.7091678 16.663332,12.8748328 16.934,12.9845 C17.204668,13.0941672 17.5079983,13.149 17.844,13.149 C18.1566682,13.149 18.4261655,13.1128337 18.6525,13.0405 C18.8788345,12.9681663 19.0736659,12.8900004 19.237,12.806 C19.4003342,12.7219996 19.5368328,12.6438337 19.6465,12.5715 C19.7561672,12.4991663 19.8506663,12.463 19.93,12.463 C20.0326672,12.463 20.1119997,12.5026663 20.168,12.582 L20.518,13.037 C20.3639992,13.2236676 20.1796677,13.3858326 19.965,13.5235 C19.7503323,13.6611674 19.5205012,13.7743329 19.2755,13.863 C19.0304988,13.9516671 18.7773346,14.0181664 18.516,14.0625 C18.2546654,14.1068336 17.995668,14.129 17.739,14.129 C17.2489976,14.129 16.7975021,14.0461675 16.3845,13.8805 C15.9714979,13.7148325 15.6145015,13.4721683 15.3135,13.1525 C15.0124985,12.8328317 14.7780008,12.4373357 14.61,11.966 C14.4419992,11.4946643 14.358,10.9533364 14.358,10.342 C14.358,9.84733086 14.4338326,9.38533548 14.5855,8.956 C14.7371674,8.52666452 14.9553319,8.15450157 15.24,7.8395 C15.5246681,7.52449842 15.8723313,7.27716756 16.283,7.0975 C16.6936687,6.91783244 17.1556641,6.828 17.669,6.828 L17.669,6.828 Z M17.697,7.745 C17.094997,7.745 16.6213351,7.91883159 16.276,8.2665 C15.9306649,8.6141684 15.7160004,9.09599692 15.632,9.712 L19.489,9.712 C19.489,9.42266522 19.4493337,9.15783453 19.37,8.9175 C19.2906663,8.67716546 19.1740008,8.46950087 19.02,8.2945 C18.8659992,8.11949912 18.6781678,7.98416714 18.4565,7.8885 C18.2348322,7.79283285 17.9816681,7.745 17.697,7.745 L17.697,7.745 Z M24.347,14.143 C23.7869972,14.143 23.3565015,13.9866682 23.0555,13.674 C22.7544985,13.3613318 22.604,12.9110029 22.604,12.323 L22.604,7.983 L21.75,7.983 C21.675333,7.983 21.6123336,7.96083356 21.561,7.9165 C21.5096664,7.87216644 21.484,7.8033338 21.484,7.71 L21.484,7.213 L22.646,7.066 L22.933,4.875 C22.9423334,4.80499965 22.9726664,4.74783355 23.024,4.7035 C23.0753336,4.65916645 23.1406663,4.637 23.22,4.637 L23.85,4.637 L23.85,7.08 L25.88,7.08 L25.88,7.983 L23.85,7.983 L23.85,12.239 C23.85,12.5376682 23.9223326,12.7593326 24.067,12.904 C24.2116674,13.0486674 24.3983322,13.121 24.627,13.121 C24.7576673,13.121 24.8708329,13.1035002 24.9665,13.0685 C25.0621671,13.0334998 25.1449997,12.9950002 25.215,12.953 C25.2850004,12.9109998 25.3444998,12.8725002 25.3935,12.8375 C25.4425002,12.8024998 25.4856665,12.785 25.523,12.785 C25.5883337,12.785 25.6466664,12.8246663 25.698,12.904 L26.062,13.499 C25.8473323,13.6996677 25.5883348,13.8571661 25.285,13.9715 C24.9816651,14.0858339 24.6690016,14.143 24.347,14.143 L24.347,14.143 Z M32.628,14.031 L32.075,14.031 C31.9536661,14.031 31.855667,14.0123335 31.781,13.975 C31.706333,13.9376665 31.6573335,13.8583339 31.634,13.737 L31.494,13.079 C31.3073324,13.2470008 31.1253342,13.3974993 30.948,13.5305 C30.7706658,13.6635007 30.584001,13.7754995 30.388,13.8665 C30.191999,13.9575005 29.9831678,14.0263331 29.7615,14.073 C29.5398322,14.1196669 29.293668,14.143 29.023,14.143 C28.7476653,14.143 28.4898345,14.1045004 28.2495,14.0275 C28.0091655,13.9504996 27.8003342,13.8350008 27.623,13.681 C27.4456658,13.5269992 27.3045005,13.3321678 27.1995,13.0965 C27.0944995,12.8608322 27.042,12.5820016 27.042,12.26 C27.042,11.9799986 27.1189992,11.7105013 27.273,11.4515 C27.4270008,11.1924987 27.6754983,10.9626677 28.0185,10.762 C28.3615017,10.5613323 28.8106639,10.396834 29.366,10.2685 C29.9213361,10.140166 30.6003293,10.0666668 31.403,10.048 L31.403,9.495 C31.403,8.94433058 31.2851678,8.52783474 31.0495,8.2455 C30.8138322,7.96316525 30.4650023,7.822 30.003,7.822 C29.6996652,7.822 29.4441677,7.86049962 29.2365,7.9375 C29.0288323,8.01450038 28.8491674,8.10083286 28.6975,8.1965 C28.5458326,8.29216715 28.4151672,8.37849961 28.3055,8.4555 C28.1958328,8.53250038 28.0873339,8.571 27.98,8.571 C27.8959996,8.571 27.8225003,8.54883355 27.7595,8.5045 C27.6964997,8.46016644 27.6463335,8.40533366 27.609,8.34 L27.385,7.941 C27.777002,7.56299811 28.1993311,7.2806676 28.652,7.094 C29.1046689,6.9073324 29.6063306,6.814 30.157,6.814 C30.5536687,6.814 30.9059985,6.87933268 31.214,7.01 C31.5220015,7.14066732 31.7809989,7.3226655 31.991,7.556 C32.2010011,7.7893345 32.3596661,8.07166501 32.467,8.403 C32.5743339,8.73433499 32.628,9.09833135 32.628,9.495 L32.628,14.031 Z M29.394,13.268 C29.6133344,13.268 29.8139991,13.2458336 29.996,13.2015 C30.1780009,13.1571664 30.3494992,13.0941671 30.5105,13.0125 C30.6715008,12.9308329 30.8254993,12.8316672 30.9725,12.715 C31.1195007,12.5983327 31.2629993,12.4653341 31.403,12.316 L31.403,10.839 C30.8289971,10.8576668 30.3413353,10.9031663 29.94,10.9755 C29.5386647,11.0478337 29.2120013,11.1423328 28.96,11.259 C28.7079987,11.3756672 28.5248339,11.5133325 28.4105,11.672 C28.2961661,11.8306675 28.239,12.007999 28.239,12.204 C28.239,12.3906676 28.269333,12.551666 28.33,12.687 C28.390667,12.822334 28.4723328,12.9331662 28.575,13.0195 C28.6776672,13.1058338 28.7989993,13.1688331 28.939,13.2085 C29.0790007,13.2481669 29.2306659,13.268 29.394,13.268 L29.394,13.268 Z" id="Beta" fill="#FFFFFF"></path>
            </g>
        </g>
    </g>
</svg>
