<?xml version="1.0" encoding="UTF-8" standalone="no"?>
<svg width="24px" height="24px" viewBox="0 0 24 24" version="1.1" xmlns="http://www.w3.org/2000/svg" xmlns:xlink="http://www.w3.org/1999/xlink">
    <!-- Generator: sketchtool 40.3 (33839) - http://www.bohemiancoding.com/sketch -->
    <title>FB3B6F69-7A0C-42B5-A729-83CA991949D0</title>
    <desc>Created with sketchtool.</desc>
    <defs>
        <path d="M15.8693182,0.103729091 C15.9251673,0.109519091 15.9797891,0.123897273 16.03125,0.146356364 L23.6676136,3.41908364 C23.8693555,3.50470636 24.00027,3.70275 24,3.92191091 L24,21.3764455 C23.9973845,21.5580537 23.9045509,21.7264486 23.7523855,21.8256134 C23.6002173,21.9247783 23.4086755,21.9417053 23.2414773,21.8707636 L15.8181818,18.6918 L8.39488636,21.8707636 C8.25871636,21.9285392 8.10492,21.9285392 7.96875,21.8707636 L0.332386636,18.5980364 C0.133466755,18.5136382 0.00311373273,18.3197809 -5.18738948e-13,18.1037182 L-5.18738948e-13,0.649183636 C-0.000210198628,0.466063636 0.0914714727,0.295055455 0.244100618,0.193876364 C0.396729818,0.0927 0.589941545,0.07485 0.758523,0.146356364 L8.18181818,3.32532 L15.6051136,0.146356364 C15.6882764,0.11043 15.7790782,0.0957790909 15.8693182,0.103729091 L15.8693182,0.103729091 Z M16.3636364,1.46736545 L16.3636364,17.7457636 L22.9090909,20.5497273 L22.9090909,4.27135636 L16.3636364,1.46736545 L16.3636364,1.46736545 Z M15.2727273,1.46736545 L8.72727273,4.27135636 L8.72727273,20.5497273 L15.2727273,17.7457636 L15.2727273,1.46736545 L15.2727273,1.46736545 Z M1.09090909,1.46736545 L1.09090909,17.7457636 L7.63636364,20.5497273 L7.63636364,4.27135636 L1.09090909,1.46736545 L1.09090909,1.46736545 Z" id="path-1"></path>
    </defs>
    <g id="Page-1" stroke="none" stroke-width="1" fill="none" fill-rule="evenodd">
        <g id="menu-icons" transform="translate(-48.000000, -8.000000)">
            <g id="plan-your-trip" transform="translate(48.000000, 9.000000)">
                <mask id="mask-2" fill="white">
                    <use xlink:href="#path-1"></use>
                </mask>
                <g id="Clip-2"></g>
                <polygon id="Fill-1" fill="#0B2F4C" mask="url(#mask-2)" points="-1.36363636 -1.26201273 25.3636364 -1.26201273 25.3636364 23.2777345 -1.36363636 23.2777345"></polygon>
            </g>
        </g>
    </g>
</svg>