<?xml version="1.0" encoding="UTF-8" standalone="no"?>
<svg width="22px" height="22px" viewBox="0 0 18 18" version="1.1" xmlns="http://www.w3.org/2000/svg" xmlns:xlink="http://www.w3.org/1999/xlink">
    <title>icon-subway</title>
    <g id="Page-1" stroke="none" stroke-width="1" fill="none" fill-rule="evenodd">
        <g id="subway-circle">
            <circle id="Oval" fill="#FFFFFF" cx="11" cy="11" r="11"></circle>
            <path d="M11,19 C15.418278,19 19,15.418278 19,11 C19,6.581722 15.418278,3 11,3 C6.581722,3 3,6.581722 3,11 C3,15.418278 6.581722,19 11,19 Z M11,22 C4.92486775,22 0,17.0751322 0,11 C0,4.92486775 4.92486775,0 11,0 C17.0751322,0 22,4.92486775 22,11 C22,17.0751322 17.0751322,22 11,22 Z" id="Oval-Copy" fill="#1C1E23" fill-rule="nonzero"></path>
            <path d="M8.08333333,16.5 L7.66666667,17.3333333 L6.83333333,17.3333333 L7.25,16.5 L6.99539757,16.5 C6.44565467,16.5 6,16.0581786 6,15.5071456 L6,15.4095211 C6,14.8611827 6,13.9707233 6,13.4129304 L6,6.67040292 C6,6.1160547 6.3798008,5.43492381 6.86994097,5.16661171 C6.86994097,5.16661171 8.5,4 11,4 C13.5,4 15.130059,5.16661171 15.130059,5.16661171 C15.6105142,5.44278444 16,6.11260999 16,6.67040292 L16,13.4129304 C16,13.9672786 16,14.8584881 16,15.4095211 L16,15.5071456 C16,16.0554839 15.5443356,16.5 15.0046024,16.5 L14.75,16.5 L15.1666667,17.3333333 L14.3333333,17.3333333 L13.9166667,16.5 L8.08333333,16.5 Z M8.5,6.5 C8.5,6.96344598 8.86965534,7.33333333 9.32564831,7.33333333 L12.6743517,7.33333333 C13.1241874,7.33333333 13.5,6.96023729 13.5,6.5 C13.5,6.03655402 13.1303447,5.66666667 12.6743517,5.66666667 L9.32564831,5.66666667 C8.87581265,5.66666667 8.5,6.03976271 8.5,6.5 Z M7.25,7.33333333 C7.48011865,7.33333333 7.66666667,7.14678531 7.66666667,6.91666667 C7.66666667,6.68654802 7.48011865,6.5 7.25,6.5 C7.01988135,6.5 6.83333333,6.68654802 6.83333333,6.91666667 C6.83333333,7.14678531 7.01988135,7.33333333 7.25,7.33333333 Z M14.75,7.33333333 C14.9801186,7.33333333 15.1666667,7.14678531 15.1666667,6.91666667 C15.1666667,6.68654802 14.9801186,6.5 14.75,6.5 C14.5198814,6.5 14.3333333,6.68654802 14.3333333,6.91666667 C14.3333333,7.14678531 14.5198814,7.33333333 14.75,7.33333333 Z M14.3333333,15.6666667 C14.7935706,15.6666667 15.1666667,15.2935706 15.1666667,14.8333333 C15.1666667,14.373096 14.7935706,14 14.3333333,14 C13.873096,14 13.5,14.373096 13.5,14.8333333 C13.5,15.2935706 13.873096,15.6666667 14.3333333,15.6666667 Z M7.66666667,15.6666667 C8.12690396,15.6666667 8.5,15.2935706 8.5,14.8333333 C8.5,14.373096 8.12690396,14 7.66666667,14 C7.20642938,14 6.83333333,14.373096 6.83333333,14.8333333 C6.83333333,15.2935706 7.20642938,15.6666667 7.66666667,15.6666667 Z M6.83333333,9.16647416 L6.83333333,12.1668592 C6.83333333,12.72295 7.28337433,13.1666667 7.83852804,13.1666667 L14.161472,13.1666667 C14.7186305,13.1666667 15.1666667,12.7190376 15.1666667,12.1668592 L15.1666667,9.16647416 C15.1666667,8.61038331 14.7166257,8.16666667 14.161472,8.16666667 L7.83852804,8.16666667 C7.28136953,8.16666667 6.83333333,8.61429573 6.83333333,9.16647416 Z" id="Combined-Shape" fill="#1C1E23"></path>
        </g>
    </g>
</svg>
