<?xml version="1.0" encoding="UTF-8" standalone="no"?>
<svg width="36px" height="36px" viewBox="0 0 36 36" version="1.1" xmlns="http://www.w3.org/2000/svg" xmlns:xlink="http://www.w3.org/1999/xlink">
    <!-- Generator: Sketch 3.7.2 (28276) - http://www.bohemiancoding.com/sketch -->
    <title>subway-icon</title>
    <desc>Created with Sketch.</desc>
    <defs></defs>
    <g id="Page-1" stroke="none" stroke-width="1" fill="none" fill-rule="evenodd">
        <g id="subway-icon" fill="#000000">
            <path d="M11.2815217,34.1052632 L10.9078539,34.8525989 L10.4841778,35.699951 L8.78947368,34.8525989 L9.21314972,34.0052468 L12.055255,28.3210363 L12.478931,27.4736842 L14.1736352,28.3210363 L13.7499591,29.1683884 L12.2288902,32.2105263 L23.9973766,32.2105263 L22.4763076,29.1683884 L22.0526316,28.3210363 L23.7473357,27.4736842 L24.1710118,28.3210363 L27.013117,34.0052468 L27.4367931,34.8525989 L25.7420889,35.699951 L25.3184129,34.8525989 L24.944745,34.1052632 L24.7593985,34.1052632 L11.7669173,34.1052632 L11.2815217,34.1052632 Z" id="Combined-Shape"></path>
            <path d="M13.5263158,7.57894737 L23,7.57894737 L23,18.4736842 L23,18.9473684 L23.9473684,18.9473684 L23.9473684,18.4736842 L23.9473684,7.57894737 L28.6252678,7.57894737 C29.1810381,7.57894737 29.6315789,8.02460295 29.6315789,8.5878189 L29.6315789,17.9384969 C29.6315789,18.4956813 29.1774019,18.9473684 28.6252678,18.9473684 L7.90104802,18.9473684 C7.3452777,18.9473684 6.89473684,18.5017128 6.89473684,17.9384969 L6.89473684,8.5878189 C6.89473684,8.03063454 7.34891388,7.57894737 7.90104802,7.57894737 L12.5789474,7.57894737 L12.5789474,18.4736842 L12.5789474,18.9473684 L13.5263158,18.9473684 L13.5263158,18.4736842 L13.5263158,7.57894737 Z M5,4.78283205 C5,3.12622615 6.29737615,1.46857172 7.92738449,1.12178762 C7.92738449,1.12178762 11.6315789,9.28153364e-16 18.2631579,0 C24.8947368,-9.28153364e-16 28.6116561,1.12432002 28.6116561,1.12432002 C30.2213782,1.48825453 31.5263158,3.12119414 31.5263158,4.78283205 L31.5263158,27.3162392 C31.5263158,28.9728451 30.1744034,30.3157895 28.5349738,30.3157895 L7.99134196,30.3157895 C6.33926941,30.3157895 5,28.9778771 5,27.3162392 L5,4.78283205 Z M27.7368421,28.4210526 C28.7832764,28.4210526 29.6315789,27.5727501 29.6315789,26.5263158 C29.6315789,25.4798815 28.7832764,24.6315789 27.7368421,24.6315789 C26.6904078,24.6315789 25.8421053,25.4798815 25.8421053,26.5263158 C25.8421053,27.5727501 26.6904078,28.4210526 27.7368421,28.4210526 Z M8.78947368,28.4210526 C9.83590795,28.4210526 10.6842105,27.5727501 10.6842105,26.5263158 C10.6842105,25.4798815 9.83590795,24.6315789 8.78947368,24.6315789 C7.74303942,24.6315789 6.89473684,25.4798815 6.89473684,26.5263158 C6.89473684,27.5727501 7.74303942,28.4210526 8.78947368,28.4210526 Z M28.6842105,4.73684211 C29.2074277,4.73684211 29.6315789,4.31269082 29.6315789,3.78947368 C29.6315789,3.26625655 29.2074277,2.84210526 28.6842105,2.84210526 C28.1609934,2.84210526 27.7368421,3.26625655 27.7368421,3.78947368 C27.7368421,4.31269082 28.1609934,4.73684211 28.6842105,4.73684211 Z M7.84210526,4.73684211 C8.36532239,4.73684211 8.78947368,4.31269082 8.78947368,3.78947368 C8.78947368,3.26625655 8.36532239,2.84210526 7.84210526,2.84210526 C7.31888813,2.84210526 6.89473684,3.26625655 6.89473684,3.78947368 C6.89473684,4.31269082 7.31888813,4.73684211 7.84210526,4.73684211 Z M10.6842105,2.89037644 C10.6842105,2.34049987 11.1378562,1.89473684 11.6787623,1.89473684 L24.8475535,1.89473684 C25.3968293,1.89473684 25.8421053,2.34432025 25.8421053,2.89037644 L25.8421053,4.68857093 C25.8421053,5.23844749 25.3884596,5.68421053 24.8475535,5.68421053 L11.6787623,5.68421053 C11.1294865,5.68421053 10.6842105,5.23462712 10.6842105,4.68857093 L10.6842105,2.89037644 Z M18.2631579,28.4210526 C20.3560264,28.4210526 22.0526316,26.7244475 22.0526316,24.6315789 C22.0526316,22.5387104 20.3560264,20.8421053 18.2631579,20.8421053 C16.1702894,20.8421053 14.4736842,22.5387104 14.4736842,24.6315789 C14.4736842,26.7244475 16.1702894,28.4210526 18.2631579,28.4210526 Z M18.2631579,28.0875789 C16.3544618,28.0875789 14.8071579,26.540275 14.8071579,24.6315789 C14.8071579,22.7228829 16.3544618,21.1755789 18.2631579,21.1755789 C20.171854,21.1755789 21.7191579,22.7228829 21.7191579,24.6315789 C21.7191579,26.540275 20.171854,28.0875789 18.2631579,28.0875789 Z M15.7621053,22.7747368 L20.7642105,22.7747368 L20.7642105,23.9305263 L18.9073684,23.9305263 L18.9073684,27.0227368 L17.6265263,27.0227368 L17.6265263,23.9305263 L15.7696842,23.9305263 L15.7621053,22.7747368 Z" id="Combined-Shape"></path>
        </g>
    </g>
</svg>