<?xml version="1.0" encoding="UTF-8" standalone="no"?>
<svg width="270px" height="48px" viewBox="0 0 270 48" version="1.1" xmlns="http://www.w3.org/2000/svg" xmlns:xlink="http://www.w3.org/1999/xlink">
    <!-- Generator: Sketch 43.2 (39069) - http://www.bohemiancoding.com/sketch -->
    <title>t-logo</title>
    <desc>Created with Sketch.</desc>
    <defs></defs>
    <g id="Page-1" stroke="none" stroke-width="1" fill="none" fill-rule="evenodd">
        <g id="t-logo" fill="#1C1E23">
            <g id="Group-27">
                <g id="Group">
                    <path d="M67.605,12.479 C67.7250006,12.7070011 67.8404994,12.9439988 67.9515,13.19 C68.0625006,13.4360012 68.1689995,13.6879987 68.271,13.946 C68.3730005,13.6819987 68.4809994,13.4255012 68.595,13.1765 C68.7090006,12.9274988 68.8259994,12.6860012 68.946,12.452 L72.312,5.828 C72.3720003,5.71399943 72.4334997,5.62550031 72.4965,5.5625 C72.5595003,5.49949968 72.6299996,5.45300015 72.708,5.423 C72.7860004,5.39299985 72.8744995,5.37500003 72.9735,5.369 C73.0725005,5.36299997 73.1879993,5.36 73.32,5.36 L75.642,5.36 L75.642,18.473 L72.96,18.473 L72.96,10.931 C72.96,10.5649982 72.9779998,10.1690021 73.014,9.743 L69.54,16.484 C69.4319995,16.694001 69.2865009,16.8529995 69.1035,16.961 C68.9204991,17.0690005 68.7120012,17.123 68.478,17.123 L68.064,17.123 C67.8299988,17.123 67.6215009,17.0690005 67.4385,16.961 C67.2554991,16.8529995 67.1100005,16.694001 67.002,16.484 L63.51,9.734 C63.5340001,9.94400105 63.5519999,10.152499 63.564,10.3595 C63.5760001,10.566501 63.582,10.7569991 63.582,10.931 L63.582,18.473 L60.9,18.473 L60.9,5.36 L63.222,5.36 C63.3540007,5.36 63.4694995,5.36299997 63.5685,5.369 C63.6675005,5.37500003 63.7559996,5.39299985 63.834,5.423 C63.9120004,5.45300015 63.9824997,5.49949968 64.0455,5.5625 C64.1085003,5.62550031 64.1699997,5.71399943 64.23,5.828 L67.605,12.479 Z M84.246,18.473 C83.9819987,18.473 83.7825007,18.4370004 83.6475,18.365 C83.5124993,18.2929996 83.4000004,18.1430011 83.31,17.915 L83.112,17.402 C82.8779988,17.600001 82.6530011,17.7739992 82.437,17.924 C82.2209989,18.0740007 81.9975012,18.2014995 81.7665,18.3065 C81.5354988,18.4115005 81.2895013,18.4894997 81.0285,18.5405 C80.7674987,18.5915003 80.4780016,18.617 80.16,18.617 C79.7339979,18.617 79.3470017,18.5615006 78.999,18.4505 C78.6509983,18.3394994 78.3555012,18.1760011 78.1125,17.96 C77.8694988,17.7439989 77.6820007,17.4755016 77.55,17.1545 C77.4179993,16.8334984 77.352,16.4630021 77.352,16.043 C77.352,15.7129983 77.4359992,15.3740017 77.604,15.026 C77.7720008,14.6779983 78.0629979,14.3615014 78.477,14.0765 C78.8910021,13.7914986 79.4489965,13.553001 80.151,13.361 C80.8530035,13.168999 81.7379947,13.0610001 82.806,13.037 L82.806,12.641 C82.806,12.0949973 82.6935011,11.7005012 82.4685,11.4575 C82.2434989,11.2144988 81.9240021,11.093 81.51,11.093 C81.1799984,11.093 80.9100011,11.1289996 80.7,11.201 C80.489999,11.2730004 80.3025008,11.3539995 80.1375,11.444 C79.9724992,11.5340005 79.8120008,11.6149996 79.656,11.687 C79.4999992,11.7590004 79.3140011,11.795 79.098,11.795 C78.905999,11.795 78.7425007,11.7485005 78.6075,11.6555 C78.4724993,11.5624995 78.3660004,11.4470007 78.288,11.309 L77.784,10.436 C78.3480028,9.93799751 78.9734966,9.56750122 79.6605,9.3245 C80.3475034,9.08149878 81.0839961,8.96 81.87,8.96 C82.4340028,8.96 82.9424977,9.05149908 83.3955,9.2345 C83.8485023,9.41750091 84.2324984,9.67249836 84.5475,9.9995 C84.8625016,10.3265016 85.1039992,10.7149977 85.272,11.165 C85.4400008,11.6150022 85.524,12.1069973 85.524,12.641 L85.524,18.473 L84.246,18.473 Z M81.042,16.772 C81.4020018,16.772 81.7169986,16.7090006 81.987,16.583 C82.2570013,16.4569994 82.5299986,16.2530014 82.806,15.971 L82.806,14.675 C82.2479972,14.6990001 81.7890018,14.7469996 81.429,14.819 C81.0689982,14.8910004 80.7840011,14.9809995 80.574,15.089 C80.3639989,15.1970005 80.2185004,15.3199993 80.1375,15.458 C80.0564996,15.5960007 80.016,15.7459992 80.016,15.908 C80.016,16.2260016 80.1029991,16.4494994 80.277,16.5785 C80.4510009,16.7075006 80.7059983,16.772 81.042,16.772 Z M93.21,11.183 C93.1379996,11.2970006 93.0615004,11.3779998 92.9805,11.426 C92.8994996,11.4740002 92.7960006,11.498 92.67,11.498 C92.5379993,11.498 92.4060007,11.4695003 92.274,11.4125 C92.1419993,11.3554997 91.9995008,11.2940003 91.8465,11.228 C91.6934992,11.1619997 91.521001,11.1005003 91.329,11.0435 C91.136999,10.9864997 90.9180012,10.958 90.672,10.958 C90.3179982,10.958 90.0465009,11.0254993 89.8575,11.1605 C89.6684991,11.2955007 89.574,11.4829988 89.574,11.723 C89.574,11.8970009 89.6354994,12.0409994 89.7585,12.155 C89.8815006,12.2690006 90.044999,12.3694996 90.249,12.4565 C90.453001,12.5435004 90.6839987,12.6259996 90.942,12.704 C91.2000013,12.7820004 91.4639987,12.8689995 91.734,12.965 C92.0040014,13.0610005 92.2679987,13.1734994 92.526,13.3025 C92.7840013,13.4315006 93.014999,13.5904991 93.219,13.7795 C93.423001,13.9685009 93.5864994,14.1979986 93.7095,14.468 C93.8325006,14.7380013 93.894,15.0619981 93.894,15.44 C93.894,15.9020023 93.8100008,16.3279981 93.642,16.718 C93.4739992,17.1080019 93.2235017,17.4439986 92.8905,17.726 C92.5574983,18.0080014 92.1465024,18.2269992 91.6575,18.383 C91.1684976,18.5390008 90.6060032,18.617 89.97,18.617 C89.6519984,18.617 89.3340016,18.5870003 89.016,18.527 C88.6979984,18.4669997 88.3905015,18.3860005 88.0935,18.284 C87.7964985,18.1819995 87.5220013,18.0605007 87.27,17.9195 C87.0179987,17.7784993 86.8020009,17.6270008 86.622,17.465 L87.27,16.439 C87.3480004,16.3189994 87.4409995,16.2245003 87.549,16.1555 C87.6570005,16.0864997 87.7979991,16.052 87.972,16.052 C88.1340008,16.052 88.2794994,16.0879996 88.4085,16.16 C88.5375006,16.2320004 88.6769992,16.3099996 88.827,16.394 C88.9770008,16.4780004 89.152499,16.5559996 89.3535,16.628 C89.554501,16.7000004 89.8079985,16.736 90.114,16.736 C90.3300011,16.736 90.5129993,16.7135002 90.663,16.6685 C90.8130007,16.6234998 90.9329996,16.5620004 91.023,16.484 C91.1130004,16.4059996 91.1789998,16.3190005 91.221,16.223 C91.2630002,16.1269995 91.284,16.0280005 91.284,15.926 C91.284,15.7399991 91.2210006,15.5870006 91.095,15.467 C90.9689994,15.3469994 90.804001,15.2435004 90.6,15.1565 C90.395999,15.0694996 90.1635013,14.9885004 89.9025,14.9135 C89.6414987,14.8384996 89.3760013,14.7530005 89.106,14.657 C88.8359986,14.5609995 88.5705013,14.4455007 88.3095,14.3105 C88.0484987,14.1754993 87.816001,14.004501 87.612,13.7975 C87.407999,13.590499 87.2430006,13.3370015 87.117,13.037 C86.9909994,12.7369985 86.928,12.3740021 86.928,11.948 C86.928,11.551998 87.0044992,11.1755018 87.1575,10.8185 C87.3105008,10.4614982 87.5399985,10.1480014 87.846,9.878 C88.1520015,9.60799865 88.5359977,9.39350079 88.998,9.2345 C89.4600023,9.0754992 89.9999969,8.996 90.618,8.996 C90.9540017,8.996 91.2794984,9.0259997 91.5945,9.086 C91.9095016,9.1460003 92.2049986,9.22999946 92.481,9.338 C92.7570014,9.44600054 93.0089989,9.57349927 93.237,9.7205 C93.4650011,9.86750074 93.6659991,10.0279991 93.84,10.202 L93.21,11.183 Z M101.13,11.183 C101.058,11.2970006 100.9815,11.3779998 100.9005,11.426 C100.8195,11.4740002 100.716001,11.498 100.59,11.498 C100.457999,11.498 100.326001,11.4695003 100.194,11.4125 C100.061999,11.3554997 99.9195008,11.2940003 99.7665,11.228 C99.6134992,11.1619997 99.441001,11.1005003 99.249,11.0435 C99.056999,10.9864997 98.8380012,10.958 98.592,10.958 C98.2379982,10.958 97.9665009,11.0254993 97.7775,11.1605 C97.5884991,11.2955007 97.494,11.4829988 97.494,11.723 C97.494,11.8970009 97.5554994,12.0409994 97.6785,12.155 C97.8015006,12.2690006 97.964999,12.3694996 98.169,12.4565 C98.373001,12.5435004 98.6039987,12.6259996 98.862,12.704 C99.1200013,12.7820004 99.3839986,12.8689995 99.654,12.965 C99.9240013,13.0610005 100.187999,13.1734994 100.446,13.3025 C100.704001,13.4315006 100.934999,13.5904991 101.139,13.7795 C101.343001,13.9685009 101.506499,14.1979986 101.6295,14.468 C101.752501,14.7380013 101.814,15.0619981 101.814,15.44 C101.814,15.9020023 101.730001,16.3279981 101.562,16.718 C101.393999,17.1080019 101.143502,17.4439986 100.8105,17.726 C100.477498,18.0080014 100.066502,18.2269992 99.5775,18.383 C99.0884976,18.5390008 98.5260032,18.617 97.89,18.617 C97.5719984,18.617 97.2540016,18.5870003 96.936,18.527 C96.6179984,18.4669997 96.3105015,18.3860005 96.0135,18.284 C95.7164985,18.1819995 95.4420013,18.0605007 95.19,17.9195 C94.9379987,17.7784993 94.7220009,17.6270008 94.542,17.465 L95.19,16.439 C95.2680004,16.3189994 95.3609995,16.2245003 95.469,16.1555 C95.5770005,16.0864997 95.7179991,16.052 95.892,16.052 C96.0540008,16.052 96.1994994,16.0879996 96.3285,16.16 C96.4575006,16.2320004 96.5969992,16.3099996 96.747,16.394 C96.8970007,16.4780004 97.072499,16.5559996 97.2735,16.628 C97.474501,16.7000004 97.7279985,16.736 98.034,16.736 C98.2500011,16.736 98.4329992,16.7135002 98.583,16.6685 C98.7330008,16.6234998 98.8529995,16.5620004 98.943,16.484 C99.0330005,16.4059996 99.0989998,16.3190005 99.141,16.223 C99.1830002,16.1269995 99.204,16.0280005 99.204,15.926 C99.204,15.7399991 99.1410006,15.5870006 99.015,15.467 C98.8889994,15.3469994 98.724001,15.2435004 98.52,15.1565 C98.315999,15.0694996 98.0835013,14.9885004 97.8225,14.9135 C97.5614987,14.8384996 97.2960014,14.7530005 97.026,14.657 C96.7559987,14.5609995 96.4905013,14.4455007 96.2295,14.3105 C95.9684987,14.1754993 95.736001,14.004501 95.532,13.7975 C95.327999,13.590499 95.1630006,13.3370015 95.037,13.037 C94.9109994,12.7369985 94.848,12.3740021 94.848,11.948 C94.848,11.551998 94.9244992,11.1755018 95.0775,10.8185 C95.2305008,10.4614982 95.4599985,10.1480014 95.766,9.878 C96.0720015,9.60799865 96.4559977,9.39350079 96.918,9.2345 C97.3800023,9.0754992 97.9199969,8.996 98.538,8.996 C98.8740017,8.996 99.1994984,9.0259997 99.5145,9.086 C99.8295016,9.1460003 100.124999,9.22999946 100.401,9.338 C100.677001,9.44600054 100.928999,9.57349927 101.157,9.7205 C101.385001,9.86750074 101.585999,10.0279991 101.76,10.202 L101.13,11.183 Z M109.788,18.473 C109.523999,18.473 109.324501,18.4370004 109.1895,18.365 C109.054499,18.2929996 108.942,18.1430011 108.852,17.915 L108.654,17.402 C108.419999,17.600001 108.195001,17.7739992 107.979,17.924 C107.762999,18.0740007 107.539501,18.2014995 107.3085,18.3065 C107.077499,18.4115005 106.831501,18.4894997 106.5705,18.5405 C106.309499,18.5915003 106.020002,18.617 105.702,18.617 C105.275998,18.617 104.889002,18.5615006 104.541,18.4505 C104.192998,18.3394994 103.897501,18.1760011 103.6545,17.96 C103.411499,17.7439989 103.224001,17.4755016 103.092,17.1545 C102.959999,16.8334984 102.894,16.4630021 102.894,16.043 C102.894,15.7129983 102.977999,15.3740017 103.146,15.026 C103.314001,14.6779983 103.604998,14.3615014 104.019,14.0765 C104.433002,13.7914986 104.990996,13.553001 105.693,13.361 C106.395004,13.168999 107.279995,13.0610001 108.348,13.037 L108.348,12.641 C108.348,12.0949973 108.235501,11.7005012 108.0105,11.4575 C107.785499,11.2144988 107.466002,11.093 107.052,11.093 C106.721998,11.093 106.452001,11.1289996 106.242,11.201 C106.031999,11.2730004 105.844501,11.3539995 105.6795,11.444 C105.514499,11.5340005 105.354001,11.6149996 105.198,11.687 C105.041999,11.7590004 104.856001,11.795 104.64,11.795 C104.447999,11.795 104.284501,11.7485005 104.1495,11.6555 C104.014499,11.5624995 103.908,11.4470007 103.83,11.309 L103.326,10.436 C103.890003,9.93799751 104.515497,9.56750122 105.2025,9.3245 C105.889503,9.08149878 106.625996,8.96 107.412,8.96 C107.976003,8.96 108.484498,9.05149908 108.9375,9.2345 C109.390502,9.41750091 109.774498,9.67249836 110.0895,9.9995 C110.404502,10.3265016 110.645999,10.7149977 110.814,11.165 C110.982001,11.6150022 111.066,12.1069973 111.066,12.641 L111.066,18.473 L109.788,18.473 Z M106.584,16.772 C106.944002,16.772 107.258999,16.7090006 107.529,16.583 C107.799001,16.4569994 108.071999,16.2530014 108.348,15.971 L108.348,14.675 C107.789997,14.6990001 107.331002,14.7469996 106.971,14.819 C106.610998,14.8910004 106.326001,14.9809995 106.116,15.089 C105.905999,15.1970005 105.7605,15.3199993 105.6795,15.458 C105.5985,15.5960007 105.558,15.7459992 105.558,15.908 C105.558,16.2260016 105.644999,16.4494994 105.819,16.5785 C105.993001,16.7075006 106.247998,16.772 106.584,16.772 Z M119.778,11.354 C119.694,11.4560005 119.613,11.5369997 119.535,11.597 C119.457,11.6570003 119.346001,11.687 119.202,11.687 C119.063999,11.687 118.939501,11.6540003 118.8285,11.588 C118.717499,11.5219997 118.593001,11.4485004 118.455,11.3675 C118.316999,11.2864996 118.155001,11.2130003 117.969,11.147 C117.782999,11.0809997 117.552001,11.048 117.276,11.048 C116.933998,11.048 116.638501,11.1109994 116.3895,11.237 C116.140499,11.3630006 115.935001,11.5429988 115.773,11.777 C115.610999,12.0110012 115.491,12.2974983 115.413,12.6365 C115.335,12.9755017 115.296,13.3579979 115.296,13.784 C115.296,14.6780045 115.468498,15.3649976 115.8135,15.845 C116.158502,16.3250024 116.633997,16.565 117.24,16.565 C117.564002,16.565 117.820499,16.5245004 118.0095,16.4435 C118.198501,16.3624996 118.358999,16.2725005 118.491,16.1735 C118.623001,16.0744995 118.744499,15.9830004 118.8555,15.899 C118.966501,15.8149996 119.105999,15.773 119.274,15.773 C119.496001,15.773 119.663999,15.8539992 119.778,16.016 L120.588,17.015 C120.299999,17.3450017 119.997002,17.613499 119.679,17.8205 C119.360998,18.027501 119.035502,18.1894994 118.7025,18.3065 C118.369498,18.4235006 118.035002,18.5044998 117.699,18.5495 C117.362998,18.5945002 117.036002,18.617 116.718,18.617 C116.147997,18.617 115.603503,18.5090011 115.0845,18.293 C114.565497,18.0769989 114.109502,17.7635021 113.7165,17.3525 C113.323498,16.9414979 113.011501,16.436003 112.7805,15.836 C112.549499,15.235997 112.434,14.5520038 112.434,13.784 C112.434,13.1119966 112.534499,12.4835029 112.7355,11.8985 C112.936501,11.3134971 113.233498,10.8065021 113.6265,10.3775 C114.019502,9.94849785 114.505497,9.61100123 115.0845,9.365 C115.663503,9.11899877 116.333996,8.996 117.096,8.996 C117.828004,8.996 118.469997,9.11299883 119.022,9.347 C119.574003,9.58100117 120.071998,9.92299775 120.516,10.373 L119.778,11.354 Z M121.794,18.473 L121.794,5 L124.584,5 L124.584,9.959 C124.920002,9.67099856 125.284498,9.43850089 125.6775,9.2615 C126.070502,9.08449911 126.539997,8.996 127.086,8.996 C127.596003,8.996 128.047498,9.08449911 128.4405,9.2615 C128.833502,9.43850089 129.164999,9.68449843 129.435,9.9995 C129.705001,10.3145016 129.908999,10.6894978 130.047,11.1245 C130.185001,11.5595022 130.254,12.0319974 130.254,12.542 L130.254,18.473 L127.464,18.473 L127.464,12.542 C127.464,12.0859977 127.359001,11.7305013 127.149,11.4755 C126.938999,11.2204987 126.630002,11.093 126.222,11.093 C125.915998,11.093 125.628001,11.1589993 125.358,11.291 C125.087999,11.4230007 124.830001,11.5999989 124.584,11.822 L124.584,18.473 L121.794,18.473 Z M134.844,9.14 L134.844,15.062 C134.844,15.5240023 134.948999,15.8809987 135.159,16.133 C135.369001,16.3850013 135.677998,16.511 136.086,16.511 C136.392002,16.511 136.678499,16.4480006 136.9455,16.322 C137.212501,16.1959994 137.471999,16.0190011 137.724,15.791 L137.724,9.14 L140.514,9.14 L140.514,18.473 L138.786,18.473 C138.437998,18.473 138.210001,18.3170016 138.102,18.005 L137.931,17.465 C137.750999,17.6390009 137.565001,17.7964993 137.373,17.9375 C137.180999,18.0785007 136.975501,18.1984995 136.7565,18.2975 C136.537499,18.3965005 136.302001,18.4744997 136.05,18.5315 C135.797999,18.5885003 135.522001,18.617 135.222,18.617 C134.711997,18.617 134.260502,18.5285009 133.8675,18.3515 C133.474498,18.1744991 133.143001,17.9270016 132.873,17.609 C132.602999,17.2909984 132.399001,16.9160022 132.261,16.484 C132.122999,16.0519978 132.054,15.5780026 132.054,15.062 L132.054,9.14 L134.844,9.14 Z M148.38,11.183 C148.308,11.2970006 148.2315,11.3779998 148.1505,11.426 C148.0695,11.4740002 147.966001,11.498 147.84,11.498 C147.707999,11.498 147.576001,11.4695003 147.444,11.4125 C147.311999,11.3554997 147.169501,11.2940003 147.0165,11.228 C146.863499,11.1619997 146.691001,11.1005003 146.499,11.0435 C146.306999,10.9864997 146.088001,10.958 145.842,10.958 C145.487998,10.958 145.216501,11.0254993 145.0275,11.1605 C144.838499,11.2955007 144.744,11.4829988 144.744,11.723 C144.744,11.8970009 144.805499,12.0409994 144.9285,12.155 C145.051501,12.2690006 145.214999,12.3694996 145.419,12.4565 C145.623001,12.5435004 145.853999,12.6259996 146.112,12.704 C146.370001,12.7820004 146.633999,12.8689995 146.904,12.965 C147.174001,13.0610005 147.437999,13.1734994 147.696,13.3025 C147.954001,13.4315006 148.184999,13.5904991 148.389,13.7795 C148.593001,13.9685009 148.756499,14.1979986 148.8795,14.468 C149.002501,14.7380013 149.064,15.0619981 149.064,15.44 C149.064,15.9020023 148.980001,16.3279981 148.812,16.718 C148.643999,17.1080019 148.393502,17.4439986 148.0605,17.726 C147.727498,18.0080014 147.316502,18.2269992 146.8275,18.383 C146.338498,18.5390008 145.776003,18.617 145.14,18.617 C144.821998,18.617 144.504002,18.5870003 144.186,18.527 C143.867998,18.4669997 143.560501,18.3860005 143.2635,18.284 C142.966499,18.1819995 142.692001,18.0605007 142.44,17.9195 C142.187999,17.7784993 141.972001,17.6270008 141.792,17.465 L142.44,16.439 C142.518,16.3189994 142.610999,16.2245003 142.719,16.1555 C142.827001,16.0864997 142.967999,16.052 143.142,16.052 C143.304001,16.052 143.449499,16.0879996 143.5785,16.16 C143.707501,16.2320004 143.846999,16.3099996 143.997,16.394 C144.147001,16.4780004 144.322499,16.5559996 144.5235,16.628 C144.724501,16.7000004 144.977998,16.736 145.284,16.736 C145.500001,16.736 145.682999,16.7135002 145.833,16.6685 C145.983001,16.6234998 146.103,16.5620004 146.193,16.484 C146.283,16.4059996 146.349,16.3190005 146.391,16.223 C146.433,16.1269995 146.454,16.0280005 146.454,15.926 C146.454,15.7399991 146.391001,15.5870006 146.265,15.467 C146.138999,15.3469994 145.974001,15.2435004 145.77,15.1565 C145.565999,15.0694996 145.333501,14.9885004 145.0725,14.9135 C144.811499,14.8384996 144.546001,14.7530005 144.276,14.657 C144.005999,14.5609995 143.740501,14.4455007 143.4795,14.3105 C143.218499,14.1754993 142.986001,14.004501 142.782,13.7975 C142.577999,13.590499 142.413001,13.3370015 142.287,13.037 C142.160999,12.7369985 142.098,12.3740021 142.098,11.948 C142.098,11.551998 142.174499,11.1755018 142.3275,10.8185 C142.480501,10.4614982 142.709998,10.1480014 143.016,9.878 C143.322002,9.60799865 143.705998,9.39350079 144.168,9.2345 C144.630002,9.0754992 145.169997,8.996 145.788,8.996 C146.124002,8.996 146.449498,9.0259997 146.7645,9.086 C147.079502,9.1460003 147.374999,9.22999946 147.651,9.338 C147.927001,9.44600054 148.178999,9.57349927 148.407,9.7205 C148.635001,9.86750074 148.835999,10.0279991 149.01,10.202 L148.38,11.183 Z M154.59,8.996 C155.208003,8.996 155.773497,9.09199904 156.2865,9.284 C156.799503,9.47600096 157.240498,9.75499817 157.6095,10.121 C157.978502,10.4870018 158.266499,10.9354973 158.4735,11.4665 C158.680501,11.9975027 158.784,12.5989966 158.784,13.271 C158.784,13.481001 158.775,13.6519993 158.757,13.784 C158.739,13.9160007 158.706,14.0209996 158.658,14.099 C158.61,14.1770004 158.5455,14.2309998 158.4645,14.261 C158.3835,14.2910001 158.280001,14.306 158.154,14.306 L152.772,14.306 C152.862,15.0860039 153.098998,15.6514982 153.483,16.0025 C153.867002,16.3535018 154.361997,16.529 154.968,16.529 C155.292002,16.529 155.570999,16.4900004 155.805,16.412 C156.039001,16.3339996 156.247499,16.2470005 156.4305,16.151 C156.613501,16.0549995 156.781499,15.9680004 156.9345,15.89 C157.087501,15.8119996 157.247999,15.773 157.416,15.773 C157.638001,15.773 157.805999,15.8539992 157.92,16.016 L158.73,17.015 C158.441999,17.3450017 158.131502,17.613499 157.7985,17.8205 C157.465498,18.027501 157.123502,18.1894994 156.7725,18.3065 C156.421498,18.4235006 156.070502,18.5044998 155.7195,18.5495 C155.368498,18.5945002 155.034002,18.617 154.716,18.617 C154.061997,18.617 153.448503,18.5105011 152.8755,18.2975 C152.302497,18.0844989 151.801502,17.7680021 151.3725,17.348 C150.943498,16.9279979 150.604501,16.4060031 150.3555,15.782 C150.106499,15.1579969 149.982,14.4320041 149.982,13.604 C149.982,12.9799969 150.088499,12.3890028 150.3015,11.831 C150.514501,11.2729972 150.820498,10.7840021 151.2195,10.364 C151.618502,9.9439979 152.101497,9.61100123 152.6685,9.365 C153.235503,9.11899877 153.875996,8.996 154.59,8.996 Z M154.644,10.922 C154.109997,10.922 153.693001,11.0734985 153.393,11.3765 C153.092999,11.6795015 152.895,12.1159971 152.799,12.686 L156.282,12.686 C156.282,12.4639989 156.2535,12.248001 156.1965,12.038 C156.1395,11.8279989 156.046501,11.6405008 155.9175,11.4755 C155.788499,11.3104992 155.619001,11.1770005 155.409,11.075 C155.198999,10.9729995 154.944001,10.922 154.644,10.922 Z M163.662,18.617 C163.217998,18.617 162.826502,18.5525006 162.4875,18.4235 C162.148498,18.2944994 161.863501,18.1115012 161.6325,17.8745 C161.401499,17.6374988 161.226001,17.3510017 161.106,17.015 C160.985999,16.6789983 160.926,16.3040021 160.926,15.89 L160.926,11.066 L160.134,11.066 C159.989999,11.066 159.867001,11.0195005 159.765,10.9265 C159.662999,10.8334995 159.612,10.6970009 159.612,10.517 L159.612,9.428 L161.097,9.14 L161.646,6.863 C161.718,6.57499856 161.921998,6.431 162.258,6.431 L163.716,6.431 L163.716,9.158 L165.984,9.158 L165.984,11.066 L163.716,11.066 L163.716,15.701 C163.716,15.9170011 163.768499,16.0954993 163.8735,16.2365 C163.978501,16.3775007 164.129999,16.448 164.328,16.448 C164.430001,16.448 164.5155,16.4375001 164.5845,16.4165 C164.6535,16.3954999 164.7135,16.3715001 164.7645,16.3445 C164.8155,16.3174999 164.8635,16.2935001 164.9085,16.2725 C164.9535,16.2514999 165.006,16.241 165.066,16.241 C165.15,16.241 165.2175,16.2604998 165.2685,16.2995 C165.3195,16.3385002 165.372,16.3999996 165.426,16.484 L166.272,17.807 C165.911998,18.0770013 165.507002,18.2794993 165.057,18.4145 C164.606998,18.5495007 164.142002,18.617 163.662,18.617 Z M170.862,18.617 C170.417998,18.617 170.026502,18.5525006 169.6875,18.4235 C169.348498,18.2944994 169.063501,18.1115012 168.8325,17.8745 C168.601499,17.6374988 168.426001,17.3510017 168.306,17.015 C168.185999,16.6789983 168.126,16.3040021 168.126,15.89 L168.126,11.066 L167.334,11.066 C167.189999,11.066 167.067001,11.0195005 166.965,10.9265 C166.862999,10.8334995 166.812,10.6970009 166.812,10.517 L166.812,9.428 L168.297,9.14 L168.846,6.863 C168.918,6.57499856 169.121998,6.431 169.458,6.431 L170.916,6.431 L170.916,9.158 L173.184,9.158 L173.184,11.066 L170.916,11.066 L170.916,15.701 C170.916,15.9170011 170.968499,16.0954993 171.0735,16.2365 C171.178501,16.3775007 171.329999,16.448 171.528,16.448 C171.630001,16.448 171.7155,16.4375001 171.7845,16.4165 C171.8535,16.3954999 171.9135,16.3715001 171.9645,16.3445 C172.0155,16.3174999 172.0635,16.2935001 172.1085,16.2725 C172.1535,16.2514999 172.206,16.241 172.266,16.241 C172.35,16.241 172.4175,16.2604998 172.4685,16.2995 C172.5195,16.3385002 172.572,16.3999996 172.626,16.484 L173.472,17.807 C173.111998,18.0770013 172.707002,18.2794993 172.257,18.4145 C171.806998,18.5495007 171.342002,18.617 170.862,18.617 Z M180.492,11.183 C180.42,11.2970006 180.3435,11.3779998 180.2625,11.426 C180.1815,11.4740002 180.078001,11.498 179.952,11.498 C179.819999,11.498 179.688001,11.4695003 179.556,11.4125 C179.423999,11.3554997 179.281501,11.2940003 179.1285,11.228 C178.975499,11.1619997 178.803001,11.1005003 178.611,11.0435 C178.418999,10.9864997 178.200001,10.958 177.954,10.958 C177.599998,10.958 177.328501,11.0254993 177.1395,11.1605 C176.950499,11.2955007 176.856,11.4829988 176.856,11.723 C176.856,11.8970009 176.917499,12.0409994 177.0405,12.155 C177.163501,12.2690006 177.326999,12.3694996 177.531,12.4565 C177.735001,12.5435004 177.965999,12.6259996 178.224,12.704 C178.482001,12.7820004 178.745999,12.8689995 179.016,12.965 C179.286001,13.0610005 179.549999,13.1734994 179.808,13.3025 C180.066001,13.4315006 180.296999,13.5904991 180.501,13.7795 C180.705001,13.9685009 180.868499,14.1979986 180.9915,14.468 C181.114501,14.7380013 181.176,15.0619981 181.176,15.44 C181.176,15.9020023 181.092001,16.3279981 180.924,16.718 C180.755999,17.1080019 180.505502,17.4439986 180.1725,17.726 C179.839498,18.0080014 179.428502,18.2269992 178.9395,18.383 C178.450498,18.5390008 177.888003,18.617 177.252,18.617 C176.933998,18.617 176.616002,18.5870003 176.298,18.527 C175.979998,18.4669997 175.672501,18.3860005 175.3755,18.284 C175.078499,18.1819995 174.804001,18.0605007 174.552,17.9195 C174.299999,17.7784993 174.084001,17.6270008 173.904,17.465 L174.552,16.439 C174.63,16.3189994 174.722999,16.2245003 174.831,16.1555 C174.939001,16.0864997 175.079999,16.052 175.254,16.052 C175.416001,16.052 175.561499,16.0879996 175.6905,16.16 C175.819501,16.2320004 175.958999,16.3099996 176.109,16.394 C176.259001,16.4780004 176.434499,16.5559996 176.6355,16.628 C176.836501,16.7000004 177.089998,16.736 177.396,16.736 C177.612001,16.736 177.794999,16.7135002 177.945,16.6685 C178.095001,16.6234998 178.215,16.5620004 178.305,16.484 C178.395,16.4059996 178.461,16.3190005 178.503,16.223 C178.545,16.1269995 178.566,16.0280005 178.566,15.926 C178.566,15.7399991 178.503001,15.5870006 178.377,15.467 C178.250999,15.3469994 178.086001,15.2435004 177.882,15.1565 C177.677999,15.0694996 177.445501,14.9885004 177.1845,14.9135 C176.923499,14.8384996 176.658001,14.7530005 176.388,14.657 C176.117999,14.5609995 175.852501,14.4455007 175.5915,14.3105 C175.330499,14.1754993 175.098001,14.004501 174.894,13.7975 C174.689999,13.590499 174.525001,13.3370015 174.399,13.037 C174.272999,12.7369985 174.21,12.3740021 174.21,11.948 C174.21,11.551998 174.286499,11.1755018 174.4395,10.8185 C174.592501,10.4614982 174.821998,10.1480014 175.128,9.878 C175.434002,9.60799865 175.817998,9.39350079 176.28,9.2345 C176.742002,9.0754992 177.281997,8.996 177.9,8.996 C178.236002,8.996 178.561498,9.0259997 178.8765,9.086 C179.191502,9.1460003 179.486999,9.22999946 179.763,9.338 C180.039001,9.44600054 180.290999,9.57349927 180.519,9.7205 C180.747001,9.86750074 180.947999,10.0279991 181.122,10.202 L180.492,11.183 Z M186.18,18.473 L186.18,5.36 L191.004,5.36 C191.910005,5.36 192.680997,5.44399916 193.317,5.612 C193.953003,5.78000084 194.471998,6.01699847 194.874,6.323 C195.276002,6.62900153 195.568499,7.00099781 195.7515,7.439 C195.934501,7.87700219 196.026,8.3659973 196.026,8.906 C196.026,9.20000147 195.984,9.48349863 195.9,9.7565 C195.816,10.0295014 195.684001,10.2859988 195.504,10.526 C195.323999,10.7660012 195.093001,10.983499 194.811,11.1785 C194.528999,11.373501 194.190002,11.5429993 193.794,11.687 C194.658004,11.8970011 195.296998,12.2374976 195.711,12.7085 C196.125002,13.1795024 196.332,13.7839963 196.332,14.522 C196.332,15.0800028 196.224001,15.5989976 196.008,16.079 C195.791999,16.5590024 195.475502,16.9774982 195.0585,17.3345 C194.641498,17.6915018 194.127003,17.970499 193.515,18.1715 C192.902997,18.372501 192.204004,18.473 191.418,18.473 L186.18,18.473 Z M189.222,12.911 L189.222,16.178 L191.364,16.178 C191.766002,16.178 192.094499,16.1270005 192.3495,16.025 C192.604501,15.9229995 192.803999,15.7910008 192.948,15.629 C193.092001,15.4669992 193.191,15.284001 193.245,15.08 C193.299,14.875999 193.326,14.669001 193.326,14.459 C193.326,14.2189988 193.2945,14.003001 193.2315,13.811 C193.1685,13.618999 193.060501,13.4570007 192.9075,13.325 C192.754499,13.1929993 192.552001,13.0910004 192.3,13.019 C192.047999,12.9469996 191.730002,12.911 191.346,12.911 L189.222,12.911 Z M189.222,10.877 L190.806,10.877 C191.142002,10.877 191.444999,10.8530002 191.715,10.805 C191.985001,10.7569998 192.214499,10.6730006 192.4035,10.553 C192.592501,10.4329994 192.7365,10.268001 192.8355,10.058 C192.9345,9.84799895 192.984,9.58400159 192.984,9.266 C192.984,8.95399844 192.945,8.69450104 192.867,8.4875 C192.789,8.28049896 192.669001,8.11400063 192.507,7.988 C192.344999,7.86199937 192.139501,7.77200027 191.8905,7.718 C191.641499,7.66399973 191.346002,7.637 191.004,7.637 L189.222,7.637 L189.222,10.877 Z M204.432,18.473 C204.167999,18.473 203.968501,18.4370004 203.8335,18.365 C203.698499,18.2929996 203.586,18.1430011 203.496,17.915 L203.298,17.402 C203.063999,17.600001 202.839001,17.7739992 202.623,17.924 C202.406999,18.0740007 202.183501,18.2014995 201.9525,18.3065 C201.721499,18.4115005 201.475501,18.4894997 201.2145,18.5405 C200.953499,18.5915003 200.664002,18.617 200.346,18.617 C199.919998,18.617 199.533002,18.5615006 199.185,18.4505 C198.836998,18.3394994 198.541501,18.1760011 198.2985,17.96 C198.055499,17.7439989 197.868001,17.4755016 197.736,17.1545 C197.603999,16.8334984 197.538,16.4630021 197.538,16.043 C197.538,15.7129983 197.621999,15.3740017 197.79,15.026 C197.958001,14.6779983 198.248998,14.3615014 198.663,14.0765 C199.077002,13.7914986 199.634996,13.553001 200.337,13.361 C201.039004,13.168999 201.923995,13.0610001 202.992,13.037 L202.992,12.641 C202.992,12.0949973 202.879501,11.7005012 202.6545,11.4575 C202.429499,11.2144988 202.110002,11.093 201.696,11.093 C201.365998,11.093 201.096001,11.1289996 200.886,11.201 C200.675999,11.2730004 200.488501,11.3539995 200.3235,11.444 C200.158499,11.5340005 199.998001,11.6149996 199.842,11.687 C199.685999,11.7590004 199.500001,11.795 199.284,11.795 C199.091999,11.795 198.928501,11.7485005 198.7935,11.6555 C198.658499,11.5624995 198.552,11.4470007 198.474,11.309 L197.97,10.436 C198.534003,9.93799751 199.159497,9.56750122 199.8465,9.3245 C200.533503,9.08149878 201.269996,8.96 202.056,8.96 C202.620003,8.96 203.128498,9.05149908 203.5815,9.2345 C204.034502,9.41750091 204.418498,9.67249836 204.7335,9.9995 C205.048502,10.3265016 205.289999,10.7149977 205.458,11.165 C205.626001,11.6150022 205.71,12.1069973 205.71,12.641 L205.71,18.473 L204.432,18.473 Z M201.228,16.772 C201.588002,16.772 201.902999,16.7090006 202.173,16.583 C202.443001,16.4569994 202.715999,16.2530014 202.992,15.971 L202.992,14.675 C202.433997,14.6990001 201.975002,14.7469996 201.615,14.819 C201.254998,14.8910004 200.970001,14.9809995 200.76,15.089 C200.549999,15.1970005 200.4045,15.3199993 200.3235,15.458 C200.2425,15.5960007 200.202,15.7459992 200.202,15.908 C200.202,16.2260016 200.288999,16.4494994 200.463,16.5785 C200.637001,16.7075006 200.891998,16.772 201.228,16.772 Z M211.146,20.894 C211.062,21.0800009 210.960001,21.2164996 210.84,21.3035 C210.719999,21.3905004 210.528001,21.434 210.264,21.434 L208.176,21.434 L209.976,17.654 L206.25,9.14 L208.716,9.14 C208.932001,9.14 209.099999,9.18799952 209.22,9.284 C209.340001,9.38000048 209.424,9.49399934 209.472,9.626 L211.002,13.649 C211.146001,14.0210019 211.263,14.3929981 211.353,14.765 C211.413,14.572999 211.479,14.3840009 211.551,14.198 C211.623,14.0119991 211.692,13.823001 211.758,13.631 L213.144,9.626 C213.192,9.48799931 213.286499,9.37250046 213.4275,9.2795 C213.568501,9.18649953 213.719999,9.14 213.882,9.14 L216.132,9.14 L211.146,20.894 Z M70.422,27.36 L70.422,29.772 L66.732,29.772 L66.732,40.473 L63.69,40.473 L63.69,29.772 L60,29.772 L60,27.36 L70.422,27.36 Z M70.242,40.473 L70.242,31.14 L71.898,31.14 C72.0360007,31.14 72.1514995,31.1519999 72.2445,31.176 C72.3375005,31.2000001 72.4154997,31.2374997 72.4785,31.2885 C72.5415003,31.3395003 72.5894998,31.4069996 72.6225,31.491 C72.6555002,31.5750004 72.6839999,31.6769994 72.708,31.797 L72.861,32.67 C73.2030017,32.1419974 73.5869979,31.7250015 74.013,31.419 C74.4390021,31.1129985 74.9039975,30.96 75.408,30.96 C75.8340021,30.96 76.1759987,31.061999 76.434,31.266 L76.074,33.318 C76.0499999,33.4440006 76.0020004,33.5324997 75.93,33.5835 C75.8579996,33.6345003 75.7620006,33.66 75.642,33.66 C75.5399995,33.66 75.4200007,33.6465001 75.282,33.6195 C75.1439993,33.5924999 74.9700011,33.579 74.76,33.579 C74.0279963,33.579 73.4520021,33.9689961 73.032,34.749 L73.032,40.473 L70.242,40.473 Z M83.94,40.473 C83.6759987,40.473 83.4765007,40.4370004 83.3415,40.365 C83.2064993,40.2929996 83.0940005,40.1430011 83.004,39.915 L82.806,39.402 C82.5719988,39.600001 82.3470011,39.7739993 82.131,39.924 C81.9149989,40.0740007 81.6915012,40.2014995 81.4605,40.3065 C81.2294988,40.4115005 80.9835013,40.4894997 80.7225,40.5405 C80.4614987,40.5915003 80.1720016,40.617 79.854,40.617 C79.4279979,40.617 79.0410017,40.5615006 78.693,40.4505 C78.3449983,40.3394994 78.0495012,40.1760011 77.8065,39.96 C77.5634988,39.7439989 77.3760007,39.4755016 77.244,39.1545 C77.1119993,38.8334984 77.046,38.4630021 77.046,38.043 C77.046,37.7129984 77.1299992,37.3740017 77.298,37.026 C77.4660008,36.6779983 77.7569979,36.3615014 78.171,36.0765 C78.5850021,35.7914986 79.1429965,35.553001 79.845,35.361 C80.5470035,35.168999 81.4319947,35.0610001 82.5,35.037 L82.5,34.641 C82.5,34.0949973 82.3875011,33.7005012 82.1625,33.4575 C81.9374989,33.2144988 81.6180021,33.093 81.204,33.093 C80.8739983,33.093 80.604001,33.1289996 80.394,33.201 C80.1839989,33.2730004 79.9965008,33.3539995 79.8315,33.444 C79.6664992,33.5340004 79.5060008,33.6149996 79.35,33.687 C79.1939992,33.7590004 79.0080011,33.795 78.792,33.795 C78.599999,33.795 78.4365007,33.7485005 78.3015,33.6555 C78.1664993,33.5624995 78.0600004,33.4470007 77.982,33.309 L77.478,32.436 C78.0420028,31.9379975 78.6674966,31.5675012 79.3545,31.3245 C80.0415034,31.0814988 80.7779961,30.96 81.564,30.96 C82.1280028,30.96 82.6364977,31.0514991 83.0895,31.2345 C83.5425023,31.4175009 83.9264984,31.6724984 84.2415,31.9995 C84.5565016,32.3265016 84.7979992,32.7149977 84.966,33.165 C85.1340008,33.6150023 85.218,34.1069973 85.218,34.641 L85.218,40.473 L83.94,40.473 Z M80.736,38.772 C81.0960018,38.772 81.4109987,38.7090006 81.681,38.583 C81.9510014,38.4569994 82.2239986,38.2530014 82.5,37.971 L82.5,36.675 C81.9419972,36.6990001 81.4830018,36.7469996 81.123,36.819 C80.7629982,36.8910004 80.478001,36.9809995 80.268,37.089 C80.0579989,37.1970005 79.9125004,37.3199993 79.8315,37.458 C79.7504996,37.5960007 79.71,37.7459992 79.71,37.908 C79.71,38.2260016 79.7969991,38.4494994 79.971,38.5785 C80.1450009,38.7075006 80.3999983,38.772 80.736,38.772 Z M87.198,40.473 L87.198,31.14 L88.926,31.14 C89.1000009,31.14 89.2454994,31.1789996 89.3625,31.257 C89.4795006,31.3350004 89.5619998,31.4519992 89.61,31.608 L89.772,32.148 C89.9520009,31.9799992 90.137999,31.8240007 90.33,31.68 C90.522001,31.5359993 90.7274989,31.4145005 90.9465,31.3155 C91.1655011,31.2164995 91.4024987,31.1385003 91.6575,31.0815 C91.9125013,31.0244997 92.1899985,30.996 92.49,30.996 C93.0000026,30.996 93.451498,31.0844991 93.8445,31.2615 C94.237502,31.4385009 94.5689986,31.6844984 94.839,31.9995 C95.1090013,32.3145016 95.3129993,32.6894978 95.451,33.1245 C95.5890007,33.5595022 95.658,34.0319974 95.658,34.542 L95.658,40.473 L92.868,40.473 L92.868,34.542 C92.868,34.0859977 92.763001,33.7305013 92.553,33.4755 C92.3429989,33.2204987 92.034002,33.093 91.626,33.093 C91.3199985,33.093 91.0320014,33.1589993 90.762,33.291 C90.4919986,33.4230007 90.2340012,33.5999989 89.988,33.822 L89.988,40.473 L87.198,40.473 Z M103.344,33.183 C103.272,33.2970006 103.1955,33.3779998 103.1145,33.426 C103.0335,33.4740002 102.930001,33.498 102.804,33.498 C102.671999,33.498 102.540001,33.4695003 102.408,33.4125 C102.275999,33.3554997 102.133501,33.2940003 101.9805,33.228 C101.827499,33.1619997 101.655001,33.1005003 101.463,33.0435 C101.270999,32.9864997 101.052001,32.958 100.806,32.958 C100.451998,32.958 100.180501,33.0254993 99.9915,33.1605 C99.8024991,33.2955007 99.708,33.4829988 99.708,33.723 C99.708,33.8970009 99.7694994,34.0409994 99.8925,34.155 C100.015501,34.2690006 100.178999,34.3694996 100.383,34.4565 C100.587001,34.5435004 100.817999,34.6259996 101.076,34.704 C101.334001,34.7820004 101.597999,34.8689995 101.868,34.965 C102.138001,35.0610005 102.401999,35.1734994 102.66,35.3025 C102.918001,35.4315006 103.148999,35.5904991 103.353,35.7795 C103.557001,35.9685009 103.720499,36.1979987 103.8435,36.468 C103.966501,36.7380013 104.028,37.0619981 104.028,37.44 C104.028,37.9020023 103.944001,38.327998 103.776,38.718 C103.607999,39.108002 103.357502,39.4439986 103.0245,39.726 C102.691498,40.0080014 102.280502,40.2269992 101.7915,40.383 C101.302498,40.5390008 100.740003,40.617 100.104,40.617 C99.7859984,40.617 99.4680016,40.5870003 99.15,40.527 C98.8319984,40.4669997 98.5245015,40.3860005 98.2275,40.284 C97.9304985,40.1819995 97.6560013,40.0605007 97.404,39.9195 C97.1519987,39.7784993 96.9360009,39.6270008 96.756,39.465 L97.404,38.439 C97.4820004,38.3189994 97.5749995,38.2245003 97.683,38.1555 C97.7910005,38.0864997 97.9319991,38.052 98.106,38.052 C98.2680008,38.052 98.4134994,38.0879996 98.5425,38.16 C98.6715006,38.2320004 98.8109992,38.3099996 98.961,38.394 C99.1110007,38.4780004 99.286499,38.5559996 99.4875,38.628 C99.688501,38.7000004 99.9419985,38.736 100.248,38.736 C100.464001,38.736 100.646999,38.7135002 100.797,38.6685 C100.947001,38.6234998 101.067,38.5620004 101.157,38.484 C101.247,38.4059996 101.313,38.3190005 101.355,38.223 C101.397,38.1269995 101.418,38.0280005 101.418,37.926 C101.418,37.7399991 101.355001,37.5870006 101.229,37.467 C101.102999,37.3469994 100.938001,37.2435004 100.734,37.1565 C100.529999,37.0694996 100.297501,36.9885004 100.0365,36.9135 C99.7754987,36.8384996 99.5100014,36.7530005 99.24,36.657 C98.9699987,36.5609995 98.7045013,36.4455007 98.4435,36.3105 C98.1824987,36.1754993 97.950001,36.004501 97.746,35.7975 C97.541999,35.590499 97.3770006,35.3370015 97.251,35.037 C97.1249994,34.7369985 97.062,34.3740021 97.062,33.948 C97.062,33.551998 97.1384992,33.1755018 97.2915,32.8185 C97.4445008,32.4614982 97.6739985,32.1480014 97.98,31.878 C98.2860015,31.6079986 98.6699977,31.3935008 99.132,31.2345 C99.5940023,31.0754992 100.133997,30.996 100.752,30.996 C101.088002,30.996 101.413498,31.0259997 101.7285,31.086 C102.043502,31.1460003 102.338999,31.2299995 102.615,31.338 C102.891001,31.4460005 103.142999,31.5734993 103.371,31.7205 C103.599001,31.8675007 103.799999,32.0279991 103.974,32.202 L103.344,33.183 Z M105.558,43.434 L105.558,31.14 L107.286,31.14 C107.460001,31.14 107.605499,31.1789996 107.7225,31.257 C107.839501,31.3350004 107.922,31.4519992 107.97,31.608 L108.177,32.292 C108.357001,32.093999 108.550499,31.9140008 108.7575,31.752 C108.964501,31.5899992 109.186499,31.4505006 109.4235,31.3335 C109.660501,31.2164994 109.915499,31.1250003 110.1885,31.059 C110.461501,30.9929997 110.759998,30.96 111.084,30.96 C111.570002,30.96 112.019998,31.0679989 112.434,31.284 C112.848002,31.5000011 113.204998,31.811998 113.505,32.22 C113.805002,32.628002 114.040499,33.127497 114.2115,33.7185 C114.382501,34.309503 114.468,34.9799962 114.468,35.73 C114.468,36.4320035 114.370501,37.079997 114.1755,37.674 C113.980499,38.268003 113.707502,38.7839978 113.3565,39.222 C113.005498,39.6600022 112.585502,40.0019988 112.0965,40.248 C111.607498,40.4940012 111.066003,40.617 110.472,40.617 C109.985998,40.617 109.578002,40.5480007 109.248,40.41 C108.917998,40.2719993 108.618001,40.0860012 108.348,39.852 L108.348,43.434 L105.558,43.434 Z M110.112,33.093 C109.907999,33.093 109.723501,33.1124998 109.5585,33.1515 C109.393499,33.1905002 109.240501,33.2459996 109.0995,33.318 C108.958499,33.3900004 108.828001,33.4814994 108.708,33.5925 C108.587999,33.7035006 108.468001,33.8309993 108.348,33.975 L108.348,37.935 C108.558001,38.1690012 108.785999,38.3324995 109.032,38.4255 C109.278001,38.5185005 109.535999,38.565 109.806,38.565 C110.064001,38.565 110.300999,38.5140005 110.517,38.412 C110.733001,38.3099995 110.920499,38.1465011 111.0795,37.9215 C111.238501,37.6964989 111.363,37.4040018 111.453,37.044 C111.543,36.6839982 111.588,36.2460026 111.588,35.73 C111.588,35.2379975 111.552,34.8240017 111.48,34.488 C111.408,34.1519983 111.307501,33.880501 111.1785,33.6735 C111.049499,33.466499 110.895001,33.3180004 110.715,33.228 C110.534999,33.1379995 110.334001,33.093 110.112,33.093 Z M120.12,30.996 C120.828004,30.996 121.472997,31.1069989 122.055,31.329 C122.637003,31.5510011 123.136498,31.8689979 123.5535,32.283 C123.970502,32.6970021 124.294499,33.199497 124.5255,33.7905 C124.756501,34.381503 124.872,35.0459963 124.872,35.784 C124.872,36.5280037 124.756501,37.198497 124.5255,37.7955 C124.294499,38.392503 123.970502,38.8994979 123.5535,39.3165 C123.136498,39.7335021 122.637003,40.0544989 122.055,40.2795 C121.472997,40.5045011 120.828004,40.617 120.12,40.617 C119.405996,40.617 118.756503,40.5045011 118.1715,40.2795 C117.586497,40.0544989 117.082502,39.7335021 116.6595,39.3165 C116.236498,38.8994979 115.909501,38.392503 115.6785,37.7955 C115.447499,37.198497 115.332,36.5280037 115.332,35.784 C115.332,35.0459963 115.447499,34.381503 115.6785,33.7905 C115.909501,33.199497 116.236498,32.6970021 116.6595,32.283 C117.082502,31.8689979 117.586497,31.5510011 118.1715,31.329 C118.756503,31.1069989 119.405996,30.996 120.12,30.996 Z M120.12,38.547 C120.762003,38.547 121.234498,38.3205023 121.5375,37.8675 C121.840502,37.4144977 121.992,36.7260046 121.992,35.802 C121.992,34.8779954 121.840502,34.1910022 121.5375,33.741 C121.234498,33.2909978 120.762003,33.066 120.12,33.066 C119.459997,33.066 118.977002,33.2909978 118.671,33.741 C118.364998,34.1910022 118.212,34.8779954 118.212,35.802 C118.212,36.7260046 118.364998,37.4144977 118.671,37.8675 C118.977002,38.3205023 119.459997,38.547 120.12,38.547 Z M126.402,40.473 L126.402,31.14 L128.058,31.14 C128.196001,31.14 128.3115,31.1519999 128.4045,31.176 C128.4975,31.2000001 128.5755,31.2374997 128.6385,31.2885 C128.7015,31.3395003 128.7495,31.4069996 128.7825,31.491 C128.8155,31.5750004 128.844,31.6769994 128.868,31.797 L129.021,32.67 C129.363002,32.1419974 129.746998,31.7250015 130.173,31.419 C130.599002,31.1129985 131.063997,30.96 131.568,30.96 C131.994002,30.96 132.335999,31.061999 132.594,31.266 L132.234,33.318 C132.21,33.4440006 132.162,33.5324997 132.09,33.5835 C132.018,33.6345003 131.922001,33.66 131.802,33.66 C131.699999,33.66 131.580001,33.6465001 131.442,33.6195 C131.303999,33.5924999 131.130001,33.579 130.92,33.579 C130.187996,33.579 129.612002,33.9689961 129.192,34.749 L129.192,40.473 L126.402,40.473 Z M137.112,40.617 C136.667998,40.617 136.276502,40.5525006 135.9375,40.4235 C135.598498,40.2944994 135.313501,40.1115012 135.0825,39.8745 C134.851499,39.6374988 134.676001,39.3510017 134.556,39.015 C134.435999,38.6789983 134.376,38.3040021 134.376,37.89 L134.376,33.066 L133.584,33.066 C133.439999,33.066 133.317001,33.0195005 133.215,32.9265 C133.112999,32.8334995 133.062,32.6970009 133.062,32.517 L133.062,31.428 L134.547,31.14 L135.096,28.863 C135.168,28.5749986 135.371998,28.431 135.708,28.431 L137.166,28.431 L137.166,31.158 L139.434,31.158 L139.434,33.066 L137.166,33.066 L137.166,37.701 C137.166,37.9170011 137.218499,38.0954993 137.3235,38.2365 C137.428501,38.3775007 137.579999,38.448 137.778,38.448 C137.880001,38.448 137.9655,38.4375001 138.0345,38.4165 C138.1035,38.3954999 138.1635,38.3715001 138.2145,38.3445 C138.2655,38.3174999 138.3135,38.2935001 138.3585,38.2725 C138.4035,38.2514999 138.456,38.241 138.516,38.241 C138.6,38.241 138.6675,38.2604998 138.7185,38.2995 C138.7695,38.3385002 138.822,38.3999996 138.876,38.484 L139.722,39.807 C139.361998,40.0770013 138.957002,40.2794993 138.507,40.4145 C138.056998,40.5495007 137.592002,40.617 137.112,40.617 Z M147.48,40.473 C147.215999,40.473 147.016501,40.4370004 146.8815,40.365 C146.746499,40.2929996 146.634,40.1430011 146.544,39.915 L146.346,39.402 C146.111999,39.600001 145.887001,39.7739993 145.671,39.924 C145.454999,40.0740007 145.231501,40.2014995 145.0005,40.3065 C144.769499,40.4115005 144.523501,40.4894997 144.2625,40.5405 C144.001499,40.5915003 143.712002,40.617 143.394,40.617 C142.967998,40.617 142.581002,40.5615006 142.233,40.4505 C141.884998,40.3394994 141.589501,40.1760011 141.3465,39.96 C141.103499,39.7439989 140.916001,39.4755016 140.784,39.1545 C140.651999,38.8334984 140.586,38.4630021 140.586,38.043 C140.586,37.7129984 140.669999,37.3740017 140.838,37.026 C141.006001,36.6779983 141.296998,36.3615014 141.711,36.0765 C142.125002,35.7914986 142.682996,35.553001 143.385,35.361 C144.087004,35.168999 144.971995,35.0610001 146.04,35.037 L146.04,34.641 C146.04,34.0949973 145.927501,33.7005012 145.7025,33.4575 C145.477499,33.2144988 145.158002,33.093 144.744,33.093 C144.413998,33.093 144.144001,33.1289996 143.934,33.201 C143.723999,33.2730004 143.536501,33.3539995 143.3715,33.444 C143.206499,33.5340004 143.046001,33.6149996 142.89,33.687 C142.733999,33.7590004 142.548001,33.795 142.332,33.795 C142.139999,33.795 141.976501,33.7485005 141.8415,33.6555 C141.706499,33.5624995 141.6,33.4470007 141.522,33.309 L141.018,32.436 C141.582003,31.9379975 142.207497,31.5675012 142.8945,31.3245 C143.581503,31.0814988 144.317996,30.96 145.104,30.96 C145.668003,30.96 146.176498,31.0514991 146.6295,31.2345 C147.082502,31.4175009 147.466498,31.6724984 147.7815,31.9995 C148.096502,32.3265016 148.337999,32.7149977 148.506,33.165 C148.674001,33.6150023 148.758,34.1069973 148.758,34.641 L148.758,40.473 L147.48,40.473 Z M144.276,38.772 C144.636002,38.772 144.950999,38.7090006 145.221,38.583 C145.491001,38.4569994 145.763999,38.2530014 146.04,37.971 L146.04,36.675 C145.481997,36.6990001 145.023002,36.7469996 144.663,36.819 C144.302998,36.8910004 144.018001,36.9809995 143.808,37.089 C143.597999,37.1970005 143.4525,37.3199993 143.3715,37.458 C143.2905,37.5960007 143.25,37.7459992 143.25,37.908 C143.25,38.2260016 143.336999,38.4494994 143.511,38.5785 C143.685001,38.7075006 143.939998,38.772 144.276,38.772 Z M154.014,40.617 C153.569998,40.617 153.178502,40.5525006 152.8395,40.4235 C152.500498,40.2944994 152.215501,40.1115012 151.9845,39.8745 C151.753499,39.6374988 151.578001,39.3510017 151.458,39.015 C151.337999,38.6789983 151.278,38.3040021 151.278,37.89 L151.278,33.066 L150.486,33.066 C150.341999,33.066 150.219001,33.0195005 150.117,32.9265 C150.014999,32.8334995 149.964,32.6970009 149.964,32.517 L149.964,31.428 L151.449,31.14 L151.998,28.863 C152.07,28.5749986 152.273998,28.431 152.61,28.431 L154.068,28.431 L154.068,31.158 L156.336,31.158 L156.336,33.066 L154.068,33.066 L154.068,37.701 C154.068,37.9170011 154.120499,38.0954993 154.2255,38.2365 C154.330501,38.3775007 154.481999,38.448 154.68,38.448 C154.782001,38.448 154.8675,38.4375001 154.9365,38.4165 C155.0055,38.3954999 155.0655,38.3715001 155.1165,38.3445 C155.1675,38.3174999 155.2155,38.2935001 155.2605,38.2725 C155.3055,38.2514999 155.358,38.241 155.418,38.241 C155.502,38.241 155.5695,38.2604998 155.6205,38.2995 C155.6715,38.3385002 155.724,38.3999996 155.778,38.484 L156.624,39.807 C156.263998,40.0770013 155.859002,40.2794993 155.409,40.4145 C154.958998,40.5495007 154.494002,40.617 154.014,40.617 Z M160.818,31.14 L160.818,40.473 L158.028,40.473 L158.028,31.14 L160.818,31.14 Z M161.142,28.584 C161.142,28.8060011 161.097,29.014499 161.007,29.2095 C160.917,29.404501 160.794001,29.5754993 160.638,29.7225 C160.481999,29.8695007 160.300501,29.9864996 160.0935,30.0735 C159.886499,30.1605004 159.666001,30.204 159.432,30.204 C159.203999,30.204 158.991001,30.1605004 158.793,30.0735 C158.594999,29.9864996 158.419501,29.8695007 158.2665,29.7225 C158.113499,29.5754993 157.9935,29.404501 157.9065,29.2095 C157.8195,29.014499 157.776,28.8060011 157.776,28.584 C157.776,28.3559989 157.8195,28.143001 157.9065,27.945 C157.9935,27.746999 158.113499,27.5730007 158.2665,27.423 C158.419501,27.2729992 158.594999,27.1560004 158.793,27.072 C158.991001,26.9879996 159.203999,26.946 159.432,26.946 C159.666001,26.946 159.886499,26.9879996 160.0935,27.072 C160.300501,27.1560004 160.481999,27.2729992 160.638,27.423 C160.794001,27.5730007 160.917,27.746999 161.007,27.945 C161.097,28.143001 161.142,28.3559989 161.142,28.584 Z M167.226,30.996 C167.934004,30.996 168.578997,31.1069989 169.161,31.329 C169.743003,31.5510011 170.242498,31.8689979 170.6595,32.283 C171.076502,32.6970021 171.400499,33.199497 171.6315,33.7905 C171.862501,34.381503 171.978,35.0459963 171.978,35.784 C171.978,36.5280037 171.862501,37.198497 171.6315,37.7955 C171.400499,38.392503 171.076502,38.8994979 170.6595,39.3165 C170.242498,39.7335021 169.743003,40.0544989 169.161,40.2795 C168.578997,40.5045011 167.934004,40.617 167.226,40.617 C166.511996,40.617 165.862503,40.5045011 165.2775,40.2795 C164.692497,40.0544989 164.188502,39.7335021 163.7655,39.3165 C163.342498,38.8994979 163.015501,38.392503 162.7845,37.7955 C162.553499,37.198497 162.438,36.5280037 162.438,35.784 C162.438,35.0459963 162.553499,34.381503 162.7845,33.7905 C163.015501,33.199497 163.342498,32.6970021 163.7655,32.283 C164.188502,31.8689979 164.692497,31.5510011 165.2775,31.329 C165.862503,31.1069989 166.511996,30.996 167.226,30.996 Z M167.226,38.547 C167.868003,38.547 168.340498,38.3205023 168.6435,37.8675 C168.946502,37.4144977 169.098,36.7260046 169.098,35.802 C169.098,34.8779954 168.946502,34.1910022 168.6435,33.741 C168.340498,33.2909978 167.868003,33.066 167.226,33.066 C166.565997,33.066 166.083002,33.2909978 165.777,33.741 C165.470998,34.1910022 165.318,34.8779954 165.318,35.802 C165.318,36.7260046 165.470998,37.4144977 165.777,37.8675 C166.083002,38.3205023 166.565997,38.547 167.226,38.547 Z M173.508,40.473 L173.508,31.14 L175.236,31.14 C175.410001,31.14 175.555499,31.1789996 175.6725,31.257 C175.789501,31.3350004 175.872,31.4519992 175.92,31.608 L176.082,32.148 C176.262001,31.9799992 176.447999,31.8240007 176.64,31.68 C176.832001,31.5359993 177.037499,31.4145005 177.2565,31.3155 C177.475501,31.2164995 177.712499,31.1385003 177.9675,31.0815 C178.222501,31.0244997 178.499998,30.996 178.8,30.996 C179.310003,30.996 179.761498,31.0844991 180.1545,31.2615 C180.547502,31.4385009 180.878999,31.6844984 181.149,31.9995 C181.419001,32.3145016 181.622999,32.6894978 181.761,33.1245 C181.899001,33.5595022 181.968,34.0319974 181.968,34.542 L181.968,40.473 L179.178,40.473 L179.178,34.542 C179.178,34.0859977 179.073001,33.7305013 178.863,33.4755 C178.652999,33.2204987 178.344002,33.093 177.936,33.093 C177.629998,33.093 177.342001,33.1589993 177.072,33.291 C176.801999,33.4230007 176.544001,33.5999989 176.298,33.822 L176.298,40.473 L173.508,40.473 Z M199.626,40.473 L197.268,40.473 C197.003999,40.473 196.786501,40.4115006 196.6155,40.2885 C196.444499,40.1654994 196.326,40.008001 196.26,39.816 L195.486,37.53 L190.5,37.53 L189.726,39.816 C189.666,39.9840008 189.549001,40.1354993 189.375,40.2705 C189.200999,40.4055007 188.988001,40.473 188.736,40.473 L186.36,40.473 L191.436,27.36 L194.55,27.36 L199.626,40.473 Z M191.202,35.46 L194.784,35.46 L193.578,31.869 C193.5,31.6409989 193.408501,31.3725015 193.3035,31.0635 C193.198499,30.7544985 193.095001,30.4200018 192.993,30.06 C192.897,30.4260018 192.798001,30.7649984 192.696,31.077 C192.593999,31.3890016 192.498,31.6589989 192.408,31.887 L191.202,35.46 Z M203.298,31.14 L203.298,37.062 C203.298,37.5240023 203.402999,37.8809987 203.613,38.133 C203.823001,38.3850013 204.131998,38.511 204.54,38.511 C204.846002,38.511 205.132499,38.4480006 205.3995,38.322 C205.666501,38.1959994 205.925999,38.0190011 206.178,37.791 L206.178,31.14 L208.968,31.14 L208.968,40.473 L207.24,40.473 C206.891998,40.473 206.664001,40.3170016 206.556,40.005 L206.385,39.465 C206.204999,39.6390009 206.019001,39.7964993 205.827,39.9375 C205.634999,40.0785007 205.429501,40.1984995 205.2105,40.2975 C204.991499,40.3965005 204.756001,40.4744997 204.504,40.5315 C204.251999,40.5885003 203.976001,40.617 203.676,40.617 C203.165997,40.617 202.714502,40.5285009 202.3215,40.3515 C201.928498,40.1744991 201.597001,39.9270016 201.327,39.609 C201.056999,39.2909984 200.853001,38.9160022 200.715,38.484 C200.576999,38.0519978 200.508,37.5780026 200.508,37.062 L200.508,31.14 L203.298,31.14 Z M214.404,40.617 C213.959998,40.617 213.568502,40.5525006 213.2295,40.4235 C212.890498,40.2944994 212.605501,40.1115012 212.3745,39.8745 C212.143499,39.6374988 211.968001,39.3510017 211.848,39.015 C211.727999,38.6789983 211.668,38.3040021 211.668,37.89 L211.668,33.066 L210.876,33.066 C210.731999,33.066 210.609001,33.0195005 210.507,32.9265 C210.404999,32.8334995 210.354,32.6970009 210.354,32.517 L210.354,31.428 L211.839,31.14 L212.388,28.863 C212.46,28.5749986 212.663998,28.431 213,28.431 L214.458,28.431 L214.458,31.158 L216.726,31.158 L216.726,33.066 L214.458,33.066 L214.458,37.701 C214.458,37.9170011 214.510499,38.0954993 214.6155,38.2365 C214.720501,38.3775007 214.871999,38.448 215.07,38.448 C215.172001,38.448 215.2575,38.4375001 215.3265,38.4165 C215.3955,38.3954999 215.4555,38.3715001 215.5065,38.3445 C215.5575,38.3174999 215.6055,38.2935001 215.6505,38.2725 C215.6955,38.2514999 215.748,38.241 215.808,38.241 C215.892,38.241 215.9595,38.2604998 216.0105,38.2995 C216.0615,38.3385002 216.114,38.3999996 216.168,38.484 L217.014,39.807 C216.653998,40.0770013 216.249002,40.2794993 215.799,40.4145 C215.348998,40.5495007 214.884002,40.617 214.404,40.617 Z M218.328,40.473 L218.328,27 L221.118,27 L221.118,31.959 C221.454002,31.6709986 221.818498,31.4385009 222.2115,31.2615 C222.604502,31.0844991 223.073997,30.996 223.62,30.996 C224.130003,30.996 224.581498,31.0844991 224.9745,31.2615 C225.367502,31.4385009 225.698999,31.6844984 225.969,31.9995 C226.239001,32.3145016 226.442999,32.6894978 226.581,33.1245 C226.719001,33.5595022 226.788,34.0319974 226.788,34.542 L226.788,40.473 L223.998,40.473 L223.998,34.542 C223.998,34.0859977 223.893001,33.7305013 223.683,33.4755 C223.472999,33.2204987 223.164002,33.093 222.756,33.093 C222.449998,33.093 222.162001,33.1589993 221.892,33.291 C221.621999,33.4230007 221.364001,33.5999989 221.118,33.822 L221.118,40.473 L218.328,40.473 Z M232.926,30.996 C233.634004,30.996 234.278997,31.1069989 234.861,31.329 C235.443003,31.5510011 235.942498,31.8689979 236.3595,32.283 C236.776502,32.6970021 237.100499,33.199497 237.3315,33.7905 C237.562501,34.381503 237.678,35.0459963 237.678,35.784 C237.678,36.5280037 237.562501,37.198497 237.3315,37.7955 C237.100499,38.392503 236.776502,38.8994979 236.3595,39.3165 C235.942498,39.7335021 235.443003,40.0544989 234.861,40.2795 C234.278997,40.5045011 233.634004,40.617 232.926,40.617 C232.211996,40.617 231.562503,40.5045011 230.9775,40.2795 C230.392497,40.0544989 229.888502,39.7335021 229.4655,39.3165 C229.042498,38.8994979 228.715501,38.392503 228.4845,37.7955 C228.253499,37.198497 228.138,36.5280037 228.138,35.784 C228.138,35.0459963 228.253499,34.381503 228.4845,33.7905 C228.715501,33.199497 229.042498,32.6970021 229.4655,32.283 C229.888502,31.8689979 230.392497,31.5510011 230.9775,31.329 C231.562503,31.1069989 232.211996,30.996 232.926,30.996 Z M232.926,38.547 C233.568003,38.547 234.040498,38.3205023 234.3435,37.8675 C234.646502,37.4144977 234.798,36.7260046 234.798,35.802 C234.798,34.8779954 234.646502,34.1910022 234.3435,33.741 C234.040498,33.2909978 233.568003,33.066 232.926,33.066 C232.265997,33.066 231.783002,33.2909978 231.477,33.741 C231.170998,34.1910022 231.018,34.8779954 231.018,35.802 C231.018,36.7260046 231.170998,37.4144977 231.477,37.8675 C231.783002,38.3205023 232.265997,38.547 232.926,38.547 Z M239.208,40.473 L239.208,31.14 L240.864,31.14 C241.002001,31.14 241.1175,31.1519999 241.2105,31.176 C241.3035,31.2000001 241.3815,31.2374997 241.4445,31.2885 C241.5075,31.3395003 241.5555,31.4069996 241.5885,31.491 C241.6215,31.5750004 241.65,31.6769994 241.674,31.797 L241.827,32.67 C242.169002,32.1419974 242.552998,31.7250015 242.979,31.419 C243.405002,31.1129985 243.869997,30.96 244.374,30.96 C244.800002,30.96 245.141999,31.061999 245.4,31.266 L245.04,33.318 C245.016,33.4440006 244.968,33.5324997 244.896,33.5835 C244.824,33.6345003 244.728001,33.66 244.608,33.66 C244.505999,33.66 244.386001,33.6465001 244.248,33.6195 C244.109999,33.5924999 243.936001,33.579 243.726,33.579 C242.993996,33.579 242.418002,33.9689961 241.998,34.749 L241.998,40.473 L239.208,40.473 Z M249.522,31.14 L249.522,40.473 L246.732,40.473 L246.732,31.14 L249.522,31.14 Z M249.846,28.584 C249.846,28.8060011 249.801,29.014499 249.711,29.2095 C249.621,29.404501 249.498001,29.5754993 249.342,29.7225 C249.185999,29.8695007 249.004501,29.9864996 248.7975,30.0735 C248.590499,30.1605004 248.370001,30.204 248.136,30.204 C247.907999,30.204 247.695001,30.1605004 247.497,30.0735 C247.298999,29.9864996 247.123501,29.8695007 246.9705,29.7225 C246.817499,29.5754993 246.6975,29.404501 246.6105,29.2095 C246.5235,29.014499 246.48,28.8060011 246.48,28.584 C246.48,28.3559989 246.5235,28.143001 246.6105,27.945 C246.6975,27.746999 246.817499,27.5730007 246.9705,27.423 C247.123501,27.2729992 247.298999,27.1560004 247.497,27.072 C247.695001,26.9879996 247.907999,26.946 248.136,26.946 C248.370001,26.946 248.590499,26.9879996 248.7975,27.072 C249.004501,27.1560004 249.185999,27.2729992 249.342,27.423 C249.498001,27.5730007 249.621,27.746999 249.711,27.945 C249.801,28.143001 249.846,28.3559989 249.846,28.584 Z M255.048,40.617 C254.603998,40.617 254.212502,40.5525006 253.8735,40.4235 C253.534498,40.2944994 253.249501,40.1115012 253.0185,39.8745 C252.787499,39.6374988 252.612001,39.3510017 252.492,39.015 C252.371999,38.6789983 252.312,38.3040021 252.312,37.89 L252.312,33.066 L251.52,33.066 C251.375999,33.066 251.253001,33.0195005 251.151,32.9265 C251.048999,32.8334995 250.998,32.6970009 250.998,32.517 L250.998,31.428 L252.483,31.14 L253.032,28.863 C253.104,28.5749986 253.307998,28.431 253.644,28.431 L255.102,28.431 L255.102,31.158 L257.37,31.158 L257.37,33.066 L255.102,33.066 L255.102,37.701 C255.102,37.9170011 255.154499,38.0954993 255.2595,38.2365 C255.364501,38.3775007 255.515999,38.448 255.714,38.448 C255.816001,38.448 255.9015,38.4375001 255.9705,38.4165 C256.0395,38.3954999 256.0995,38.3715001 256.1505,38.3445 C256.2015,38.3174999 256.2495,38.2935001 256.2945,38.2725 C256.3395,38.2514999 256.392,38.241 256.452,38.241 C256.536,38.241 256.6035,38.2604998 256.6545,38.2995 C256.7055,38.3385002 256.758,38.3999996 256.812,38.484 L257.658,39.807 C257.297998,40.0770013 256.893002,40.2794993 256.443,40.4145 C255.992998,40.5495007 255.528002,40.617 255.048,40.617 Z M262.788,42.894 C262.704,43.0800009 262.602001,43.2164996 262.482,43.3035 C262.361999,43.3905004 262.170001,43.434 261.906,43.434 L259.818,43.434 L261.618,39.654 L257.892,31.14 L260.358,31.14 C260.574001,31.14 260.741999,31.1879995 260.862,31.284 C260.982001,31.3800005 261.066,31.4939993 261.114,31.626 L262.644,35.649 C262.788001,36.0210019 262.905,36.3929981 262.995,36.765 C263.055,36.572999 263.121,36.3840009 263.193,36.198 C263.265,36.0119991 263.334,35.823001 263.4,35.631 L264.786,31.626 C264.834,31.4879993 264.928499,31.3725005 265.0695,31.2795 C265.210501,31.1864995 265.361999,31.14 265.524,31.14 L267.774,31.14 L262.788,42.894 Z" id="Massachusetts-Bay-Tr"></path>
                    <g id="MBTA">
                        <path d="M24,48 C37.254834,48 48,37.254834 48,24 C48,10.745166 37.254834,0 24,0 C10.745166,0 0,10.745166 0,24 C0,37.254834 10.745166,48 24,48 L24,48 Z M24,45.888 C11.9115914,45.888 2.112,36.0884086 2.112,24 C2.112,11.9115914 11.9115914,2.112 24,2.112 C36.0884086,2.112 45.888,11.9115914 45.888,24 C45.888,36.0884086 36.0884086,45.888 24,45.888 L24,45.888 Z" id="Oval" fill-rule="nonzero"></path>
                        <polygon id="Shape" points="8.16 12.24 39.84 12.24 39.84 19.56 28.08 19.56 28.08 39.144 19.968 39.144 19.968 19.56 8.208 19.56"></polygon>
                    </g>
                </g>
            </g>
        </g>
    </g>
</svg>