<?xml version="1.0" encoding="UTF-8" standalone="no"?>
<svg width="36px" height="36px" viewBox="0 0 36 36" version="1.1" xmlns="http://www.w3.org/2000/svg" xmlns:xlink="http://www.w3.org/1999/xlink">
    <!-- Generator: Sketch 3.7.2 (28276) - http://www.bohemiancoding.com/sketch -->
    <title>t-icon</title>
    <desc>Created with Sketch.</desc>
    <defs></defs>
    <g id="Page-1" stroke="none" stroke-width="1" fill="none" fill-rule="evenodd">
        <g id="t-icon" fill="#000000">
            <path d="M18,36 C27.9411255,36 36,27.9411255 36,18 C36,8.0588745 27.9411255,0 18,0 C8.0588745,0 0,8.0588745 0,18 C0,27.9411255 8.0588745,36 18,36 L18,36 Z M18,34.416 C8.93369355,34.416 1.584,27.0663065 1.584,18 C1.584,8.93369355 8.93369355,1.584 18,1.584 C27.0663065,1.584 34.416,8.93369355 34.416,18 C34.416,27.0663065 27.0663065,34.416 18,34.416 L18,34.416 Z" id="Oval"></path>
            <polygon id="Shape" points="6.12 9.18 29.88 9.18 29.88 14.67 21.06 14.67 21.06 29.358 14.976 29.358 14.976 14.67 6.156 14.67"></polygon>
        </g>
    </g>
</svg>