<?xml version="1.0" encoding="utf-8"?>
<svg width="11px" height="16px" viewBox="7.336 3.958 10.706 16" xmlns="http://www.w3.org/2000/svg">
  <title>walk</title>
  <desc>Created with Sketch.</desc>
  <g id="Page-1" stroke="none" stroke-width="1" fill="none" fill-rule="evenodd">
    <g id="walk" fill-rule="nonzero" fill="#1C1E23">
      <g id="Group-13-Copy" transform="translate(12.500000, 12.000000) scale(-1, 1) translate(-12.500000, -12.000000) translate(7.000000, 4.000000)">
        <circle id="Oval" cx="4.31804082" cy="1.31804082" r="1.31804082"/>
        <path d="M0.60228579,6.98367384 C0.968489871,6.9203269 2.43477559,6.66628608 2.5165715,6.63902078 C2.61028579,6.6078371 2.5165715,6.63902078 2.54775518,6.59216364 C2.57877559,6.54530649 3.85795926,3.84685751 3.98285722,3.70644935 C4.10759191,3.56604119 4.45077559,3.20718404 4.93420416,3.05126568 C5.41779599,2.89534731 5.90138783,3.1448167 5.90138783,3.1448167 C5.90138783,3.1448167 8.30351028,4.51755139 8.45942865,4.59542894 C8.61551028,4.67346976 8.75591844,4.95428608 8.75591844,4.95428608 L9.87738783,7.06253098 C9.96914293,7.17828608 10.0243266,7.32440853 10.0243266,7.48375547 C10.0243266,7.85844935 9.72065314,8.16228608 9.34579599,8.16228608 C9.02546946,8.16228608 8.75771436,7.93991874 8.68636742,7.64146976 L7.64065314,5.66400037 L6.98546946,5.29746976 C7.03216334,5.43787792 7.6328164,8.36261262 7.6328164,8.36261262 L8.24114293,11.8254698 L10.3727348,14.3937963 C10.5260409,14.5366534 10.6223674,14.7397555 10.6223674,14.9657147 C10.6223674,15.3978779 10.2721633,15.7484085 9.83983681,15.7484085 C9.5768164,15.7484085 9.34432661,15.6177963 9.20244906,15.4184493 C8.81175518,14.9593473 6.84751028,12.6504493 6.65795926,12.425633 C6.44734701,12.1761636 6.3928164,12.0514289 6.36163273,11.8876738 C6.33061232,11.7237555 5.97942865,9.61028608 5.97942865,9.61028608 L3.96718375,11.6228575 L3.96718375,15.1712657 L3.96310212,15.1712657 C3.92261232,15.5684902 3.58710212,15.8783677 3.17926538,15.8783677 C2.77159191,15.8783677 2.43608171,15.5684902 2.39575518,15.1712657 L2.39167354,15.1712657 C2.39167354,15.1712657 2.39183681,15.1461228 2.39216334,15.102531 C2.39216334,15.0986126 2.39167354,15.094531 2.39167354,15.0906126 C2.39167354,15.0855514 2.39232661,15.0804902 2.39232661,15.0752657 C2.39608171,14.534531 2.41273477,11.8424493 2.39167354,11.2326534 C2.36832661,10.5542861 2.61028579,10.4060412 2.6648164,10.3436738 C2.71951028,10.2813065 4.59902048,8.28473506 4.59902048,8.28473506 L4.18579599,6.28049017 C4.18579599,6.28049017 3.64751028,7.33322486 3.59297967,7.45028608 C3.53828579,7.56718404 3.36669395,7.77795955 3.18759191,7.8168167 C3.00800008,7.8558371 0.769632729,8.30824527 0.769632729,8.30824527 L0.768653137,8.30351057 C0.73583681,8.30840853 0.702530688,8.31363302 0.668244973,8.31363302 C0.299102116,8.31363302 7.54982038e-08,8.01453098 7.54982038e-08,7.64538813 C-0.000163189808,7.29861262 0.264489871,7.01730649 0.60228579,6.98367384 Z" id="Shape"/>
      </g>
    </g>
  </g>
</svg>